<svg width="41" height="40" viewBox="0 0 41 40" fill="none" xmlns="http://www.w3.org/2000/svg">
<mask id="mask0_2400_959" style="mask-type:luminance" maskUnits="userSpaceOnUse" x="0" y="4" width="41" height="32">
<path d="M0.5 4.01886H40.5V35.9812H0.5V4.01886Z" fill="white"/>
</mask>
<g mask="url(#mask0_2400_959)">
<path d="M2.31587 27.8463L4.7806 25.868H6.50415V27.2468L4.03124 29.2253C3.77308 29.4317 3.77308 29.7715 4.03124 29.978C4.58907 30.4243 5.32186 30.6642 6.11291 30.6642C7.40353 30.6642 8.61075 30.2644 9.5267 29.5316L9.64321 29.4384C10.6258 28.6523 11.1671 27.5999 11.1671 26.4874C11.1671 25.8812 11.4585 25.3151 11.9914 24.8888L13.1655 23.9495L15.4718 25.7947C16.8125 26.8671 18.5943 27.4601 20.4929 27.4601C22.0333 27.4601 23.4821 27.9397 24.5728 28.8123L25.547 29.5916L24.6895 30.2778C24.4397 30.4776 24.4314 30.7973 24.6644 31.0105L29.9934 35.8066C30.1183 35.9199 30.3015 35.9865 30.493 35.9865C30.5014 35.9865 30.5014 35.9865 30.5098 35.9865C30.7013 35.9865 30.8844 35.9132 31.0093 35.7933L37.5957 29.3985L36.5633 28.7191L30.4765 34.6343L26.0717 30.6841L35.1477 23.4233L38.9113 26.4341L37.654 27.6599L38.6864 28.3394L40.3352 26.7406C40.5516 26.5275 40.5349 26.221 40.2935 26.0279L35.6306 22.2976C35.3724 22.091 34.9478 22.091 34.6897 22.2976L33.8154 22.9836L31.7421 21.3249C30.9343 20.6788 30.4848 19.8128 30.4848 18.8936V17.9144C30.4848 16.7153 29.9019 15.5829 28.8361 14.7303L26.7712 13.0783C27.2789 12.7318 27.9202 12.5387 28.6029 12.5387C29.9934 12.5387 31.309 12.1057 32.2916 11.3196L32.4083 11.2264C33.3159 10.5004 33.8238 9.52787 33.8238 8.49537C33.8238 7.86907 33.5156 7.27629 32.9661 6.83002C32.708 6.62349 32.2832 6.62349 32.0252 6.83002L29.5438 8.81506H27.8202V7.43621L30.2933 5.45772C30.5513 5.25119 30.5513 4.91154 30.2933 4.70501C29.7353 4.25875 29.0027 4.01886 28.2116 4.01886C26.921 4.01886 25.7136 4.41852 24.7977 5.15127L24.6811 5.24464C23.6986 6.03055 23.1573 7.07646 23.1573 8.18892C23.1573 8.79511 22.866 9.36124 22.3329 9.78755L20.4929 11.2598L18.3029 9.50776C17.3121 8.71515 15.6883 8.71515 14.6976 9.50776C13.9897 10.074 13.79 10.8933 14.0896 11.6061C13.5817 11.6727 13.0905 11.8593 12.6991 12.1724C12.2163 12.5587 11.9497 13.0716 11.9497 13.6178C11.9497 14.0708 12.1329 14.4971 12.4744 14.8568C12.0664 14.95 11.6834 15.1232 11.367 15.3764C10.6591 15.9426 10.4594 16.7619 10.7591 17.4747C10.2511 17.5413 9.75992 17.7279 9.36849 18.041C8.53594 18.707 8.40267 19.7196 8.96049 20.499L7.72813 21.4849C7.19524 21.9112 6.48759 22.1444 5.72986 22.1444C4.33928 22.1444 3.02373 22.5774 2.04115 23.3633L1.92464 23.4566C1.01687 24.1827 0.509125 25.1552 0.509125 26.1877C0.509125 26.8138 0.817165 27.4068 1.36661 27.853C1.63315 28.0529 2.04953 28.0529 2.31587 27.8463ZM23.274 10.5403C24.0567 9.91412 24.4896 9.0749 24.4896 8.18892C24.4896 7.35625 24.8976 6.57689 25.6304 5.99065L25.7469 5.89744C26.4047 5.37776 27.2789 5.08472 28.2116 5.08472C28.4113 5.08472 28.5947 5.11137 28.7778 5.16468L26.6878 6.83657C26.5629 6.93648 26.4963 7.06975 26.4963 7.21627V9.34799C26.4963 9.64103 26.7961 9.88092 27.1624 9.88092H29.8269C30.0018 9.88092 30.1766 9.82761 30.3015 9.7277L32.3915 8.05565C32.4582 8.19547 32.4915 8.34869 32.4915 8.50862C32.4915 9.25462 32.1252 9.95418 31.4672 10.4869L31.3507 10.5803C30.6179 11.1666 29.6437 11.493 28.6029 11.493C27.4956 11.493 26.4464 11.8393 25.6637 12.4654L23.8235 13.9243L21.4337 12.0125L23.274 10.5403ZM10.3094 18.787C10.784 18.4073 11.5585 18.4073 12.0331 18.787L13.3652 19.8529L14.3061 19.1002L12.974 18.0343L12.3078 17.5014C11.8332 17.1217 11.8332 16.5022 12.3078 16.1225C12.7825 15.7428 13.5568 15.7428 14.0314 16.1225L15.3637 17.1882L16.0299 17.7212L16.9707 16.9684L16.3046 16.4355L14.9723 15.3698L13.6402 14.304C13.4069 14.1174 13.282 13.8776 13.282 13.6178C13.282 13.3581 13.4069 13.1115 13.6402 12.9317C14.1146 12.5521 14.8891 12.5521 15.3637 12.9317L18.6943 15.5963L19.6352 14.8436L16.3046 12.1789L15.6384 11.646C15.1638 11.2665 15.1638 10.6469 15.6384 10.2672C16.1131 9.88746 16.8874 9.88746 17.362 10.2672L26.0216 17.1949L26.9625 16.4422L24.7643 14.677L25.8219 13.831L27.8952 15.4897C28.7028 16.1358 29.1525 17.0018 29.1525 17.921V18.9002C29.1525 20.0993 29.7353 21.2317 30.8013 22.0843L32.8745 23.743L31.1508 25.1153L27.154 21.9179V21.0718H27.8202C28.1867 21.0718 28.4864 20.8321 28.4864 20.5389V18.4073C28.4864 18.1143 28.1867 17.8744 27.8202 17.8744H25.1558C24.7893 17.8744 24.4896 18.1143 24.4896 18.4073V20.5389C24.4896 20.8321 24.7893 21.0718 25.1558 21.0718H25.8219V22.1376C25.8219 22.2775 25.8886 22.4174 26.0135 22.5174L30.2017 25.868L28.4864 27.2468L25.0975 24.5357L25.622 24.116C25.8802 23.9096 25.8802 23.5698 25.622 23.3633L23.6235 21.7646C23.3656 21.5581 22.9408 21.5581 22.6827 21.7646L20.6844 23.3633C20.4262 23.5698 20.4262 23.9096 20.6844 24.116L22.6827 25.7148C22.8159 25.8214 22.9825 25.868 23.1573 25.868C23.3323 25.868 23.4987 25.8147 23.6319 25.7148L24.1566 25.2952L27.5455 28.0063L26.4881 28.8456L25.5137 28.0663C24.1732 26.9937 22.3914 26.4009 20.4929 26.4009C18.9525 26.4009 17.5036 25.9213 16.4127 25.0486L10.3012 20.1593C9.83474 19.7796 9.83474 19.1667 10.3094 18.787ZM25.8219 20.0061V18.9402H27.154V20.0061H25.8219ZM23.1573 24.5824L22.0999 23.7364L23.1573 22.8904L24.2149 23.7364L23.1573 24.5824ZM2.86552 24.2026L2.98203 24.1094C3.71482 23.5232 4.68902 23.1968 5.72986 23.1968C6.83733 23.1968 7.88634 22.8505 8.66901 22.2243L9.84312 21.285L12.2328 23.1968L11.0589 24.1361C10.276 24.7622 9.84312 25.6014 9.84312 26.4874C9.84312 27.3201 9.43512 28.0995 8.70233 28.6857L8.58582 28.7789C7.91966 29.3051 7.04541 29.5983 6.11291 29.5983C5.913 29.5983 5.72986 29.5717 5.54671 29.5184L7.63656 27.8463C7.76145 27.7464 7.82808 27.6133 7.82808 27.4666V25.3351C7.82808 25.042 7.52842 24.8021 7.16193 24.8021H4.50587C4.3309 24.8021 4.15613 24.8554 4.03124 24.9554L1.94119 26.6274C1.87456 26.4874 1.84124 26.3342 1.84124 26.1744C1.84124 25.435 2.20774 24.7356 2.86552 24.2026Z" fill="#39A154"/>
</g>
</svg>
