<svg width="41" height="40" viewBox="0 0 41 40" fill="none" xmlns="http://www.w3.org/2000/svg">
<mask id="mask0_2425_193" style="mask-type:luminance" maskUnits="userSpaceOnUse" x="3" y="24" width="5" height="15">
<path d="M3.56332 24.5926H7.56178V38.963H3.56332V24.5926Z" fill="white"/>
</mask>
<g mask="url(#mask0_2425_193)">
<path d="M7.4323 37.7805H4.82022L6.00753 27.3089C6.09665 26.5079 6.60128 26.0037 7.40278 25.8553H7.4323V24.6391L7.22454 24.6688C5.9186 24.8764 4.99846 25.8256 4.84993 27.1607L3.60321 38.2847C3.5735 38.6406 3.84067 38.9373 4.19696 38.9373H7.55112C7.49171 38.7593 7.462 38.5517 7.462 38.3442V37.7805H7.4323Z" fill="#39A154"/>
</g>
<mask id="mask1_2425_193" style="mask-type:luminance" maskUnits="userSpaceOnUse" x="33" y="24" width="5" height="15">
<path d="M33.4383 24.6419H37.4383V38.9967H33.4383V24.6419Z" fill="white"/>
</mask>
<g mask="url(#mask1_2425_193)">
<path d="M37.4122 38.3144L36.1655 27.1901C36.0172 25.885 35.0968 24.9357 33.7909 24.6984L33.5534 24.6687V25.885H33.5832C34.3845 26.0036 34.8891 26.5376 34.9782 27.3385L36.1655 37.8101H33.5534V38.4033C33.5534 38.6111 33.5237 38.8186 33.4643 38.9967H36.8185C37.1748 38.967 37.4419 38.6406 37.4122 38.3144Z" fill="#39A154"/>
</g>
<path d="M25.6578 22.8297L25.5984 22.5627C25.2421 22.8 24.886 23.0075 24.5297 23.1856C24.6485 23.5712 24.8563 23.8976 25.1829 24.1349C24.233 26.3596 22.4817 27.6947 20.4928 27.6947C18.504 27.6947 16.7529 26.3596 15.803 24.1349C16.1294 23.8976 16.3669 23.5712 16.456 23.1856C16.07 23.0075 15.7139 22.8 15.3873 22.5627L15.3281 22.8297C15.2984 22.978 15.2093 23.1262 15.0609 23.1856C15.0907 23.3042 15.0907 23.4229 15.0907 23.5415C15.0907 23.6009 15.0907 23.6306 15.0907 23.6898V25.4105C16.3077 27.5758 18.2963 28.8812 20.4928 28.8812C22.6894 28.8812 24.6782 27.5758 25.8952 25.4105V23.6898C25.8952 23.6306 25.8952 23.6009 25.8952 23.5415C25.8952 23.4229 25.9248 23.3042 25.9248 23.1856C25.8061 23.1262 25.6873 22.978 25.6578 22.8297Z" fill="#39A154"/>
<path d="M29.0712 14.049H27.8839C27.6168 18.3503 24.4111 21.7618 20.4929 21.7618C16.5747 21.7618 13.3691 18.3503 13.1019 14.049H11.9146C12.1818 19.0029 15.9217 22.9483 20.4929 22.9483C25.0641 22.9483 28.8043 19.0029 29.0712 14.049Z" fill="#39A154"/>
<mask id="mask2_2425_193" style="mask-type:luminance" maskUnits="userSpaceOnUse" x="8" y="0" width="25" height="13">
<path d="M8.89511 0.996735H32.105V12.8889H8.89511V0.996735Z" fill="white"/>
</mask>
<g mask="url(#mask2_2425_193)">
<path d="M10.6977 12.8625H30.2883C31.2679 12.8625 32.0694 12.0616 32.0694 11.0826C32.0694 10.1036 31.2679 9.30271 30.2883 9.30271H29.9025C29.3385 4.61578 25.3313 0.996765 20.493 0.996765C15.6546 0.996765 11.6475 4.61578 11.0835 9.30271H10.6977C9.7181 9.30271 8.9166 10.1036 8.9166 11.0826C8.9166 12.0616 9.7181 12.8625 10.6977 12.8625ZM16.9311 2.98423V4.55637C16.9311 4.88276 17.1982 5.14974 17.5246 5.14974C17.8512 5.14974 18.1184 4.88276 18.1184 4.55637V2.5392C18.6824 2.36135 19.276 2.27223 19.8994 2.21301V6.03959C19.8994 6.36598 20.1664 6.63295 20.493 6.63295C20.8196 6.63295 21.0867 6.36598 21.0867 6.03959V2.21301C21.71 2.24252 22.3037 2.36135 22.8676 2.5392V4.55637C22.8676 4.88276 23.1348 5.14974 23.4613 5.14974C23.7877 5.14974 24.0549 4.88276 24.0549 4.55637V2.98423C26.5186 4.17076 28.2997 6.51432 28.7152 9.30271H12.2708C12.6865 6.51432 14.4673 4.17076 16.9311 2.98423ZM10.6977 10.4892H30.2883C30.6149 10.4892 30.8821 10.7562 30.8821 11.0826C30.8821 11.4088 30.6149 11.6758 30.2883 11.6758H10.6977C10.3711 11.6758 10.1039 11.4088 10.1039 11.0826C10.1039 10.7562 10.3711 10.4892 10.6977 10.4892Z" fill="#39A154"/>
</g>
<mask id="mask3_2425_193" style="mask-type:luminance" maskUnits="userSpaceOnUse" x="8" y="22" width="25" height="17">
<path d="M8.59879 22.4691H32.4013V38.9967H8.59879V22.4691Z" fill="white"/>
</mask>
<g mask="url(#mask3_2425_193)">
<path d="M31.4163 23.1559L28.5074 22.533C27.7653 22.3846 27.0826 22.9483 27.0826 23.6898V30.0677H13.9032V23.6898C13.9032 22.9483 13.1908 22.3846 12.4784 22.533L9.56967 23.1559C9.03533 23.2745 8.61963 23.7492 8.61963 24.3129V38.3736C8.61963 38.7 8.8868 38.967 9.21338 38.967H31.7724C32.099 38.967 32.3662 38.7 32.3662 38.3736V24.3129C32.3662 23.7492 31.9802 23.2745 31.4163 23.1559ZM31.1788 37.7805H9.80713V24.3129L12.7159 23.6898V30.0677C12.7159 30.7203 13.2502 31.2542 13.9032 31.2542H27.0529C27.7059 31.2542 28.2402 30.7203 28.2402 30.0677V23.6898L31.1491 24.3129V37.7805H31.1788Z" fill="#39A154"/>
</g>
</svg>
