<svg width="41" height="40" viewBox="0 0 41 40" fill="none" xmlns="http://www.w3.org/2000/svg">
<g clip-path="url(#clip0_2425_330)">
<path d="M28.4018 25.554V19.2465C28.4018 19.2132 28.3987 19.1804 28.3922 19.1478C28.3856 19.1152 28.376 19.0835 28.3634 19.0529C28.3507 19.022 28.3351 18.9929 28.3166 18.9653C28.298 18.9377 28.2772 18.912 28.2537 18.8885C28.2301 18.8652 28.2047 18.8441 28.1769 18.8256C28.1493 18.8071 28.1202 18.7917 28.0895 18.7789C28.0589 18.7662 28.0272 18.7566 27.9946 18.75C27.962 18.7436 27.929 18.7404 27.8959 18.7404H21.5893C21.5562 18.7404 21.5232 18.7436 21.4906 18.75C21.458 18.7566 21.4263 18.7662 21.3957 18.7789C21.365 18.7917 21.3359 18.8071 21.3083 18.8256C21.2805 18.8441 21.255 18.8652 21.2315 18.8885C21.208 18.912 21.1871 18.9377 21.1686 18.9653C21.1501 18.9929 21.1345 19.022 21.1217 19.0529C21.109 19.0835 21.0996 19.1152 21.093 19.1478C21.0864 19.1804 21.0832 19.2132 21.0832 19.2465V25.554C21.0832 25.5872 21.0864 25.6202 21.093 25.6528C21.0996 25.6854 21.109 25.717 21.1217 25.7477C21.1345 25.7784 21.1501 25.8075 21.1686 25.8351C21.1871 25.8629 21.208 25.8883 21.2315 25.9118C21.255 25.9354 21.2805 25.9564 21.3083 25.9747C21.3359 25.9933 21.365 26.0089 21.3957 26.0216C21.4263 26.0343 21.458 26.0438 21.4906 26.0504C21.5232 26.0569 21.5562 26.0602 21.5893 26.0602H27.8959C27.929 26.0602 27.962 26.0569 27.9946 26.0504C28.0272 26.0438 28.0589 26.0343 28.0895 26.0216C28.1202 26.0089 28.1493 25.9933 28.1769 25.9747C28.2047 25.9562 28.2301 25.9354 28.2537 25.9118C28.2772 25.8883 28.298 25.8629 28.3166 25.8351C28.3351 25.8075 28.3507 25.7784 28.3634 25.7477C28.376 25.717 28.3856 25.6854 28.3922 25.6528C28.3987 25.6202 28.4018 25.5872 28.4018 25.554ZM27.3897 25.0478H22.0953V19.7527H27.3897V25.0478Z" fill="#39A154"/>
<mask id="mask0_2425_330" style="mask-type:luminance" maskUnits="userSpaceOnUse" x="0" y="1" width="40" height="38">
<path d="M0.697552 1.72491H39.5124V38.2716H0.697552V1.72491Z" fill="white"/>
</mask>
<g mask="url(#mask0_2425_330)">
<path d="M39.1251 22.2218C39.1035 22.1694 39.0736 22.1221 39.0358 22.0801C38.9978 22.038 38.954 22.0033 38.904 21.9763L38.8905 21.967C38.8571 21.95 38.8222 21.9369 38.7858 21.9279C38.7528 21.9165 38.7188 21.909 38.6841 21.9055C38.665 21.9053 38.6459 21.9065 38.6268 21.9086C38.5815 21.9093 38.5373 21.9173 38.4945 21.9319C38.486 21.9346 38.4773 21.9331 38.4688 21.9364C38.426 21.9674 38.3809 21.9946 38.3334 22.0181L35.0317 24.7463L33.812 24.6204L33.686 23.4009L36.4138 20.0986C36.4387 20.0677 36.4596 20.0343 36.4763 19.9985C36.4931 19.9626 36.5057 19.9254 36.5136 19.8866C36.5215 19.8476 36.5248 19.8085 36.5232 19.7689C36.5217 19.7292 36.5157 19.6904 36.5049 19.6522C36.4991 19.6208 36.4902 19.5905 36.4779 19.561C36.4682 19.543 36.4576 19.5261 36.4459 19.5097C36.4229 19.4697 36.3942 19.4344 36.36 19.4036C36.3542 19.3984 36.3519 19.3912 36.3459 19.3862C36.3238 19.3717 36.3006 19.3594 36.2763 19.3488C36.2547 19.332 36.2319 19.3171 36.208 19.3042C36.1062 19.2622 36.0032 19.2234 35.899 19.1881C35.7946 19.1528 35.6893 19.121 35.5828 19.0928C35.4763 19.0646 35.3691 19.0399 35.2611 19.0187C35.153 18.9977 35.0444 18.9801 34.9353 18.9663C34.8259 18.9524 34.7163 18.9421 34.6065 18.9356C34.4966 18.929 34.3866 18.9261 34.2765 18.9269C34.1663 18.9277 34.0564 18.9321 33.9466 18.9402C33.8369 18.9483 33.7273 18.9601 33.6183 18.9755C33.5093 18.9909 33.4009 19.0098 33.2933 19.0324C33.1854 19.0552 33.0786 19.0812 32.9725 19.1111C32.8666 19.1408 32.7616 19.174 32.6579 19.2109C32.5541 19.2475 32.4516 19.2876 32.3504 19.3312C32.2493 19.3748 32.1498 19.4217 32.0518 19.4718C31.9538 19.522 31.8575 19.5754 31.7632 19.6321C31.6687 19.6887 31.5763 19.7483 31.4858 19.8112C31.3953 19.8739 31.307 19.9396 31.2209 20.0083V18.3706H32.5236C32.6168 18.3692 32.7094 18.3609 32.8014 18.3457C32.8934 18.3303 32.9837 18.3081 33.0722 18.2791C33.1608 18.2502 33.2468 18.2147 33.3299 18.1727C33.4133 18.1308 33.4927 18.0828 33.5687 18.0288C33.6447 17.9747 33.7163 17.9153 33.7832 17.8505C33.8502 17.7857 33.9119 17.7161 33.9684 17.642C34.025 17.5677 34.0755 17.4898 34.1201 17.408C34.1648 17.3262 34.203 17.2413 34.235 17.1538C34.2668 17.0662 34.2919 16.9767 34.3103 16.8852C34.3286 16.7938 34.34 16.7016 34.3442 16.6084C34.3486 16.5152 34.3459 16.4225 34.3363 16.3297C34.3266 16.2369 34.3101 16.1455 34.2865 16.0552C34.263 15.9651 34.2327 15.8771 34.1961 15.7915C34.1592 15.7058 34.1162 15.6235 34.0668 15.5442C34.0176 15.4651 33.9626 15.3902 33.9019 15.3193C33.8413 15.2485 33.7757 15.1827 33.7051 15.1217L30.2688 12.2398V4.85591H30.7751C30.8083 4.85591 30.8413 4.85263 30.8739 4.84607C30.9065 4.83971 30.9381 4.83006 30.9688 4.81733C30.9995 4.8046 31.0286 4.78897 31.0562 4.77065C31.084 4.75213 31.1094 4.7311 31.133 4.70757C31.1565 4.68404 31.1773 4.65857 31.1959 4.63099C31.2144 4.60321 31.23 4.57408 31.2427 4.54341C31.2553 4.51274 31.2649 4.4811 31.2715 4.4485C31.278 4.4159 31.2811 4.38292 31.2811 4.34974V2.20776C31.2811 2.17458 31.278 2.14179 31.2715 2.10919C31.2649 2.07659 31.2555 2.04495 31.2427 2.01409C31.23 1.98342 31.2144 1.95429 31.1959 1.92671C31.1773 1.89912 31.1565 1.87346 31.133 1.84993C31.1094 1.8264 31.084 1.80556 31.0562 1.78704C31.0286 1.76853 30.9995 1.7529 30.9688 1.74017C30.9381 1.72744 30.9065 1.71799 30.8739 1.71143C30.8413 1.70487 30.8083 1.70178 30.7751 1.70178H24.4515C24.4183 1.70178 24.3855 1.70487 24.3529 1.71143C24.3203 1.71799 24.2886 1.72744 24.258 1.74017C24.2271 1.7529 24.198 1.76853 24.1704 1.78704C24.1428 1.80556 24.1172 1.8264 24.0938 1.84993C24.0703 1.87346 24.0493 1.89912 24.0307 1.92671C24.0124 1.95429 23.9968 1.98342 23.9841 2.01409C23.9713 2.04495 23.9617 2.07659 23.9551 2.10919C23.9488 2.14179 23.9455 2.17458 23.9455 2.20776V4.34974C23.9455 4.38311 23.9488 4.4159 23.9551 4.4485C23.9617 4.4811 23.9713 4.51274 23.9841 4.54341C23.9968 4.57408 24.0124 4.6034 24.0307 4.63099C24.0493 4.65857 24.0703 4.68423 24.0938 4.70757C24.1172 4.7311 24.1428 4.75213 24.1704 4.77065C24.198 4.78917 24.2271 4.8046 24.258 4.81733C24.2886 4.83006 24.3203 4.83971 24.3529 4.84627C24.3855 4.85263 24.4183 4.85591 24.4515 4.85591H24.9576V7.78589L18.7069 2.5436C18.6658 2.50927 18.6233 2.47667 18.5795 2.446C18.5358 2.41513 18.4906 2.38639 18.4443 2.35977C18.398 2.33296 18.3506 2.30826 18.3021 2.2855C18.2535 2.26293 18.2042 2.24248 18.154 2.22416C18.1037 2.20583 18.0527 2.18963 18.001 2.17593C17.9493 2.16204 17.8971 2.15047 17.8444 2.14102C17.7917 2.13176 17.7387 2.12481 17.6854 2.12019C17.632 2.11556 17.5786 2.11305 17.5251 2.11305C17.4715 2.11305 17.4183 2.11556 17.3648 2.12019C17.3116 2.12481 17.2586 2.13176 17.2059 2.14102C17.1532 2.15047 17.101 2.16204 17.0493 2.17593C16.9976 2.18963 16.9466 2.20583 16.8963 2.22416C16.8459 2.24248 16.7966 2.26293 16.7481 2.2855C16.6997 2.30826 16.6523 2.33296 16.606 2.35977C16.5595 2.38639 16.5145 2.41513 16.4706 2.446C16.4268 2.47667 16.3843 2.50927 16.3434 2.5436L1.34478 15.1217C1.27418 15.1827 1.20859 15.2485 1.14802 15.3193C1.08745 15.3901 1.03247 15.4651 0.983089 15.5442C0.933899 15.6235 0.890882 15.7058 0.854038 15.7915C0.817194 15.8771 0.787101 15.9651 0.763567 16.0554C0.740033 16.1455 0.723444 16.2369 0.713799 16.3297C0.704154 16.4225 0.701453 16.5154 0.70589 16.6084C0.710134 16.7016 0.721515 16.7938 0.73984 16.8852C0.758166 16.9767 0.783243 17.0662 0.815072 17.1538C0.847093 17.2415 0.885288 17.3262 0.930041 17.408C0.974601 17.4898 1.02533 17.5679 1.08166 17.642C1.13818 17.7163 1.19991 17.7857 1.26685 17.8505C1.33398 17.9153 1.40535 17.9747 1.48135 18.0288C1.55736 18.0828 1.63702 18.1308 1.72016 18.1728C1.8035 18.2147 1.88934 18.2502 1.97788 18.2791C2.06662 18.3081 2.15689 18.3303 2.24871 18.3457C2.34073 18.3609 2.43332 18.3692 2.52649 18.3706H3.82896V31.8173C3.82896 31.8775 3.83185 31.9377 3.83764 31.9975C3.84362 32.0575 3.8523 32.1171 3.86407 32.1761C3.87564 32.2352 3.8903 32.2936 3.90766 32.3513C3.92522 32.4088 3.94528 32.4655 3.96843 32.5212C3.99138 32.5768 4.01704 32.6312 4.0454 32.6844C4.07356 32.7375 4.10442 32.7892 4.1378 32.8393C4.17117 32.8895 4.20705 32.9377 4.24505 32.9844C4.28324 33.0311 4.32356 33.0756 4.36619 33.1183C4.40863 33.1609 4.45319 33.2014 4.49968 33.2396C4.54617 33.278 4.59439 33.3139 4.64435 33.3474C4.69432 33.381 4.74582 33.412 4.79887 33.4406C4.85192 33.469 4.90631 33.4948 4.96187 33.5179C5.01743 33.5411 5.07395 33.5615 5.13162 33.5793C5.18911 33.5968 5.24756 33.6115 5.30658 33.6235C5.36561 33.6354 5.42503 33.6443 5.48483 33.6505C5.54482 33.6565 5.60481 33.6595 5.66519 33.6597H22.0529C21.0863 34.6269 20.4075 35.3056 20.3492 35.3625C20.3282 35.3856 20.3093 35.4105 20.2925 35.4369C20.2757 35.4634 20.2614 35.4911 20.2497 35.5201C20.2377 35.549 20.2285 35.5787 20.2217 35.6092C20.215 35.6397 20.2109 35.6707 20.2096 35.702C20.2082 35.7332 20.2096 35.7643 20.2136 35.7953C20.2177 35.8264 20.2244 35.8567 20.2339 35.8866C20.2431 35.9165 20.2551 35.9452 20.2694 35.973C20.2838 36.0008 20.3004 36.0272 20.3193 36.0521C20.3704 36.1136 22.2493 37.9767 22.3496 38.0851C22.3978 38.1318 22.453 38.168 22.5149 38.1937C22.577 38.2195 22.6415 38.2332 22.7086 38.2346C22.7694 38.2346 22.8284 38.224 22.8853 38.2027C22.9422 38.1813 22.9937 38.1509 23.0398 38.1111C23.0566 38.0976 25.2302 35.9232 27.4925 33.6597H29.3847C29.4451 33.6595 29.5051 33.6565 29.5649 33.6503C29.6249 33.6443 29.6843 33.6352 29.7433 33.6235C29.8023 33.6115 29.8608 33.5968 29.9183 33.5791C29.976 33.5615 30.0325 33.5411 30.088 33.5179C30.1436 33.4948 30.198 33.469 30.251 33.4404C30.3041 33.412 30.3556 33.381 30.4055 33.3474C30.4555 33.3139 30.5037 33.278 30.5502 33.2396C30.5967 33.2014 30.6413 33.1609 30.6837 33.1183C30.7263 33.0756 30.7667 33.0309 30.8047 32.9844C30.8429 32.9377 30.8785 32.8893 30.9121 32.8393C30.9455 32.7892 30.9763 32.7375 31.0045 32.6844C31.0329 32.6312 31.0585 32.5768 31.0815 32.521C31.1046 32.4655 31.1247 32.4088 31.1422 32.3511C31.1596 32.2934 31.1741 32.2352 31.1858 32.1761C31.1976 32.1169 31.2063 32.0575 31.2123 31.9975C31.218 31.9375 31.2209 31.8775 31.2209 31.8173V29.9294C31.6702 29.4798 32.0304 29.1198 32.2578 28.8926C32.9206 29.1472 33.6067 29.2828 34.3164 29.2994C37.8079 29.4113 40.5323 25.4699 39.1251 22.2218ZM24.9576 2.71394H30.2692V3.84356H24.9576V2.71394ZM25.9698 4.85591H29.2566V11.391L25.9698 8.63465V4.85591ZM2.52649 17.3582C2.48405 17.3586 2.442 17.3559 2.39995 17.3497C2.35809 17.3438 2.31681 17.3345 2.2763 17.322C2.23579 17.3094 2.19644 17.294 2.15844 17.2755C2.12024 17.257 2.08378 17.2357 2.04906 17.2116C2.01415 17.1873 1.98135 17.1607 1.95068 17.1316C1.92001 17.1024 1.89165 17.071 1.8658 17.0374C1.83996 17.0039 1.81681 16.9686 1.79636 16.9313C1.77591 16.8943 1.75855 16.8557 1.74389 16.816C1.72942 16.7761 1.71804 16.7353 1.70994 16.6939C1.70165 16.6522 1.69682 16.6103 1.69509 16.5679C1.69335 16.5257 1.6947 16.4834 1.69952 16.4412C1.70435 16.3991 1.71226 16.3576 1.72344 16.3168C1.73463 16.2759 1.74891 16.2361 1.76627 16.1973C1.78344 16.1588 1.80369 16.1215 1.82684 16.086C1.84979 16.0505 1.87545 16.0168 1.90361 15.9852C1.93178 15.9537 1.96226 15.9244 1.99505 15.8974L16.9939 3.31926C17.0307 3.2884 17.0701 3.26081 17.1118 3.2367C17.1536 3.21258 17.197 3.19214 17.2423 3.17574C17.2877 3.15915 17.3342 3.14681 17.3816 3.13832C17.4291 3.13002 17.4769 3.12578 17.5251 3.12578C17.5734 3.12578 17.6212 3.13002 17.6687 3.13832C17.7161 3.14681 17.7626 3.15915 17.8077 3.17574C17.8531 3.19214 17.8967 3.21258 17.9383 3.2367C17.9802 3.26081 18.0195 3.2884 18.0564 3.31926C18.0564 3.31926 21.5167 6.22127 25.1129 9.23708L25.1235 9.24596C29.0116 12.5066 33.0549 15.8974 33.0549 15.8974C33.0876 15.9244 33.1181 15.9535 33.1463 15.9852C33.1746 16.0168 33.2003 16.0504 33.2233 16.086C33.2464 16.1215 33.2665 16.1586 33.2838 16.1973C33.3012 16.2359 33.3155 16.2759 33.3266 16.3168C33.3378 16.3576 33.3457 16.3991 33.3506 16.4412C33.3554 16.4832 33.3569 16.5255 33.3552 16.5679C33.3535 16.6102 33.3484 16.6522 33.3402 16.6937C33.332 16.7353 33.3207 16.7761 33.3062 16.8158C33.2917 16.8557 33.2742 16.8941 33.2539 16.9313C33.2335 16.9684 33.2103 17.0039 33.1845 17.0374C33.1584 17.071 33.1303 17.1022 33.0996 17.1316C33.0687 17.1607 33.0359 17.1873 33.0012 17.2116C32.9663 17.2357 32.9299 17.257 32.8918 17.2755C32.8537 17.294 32.8143 17.3096 32.7738 17.322C32.7333 17.3345 32.6922 17.3438 32.6501 17.3497C32.6083 17.3559 32.566 17.3586 32.5238 17.3582H30.9L17.8502 6.41667C17.8276 6.39758 17.8035 6.3808 17.7778 6.36613C17.7524 6.35128 17.7256 6.33894 17.698 6.3289C17.6702 6.31887 17.6418 6.31116 17.6127 6.30614C17.5838 6.30093 17.5545 6.29843 17.5249 6.29843C17.4954 6.29843 17.4661 6.30093 17.4372 6.30614C17.4081 6.31116 17.3797 6.31887 17.3519 6.3289C17.3241 6.33894 17.2975 6.35128 17.2721 6.36613C17.2464 6.3808 17.2223 6.39758 17.1997 6.41667C17.1997 6.41667 4.42638 17.1267 4.15033 17.3582H2.52649ZM11.4181 32.646V20.8555H17.6854V32.646H11.4181ZM18.6976 32.6474V20.3494C18.6976 20.3162 18.6943 20.2832 18.6878 20.2506C18.6814 20.218 18.6717 20.1864 18.659 20.1557C18.6463 20.125 18.6307 20.0959 18.6121 20.0683C18.5938 20.0405 18.5728 20.0151 18.5493 19.9915C18.5257 19.968 18.5003 19.947 18.4727 19.9286C18.4449 19.9101 18.4158 19.8945 18.3851 19.8818C18.3544 19.869 18.3228 19.8594 18.2902 19.853C18.2576 19.8465 18.2246 19.8432 18.1914 19.8432H10.9121C10.8787 19.8432 10.8459 19.8465 10.8133 19.853C10.7807 19.8594 10.7491 19.869 10.7184 19.8818C10.6878 19.8945 10.6584 19.9101 10.6309 19.9286C10.6033 19.947 10.5778 19.968 10.5543 19.9915C10.5307 20.0151 10.5097 20.0405 10.4912 20.0683C10.4729 20.0959 10.4572 20.125 10.4445 20.1557C10.4318 20.1864 10.4221 20.218 10.4158 20.2506C10.4092 20.2832 10.4059 20.3162 10.4059 20.3494V32.6474H5.66519C5.63799 32.6472 5.61098 32.6458 5.58417 32.6429C5.55716 32.6402 5.53035 32.6362 5.50392 32.6308C5.4773 32.6254 5.45107 32.6186 5.42522 32.6107C5.39937 32.6028 5.37391 32.5936 5.34902 32.583C5.32395 32.5725 5.29964 32.561 5.27572 32.548C5.25199 32.5351 5.22885 32.5212 5.20647 32.506C5.1839 32.4909 5.16229 32.4747 5.14146 32.4576C5.12063 32.4402 5.10057 32.4221 5.08147 32.4028C5.06237 32.3835 5.04424 32.3634 5.02726 32.3424C5.0101 32.3214 4.99408 32.2998 4.97904 32.2772C4.96419 32.2546 4.9503 32.2313 4.93756 32.2074C4.92483 32.1835 4.91345 32.159 4.90323 32.1339C4.89281 32.1088 4.88375 32.0833 4.87603 32.0575C4.86831 32.0315 4.86175 32.0052 4.85655 31.9786C4.85134 31.9522 4.84748 31.9254 4.84478 31.8984C4.84227 31.8713 4.84092 31.8443 4.84111 31.8173V18.1001L17.5249 7.4649L30.2088 18.0997V21.0216C30.138 21.1103 30.0703 21.2014 30.0057 21.2948C29.9412 21.3879 29.8799 21.4834 29.8218 21.581C29.7638 21.6784 29.7092 21.7778 29.6579 21.8791C29.6065 21.9803 29.5589 22.0831 29.5145 22.1877C29.4704 22.2923 29.4297 22.3982 29.3928 22.5054C29.3558 22.6127 29.3224 22.7211 29.2929 22.8306C29.2632 22.9402 29.2375 23.0507 29.2153 23.162C29.1934 23.2734 29.1752 23.3852 29.1608 23.4979C29.1463 23.6103 29.1359 23.7234 29.1291 23.8366C29.1226 23.95 29.1197 24.0633 29.1208 24.1769C29.1218 24.2903 29.1268 24.4036 29.1357 24.5168C29.1444 24.6298 29.1571 24.7427 29.1737 24.8549C29.1901 24.9672 29.2105 25.0787 29.2346 25.1896C29.2587 25.3005 29.2867 25.4105 29.3184 25.5195C29.35 25.6285 29.3853 25.7363 29.4243 25.8428C29.4634 25.9493 29.506 26.0544 29.5521 26.1582C28.6006 27.1073 25.4237 30.287 23.0647 32.6474H18.6976ZM30.2088 31.8173C30.2088 31.8443 30.2076 31.8713 30.2049 31.8984C30.2024 31.9254 30.1986 31.9522 30.1934 31.9786C30.1881 32.0052 30.1816 32.0315 30.1739 32.0575C30.166 32.0833 30.1571 32.1088 30.1467 32.1339C30.1364 32.159 30.1249 32.1835 30.1123 32.2074C30.0996 32.2313 30.0857 32.2546 30.0709 32.2772C30.0558 32.2998 30.0398 32.3214 30.0226 32.3424C30.0055 32.3634 29.9875 32.3835 29.9684 32.4028C29.9493 32.4221 29.9293 32.4402 29.9084 32.4576C29.8876 32.4747 29.866 32.4909 29.8434 32.506C29.8211 32.5212 29.7979 32.5351 29.774 32.548C29.7503 32.561 29.7258 32.5725 29.7009 32.583C29.676 32.5936 29.6505 32.6028 29.6247 32.6107C29.5986 32.6186 29.5726 32.6254 29.546 32.6308C29.5195 32.6362 29.4927 32.6402 29.4657 32.6429C29.4389 32.6458 29.4119 32.6472 29.3847 32.6474H28.5043C29.1011 32.0502 29.6822 31.469 30.2088 30.9419V31.8173ZM37.2528 27.0623C37.1756 27.1399 37.0954 27.2145 37.0124 27.2859C36.9293 27.3573 36.8436 27.4252 36.7551 27.4898C36.6667 27.5544 36.5759 27.6154 36.4825 27.6727C36.3891 27.7299 36.2939 27.7836 36.1962 27.8333C36.0986 27.8831 35.9993 27.9288 35.8982 27.9709C35.7969 28.0127 35.6943 28.0505 35.5902 28.0841C35.486 28.1179 35.3807 28.1474 35.274 28.1728C35.1675 28.1981 35.0601 28.2193 34.952 28.2361C34.8438 28.2529 34.735 28.2654 34.6258 28.2735C34.5167 28.2818 34.4073 28.2857 34.2977 28.2851C34.1883 28.2847 34.079 28.2799 33.9698 28.2707C33.8608 28.2616 33.7522 28.2481 33.6442 28.2303C33.5361 28.2126 33.4289 28.1904 33.3226 28.1642C33.2163 28.1379 33.1112 28.1075 33.0074 28.0727C32.9034 28.038 32.8012 27.9994 32.7003 27.9566C32.5994 27.9138 32.5005 27.8671 32.4034 27.8166L32.3986 27.8152C32.3608 27.7988 32.3214 27.7874 32.2807 27.7811C32.2566 27.7726 32.2319 27.7658 32.207 27.761L32.2007 27.7618C32.1374 27.7573 32.0757 27.7647 32.0151 27.7838C32.0086 27.7857 32.0033 27.7913 31.9968 27.7936C31.9407 27.8133 31.8895 27.8418 31.8436 27.8794L31.8409 27.881C31.8317 27.8889 31.2416 28.4782 30.3677 29.3517L30.3496 29.3698C29.4135 30.306 28.1565 31.5631 26.9306 32.7894L26.9148 32.8052C24.8118 34.9088 22.811 36.9107 22.7111 37.0098C22.8548 37.1682 21.4868 35.7859 21.4208 35.7244C21.4052 35.7377 22.3475 34.7946 23.6285 33.5131C23.6359 33.5054 23.644 33.499 23.6507 33.4909C26.3058 30.8351 30.4003 26.7427 30.5199 26.6213C30.5869 26.5669 30.6285 26.4975 30.6451 26.4128C30.6488 26.402 30.6501 26.3908 30.6532 26.3798C30.659 26.3575 30.6633 26.3349 30.6658 26.3119C30.6798 26.2112 30.6625 26.1165 30.6141 26.0272C28.9364 22.9124 31.9044 19.3183 35.1546 20.034L32.7707 22.9198C32.7275 22.972 32.6961 23.0305 32.6764 23.0955C32.6569 23.1603 32.6505 23.2267 32.6575 23.294L32.8471 25.1339C32.8502 25.1624 32.8556 25.1908 32.8633 25.2186C32.8712 25.2463 32.8812 25.2732 32.8936 25.2992C32.9061 25.3252 32.9206 25.3501 32.9372 25.3737C32.954 25.3972 32.9725 25.4192 32.9927 25.4396C33.0132 25.4601 33.0352 25.4786 33.0587 25.4952C33.0822 25.5118 33.1071 25.5264 33.1332 25.5388C33.1592 25.5511 33.186 25.5614 33.2138 25.5691C33.2416 25.5768 33.2699 25.5822 33.2985 25.5853L35.1384 25.7751C35.1557 25.7766 35.1733 25.7778 35.1905 25.7778C35.2493 25.7778 35.3064 25.7678 35.3616 25.7479C35.4169 25.728 35.4673 25.6993 35.5126 25.6617L38.3832 23.2897C38.4175 23.4574 38.4414 23.6266 38.4549 23.7973C38.4684 23.9678 38.4713 24.1387 38.4636 24.3096C38.4561 24.4805 38.438 24.6505 38.4094 24.8193C38.3809 24.988 38.3419 25.1543 38.2929 25.3183C38.2437 25.4823 38.1847 25.6426 38.1158 25.7992C38.0467 25.956 37.9684 26.1078 37.8809 26.2548C37.7931 26.4018 37.6968 26.5428 37.5917 26.6779C37.4866 26.8129 37.3735 26.9412 37.2528 27.0623Z" fill="#39A154"/>
</g>
</g>
<defs>
<clipPath id="clip0_2425_330">
<rect width="40" height="40" fill="white" transform="translate(0.5)"/>
</clipPath>
</defs>
</svg>
