<svg width="41" height="40" viewBox="0 0 41 40" fill="none" xmlns="http://www.w3.org/2000/svg">
<mask id="mask0_2425_463" style="mask-type:luminance" maskUnits="userSpaceOnUse" x="20" y="16" width="16" height="22">
<path d="M20.7469 16.7408H35.5617V38H20.7469V16.7408Z" fill="white"/>
</mask>
<g mask="url(#mask0_2425_463)">
<path d="M35.2381 22.0616H33.9995C34.2354 21.6042 34.3532 21.11 34.3532 20.5865C34.3532 20.424 34.2205 20.2913 34.0585 20.2913H29.0452V18.8162C29.0452 18.654 29.1779 18.5213 29.3399 18.5213C29.5022 18.5213 29.6349 18.654 29.6349 18.8162V19.4063C29.6349 19.5685 29.7676 19.7012 29.9298 19.7012H31.1094C31.2716 19.7012 31.4044 19.5685 31.4044 19.4063V18.8162C31.4044 17.6804 30.4753 16.7512 29.3399 16.7512C28.2047 16.7512 27.2757 17.6804 27.2757 18.8162V20.2913H22.2624C22.1001 20.2913 21.9674 20.424 21.9674 20.5865C21.9674 21.11 22.0855 21.6042 22.3214 22.0616H21.0828C20.9206 22.0616 20.7878 22.1943 20.7878 22.3565V35.9275C20.7878 36.0897 20.9206 36.2225 21.0828 36.2225H21.3777V37.6976C21.3777 37.86 21.5104 37.9927 21.6727 37.9927H22.8523C23.0145 37.9927 23.1472 37.86 23.1472 37.6976V36.2225H33.1736V37.6976C33.1736 37.86 33.3064 37.9927 33.4686 37.9927H34.6482C34.8104 37.9927 34.9431 37.86 34.9431 37.6976V36.2225H35.2381C35.4003 36.2225 35.5328 36.0897 35.5328 35.9275V22.3565C35.5328 22.1943 35.4003 22.0616 35.2381 22.0616ZM27.8656 18.8162C27.8656 18.0049 28.529 17.3411 29.3399 17.3411C30.1511 17.3411 30.8145 18.0049 30.8145 18.8162V19.1113H30.2248V18.8162C30.2248 18.3295 29.8266 17.9312 29.3399 17.9312C28.8534 17.9312 28.4553 18.3295 28.4553 18.8162V20.2913H27.8656V18.8162ZM22.572 20.8814H33.7487C33.7045 21.3017 33.5571 21.7074 33.3139 22.0616H23.007C22.7637 21.7074 22.6164 21.3017 22.572 20.8814ZM22.5573 37.4026H21.9674V36.2225H22.5573V37.4026ZM34.3532 37.4026H33.7635V36.2225H34.3532V37.4026ZM34.9431 35.6326H21.3777V22.6515H34.9431V35.6326Z" fill="#39A154"/>
</g>
<path d="M21.9674 23.5367V26.4867C21.9674 26.6491 22.1001 26.7818 22.2624 26.7818H34.0585C34.2205 26.7818 34.3532 26.6491 34.3532 26.4867V23.5367C34.3532 23.3742 34.2205 23.2415 34.0585 23.2415H22.2624C22.1001 23.2415 21.9674 23.3742 21.9674 23.5367ZM22.5573 23.8316H33.7635V26.1917H22.5573V23.8316Z" fill="#39A154"/>
<path d="M27.5706 27.3719H22.2624C22.1001 27.3719 21.9674 27.5046 21.9674 27.6669V34.7473C21.9674 34.9097 22.1001 35.0424 22.2624 35.0424H27.5706C27.7328 35.0424 27.8656 34.9097 27.8656 34.7473V27.6669C27.8656 27.5046 27.7328 27.3719 27.5706 27.3719ZM27.2757 34.4524H22.5573V27.9618H27.2757V34.4524Z" fill="#39A154"/>
<path d="M25.8011 32.6823H26.391C26.5533 32.6823 26.686 32.5494 26.686 32.3871C26.686 32.2249 26.5533 32.0922 26.391 32.0922H26.0961V30.3221H26.391C26.5533 30.3221 26.686 30.1892 26.686 30.027C26.686 29.8648 26.5533 29.7321 26.391 29.7321H25.8011C25.6391 29.7321 25.5064 29.8648 25.5064 30.027V32.3871C25.5064 32.5494 25.6391 32.6823 25.8011 32.6823Z" fill="#39A154"/>
<path d="M29.9298 32.0922C29.7676 32.0922 29.6348 32.2249 29.6348 32.3871C29.6348 32.5494 29.7676 32.6823 29.9298 32.6823H30.5197C30.6817 32.6823 30.8144 32.5494 30.8144 32.3871V30.027C30.8144 29.8648 30.6817 29.7321 30.5197 29.7321H29.9298C29.7676 29.7321 29.6348 29.8648 29.6348 30.027C29.6348 30.1892 29.7676 30.3221 29.9298 30.3221H30.2247V32.0922H29.9298Z" fill="#39A154"/>
<path d="M34.0584 27.3719H28.7502C28.588 27.3719 28.4552 27.5046 28.4552 27.6669V34.7473C28.4552 34.9097 28.588 35.0424 28.7502 35.0424H34.0584C34.2205 35.0424 34.3532 34.9097 34.3532 34.7473V27.6669C34.3532 27.5046 34.2205 27.3719 34.0584 27.3719ZM33.7635 34.4524H29.0451V27.9618H33.7635V34.4524Z" fill="#39A154"/>
<path d="M29.3399 24.4217C29.1778 24.4217 29.0451 24.5544 29.0451 24.7166V25.0118H27.2756V24.7166C27.2756 24.5544 27.1429 24.4217 26.9807 24.4217C26.8187 24.4217 26.6859 24.5544 26.6859 24.7166V25.3067C26.6859 25.469 26.8187 25.6017 26.9807 25.6017H29.3399C29.5021 25.6017 29.6348 25.469 29.6348 25.3067V24.7166C29.6348 24.5544 29.5021 24.4217 29.3399 24.4217Z" fill="#39A154"/>
<mask id="mask1_2425_463" style="mask-type:luminance" maskUnits="userSpaceOnUse" x="19" y="2" width="19" height="15">
<path d="M19.0185 2H37.3079V16.1975H19.0185V2Z" fill="white"/>
</mask>
<g mask="url(#mask1_2425_463)">
<path d="M37.0073 14.3908H35.4813C35.5108 14.2949 35.5328 14.1991 35.5328 14.0959V2.88503C35.5328 2.39834 35.1348 2 34.6481 2H21.6726C21.1859 2 20.7878 2.39834 20.7878 2.88503V14.0959C20.7878 14.1991 20.81 14.2949 20.8395 14.3908H19.3135C19.1512 14.3908 19.0185 14.5237 19.0185 14.686V15.8659C19.0185 16.0284 19.1512 16.1611 19.3135 16.1611H37.0073C37.1696 16.1611 37.3023 16.0284 37.3023 15.8659V14.686C37.3023 14.5237 37.1696 14.3908 37.0073 14.3908ZM21.3777 14.0959V2.88503C21.3777 2.7228 21.5104 2.59008 21.6726 2.59008H34.6481C34.8104 2.59008 34.9431 2.7228 34.9431 2.88503V14.0959C34.9431 14.2581 34.8104 14.3908 34.6481 14.3908H21.6726C21.5104 14.3908 21.3777 14.2581 21.3777 14.0959ZM36.7124 15.571H19.6082V14.9809H36.7124V15.571Z" fill="#39A154"/>
</g>
<path d="M6.04282 19.4063C6.04282 21.8476 8.02603 23.8316 10.4664 23.8316C12.9066 23.8316 14.8898 21.8476 14.8898 19.4063V18.2263C14.8898 15.7849 12.9066 13.8009 10.4664 13.8009C8.02603 13.8009 6.04282 15.7849 6.04282 18.2263V19.4063ZM6.63271 18.2263C6.63271 16.1094 8.35049 14.3908 10.4664 14.3908C12.5824 14.3908 14.3001 16.1094 14.3001 18.2263V19.4063C14.3001 21.523 12.5824 23.2415 10.4664 23.2415C8.35049 23.2415 6.63271 21.523 6.63271 19.4063V18.2263Z" fill="#39A154"/>
<mask id="mask2_2425_463" style="mask-type:luminance" maskUnits="userSpaceOnUse" x="3" y="12" width="15" height="26">
<path d="M3.67822 12.5926H17.2901V38H3.67822V12.5926Z" fill="white"/>
</mask>
<g mask="url(#mask2_2425_463)">
<path d="M16.217 13.8009H13.902C12.951 13.0632 11.7639 12.6207 10.4664 12.6207C9.16875 12.6207 7.98183 13.0632 7.03083 13.8009H4.71582C4.14812 13.8009 3.68361 14.2654 3.68361 14.8335V22.6514C3.68361 23.4408 4.07443 24.1414 4.67165 24.569C4.43573 24.7315 4.2735 24.9969 4.2735 25.3067C4.2735 25.6902 4.51675 26.0146 4.8632 26.14V27.0767C4.8632 29.1051 5.94711 30.89 7.56169 31.8709L7.22238 37.6828C7.21505 37.7639 7.24457 37.8451 7.30359 37.9041C7.36262 37.9631 7.43631 38 7.51733 38H13.4153C13.4965 38 13.5775 37.9631 13.6292 37.9041C13.6882 37.8451 13.7102 37.7639 13.7102 37.6828L13.3711 31.8709C14.993 30.89 16.0694 29.1051 16.0694 27.0767V26.14C16.4161 26.0146 16.6593 25.6902 16.6593 25.3067C16.6593 24.9969 16.5044 24.7315 16.2612 24.569C16.8584 24.1414 17.249 23.4408 17.249 22.6514V14.8335C17.249 14.2654 16.7847 13.8009 16.217 13.8009ZM16.6593 14.8335V15.571H15.3985C15.1626 15.1431 14.8752 14.745 14.5434 14.3908H16.217C16.4602 14.3908 16.6593 14.5901 16.6593 14.8335ZM15.4797 18.2262V19.4062C15.4797 22.172 13.2311 24.4217 10.4664 24.4217C7.70174 24.4217 5.45309 22.172 5.45309 19.4062V18.2262C5.45309 15.4602 7.70174 13.2108 10.4664 13.2108C13.2311 13.2108 15.4797 15.4602 15.4797 18.2262ZM4.71582 14.3908H6.3821C6.05031 14.745 5.7627 15.1431 5.52678 15.571H4.2735V14.8335C4.2735 14.5901 4.47257 14.3908 4.71582 14.3908ZM4.2735 22.6514V16.161H5.26135C5.00344 16.8026 4.8632 17.4959 4.8632 18.2262V19.4062C4.8632 21.5968 6.13133 23.4996 7.96717 24.4217H6.04279C5.0698 24.4217 4.2735 23.625 4.2735 22.6514ZM13.1057 37.4026H7.82693L8.13673 32.1734C8.84449 32.4979 9.63326 32.6823 10.4664 32.6823C11.2995 32.6823 12.0883 32.4979 12.7961 32.1734L13.1057 37.4026ZM10.4664 32.0922C7.70174 32.0922 5.45309 29.8426 5.45309 27.0767V26.1917H15.4797V27.0767C15.4797 29.8426 13.2311 32.0922 10.4664 32.0922ZM15.7747 25.0117C15.9367 25.0117 16.0694 25.1445 16.0694 25.3067C16.0694 25.4689 15.9367 25.6016 15.7747 25.6016H5.15815C4.99592 25.6016 4.8632 25.4689 4.8632 25.3067C4.8632 25.1445 4.99592 25.0117 5.15815 25.0117H15.7747ZM16.6593 22.6514C16.6593 23.625 15.863 24.4217 14.8898 24.4217H12.9656C14.8015 23.4996 16.0694 21.5968 16.0694 19.4062V18.2262C16.0694 17.4959 15.9294 16.8026 15.6713 16.161H16.6593V22.6514Z" fill="#39A154"/>
</g>
</svg>
