<svg width="41" height="40" viewBox="0 0 41 40" fill="none" xmlns="http://www.w3.org/2000/svg">
<mask id="mask0_2425_2147" style="mask-type:luminance" maskUnits="userSpaceOnUse" x="5" y="26" width="31" height="13">
<path d="M5.48768 26.5679H35.463V38.1603H5.48768V26.5679Z" fill="white"/>
</mask>
<g mask="url(#mask0_2425_2147)">
<path d="M27.3153 26.7768C27.2238 26.6557 27.0811 26.5847 26.9293 26.5847H13.9817C13.9813 26.5847 13.9812 26.5847 13.9808 26.5847C13.9806 26.5847 13.9802 26.5847 13.9798 26.5847C13.9796 26.5847 13.9792 26.5847 13.979 26.5847C13.854 26.5853 13.7404 26.6333 13.655 26.7118C13.6463 26.7197 13.638 26.728 13.6299 26.7367C13.6166 26.7508 13.604 26.7656 13.5925 26.7814L5.59207 37.3856C5.48154 37.532 5.4636 37.7282 5.54539 37.8922C5.62698 38.0561 5.79462 38.1599 5.97787 38.1599H9.58339C9.73578 38.1599 9.8793 38.0882 9.97054 37.9659L15.7574 30.224L21.5996 37.9678C21.6908 38.0889 21.8338 38.1599 21.9856 38.1599H34.9331C35.1164 38.1599 35.284 38.0563 35.3656 37.8922C35.4474 37.7282 35.4295 37.5318 35.3189 37.3856L27.3153 26.7768ZM9.3413 37.1933H6.94797L13.9817 27.8704L15.1513 29.4203L9.3413 37.1933ZM22.2263 37.1933L16.1482 29.1372C16.1438 29.1312 16.1393 29.1252 16.1347 29.1194L14.9516 27.5511H26.6881L33.9628 37.1933H22.2263Z" fill="#39A154"/>
</g>
<mask id="mask1_2425_2147" style="mask-type:luminance" maskUnits="userSpaceOnUse" x="10" y="1" width="16" height="9">
<path d="M10.0309 1.82697H25.6358V9.92592H10.0309V1.82697Z" fill="white"/>
</mask>
<g mask="url(#mask1_2425_2147)">
<path d="M10.5296 9.89605H25.1442C25.415 9.89605 25.6346 9.67672 25.6346 9.40589C25.6346 9.13487 25.415 8.91554 25.1442 8.91554H24.4432C24.2366 7.60362 23.6976 6.36712 22.871 5.31696C22.0375 4.25813 20.9509 3.43656 19.7144 2.92595V2.31677C19.7144 2.04613 19.4949 1.82642 19.2241 1.82642H16.4503C16.1795 1.82642 15.96 2.04613 15.96 2.31677V2.92595C14.7231 3.43656 13.6367 4.25813 12.8033 5.31696C11.9768 6.36712 11.4376 7.60362 11.231 8.91554H10.5298C10.2592 8.91554 10.0395 9.13487 10.0395 9.40589C10.0395 9.67672 10.259 9.89605 10.5296 9.89605ZM12.4395 8.06484C12.4604 8.06754 12.4818 8.06909 12.5034 8.06909H13.1814L13.2464 8.2508C13.3184 8.45122 13.5069 8.57584 13.708 8.57584C13.7628 8.57584 13.8188 8.56658 13.8734 8.5471C14.1284 8.45585 14.2611 8.17518 14.1697 7.92036L13.9883 7.41361C13.9185 7.21878 13.7337 7.08876 13.5267 7.08876H12.8396C13.5078 5.76064 14.6016 4.66245 15.96 4.00099V7.35979C15.96 7.63043 16.1795 7.84995 16.4503 7.84995C16.7212 7.84995 16.9407 7.63062 16.9407 7.35979V2.80713H18.7341V7.3596C18.7341 7.63024 18.9536 7.84976 19.2244 7.84976C19.4953 7.84976 19.7148 7.63043 19.7148 7.3596V4.0008C21.0732 4.66226 22.1672 5.76064 22.8354 7.08857H22.1481C21.9411 7.08857 21.7565 7.21858 21.6866 7.41341L21.5051 7.92017C21.4139 8.17499 21.5464 8.45566 21.8014 8.5469C21.8562 8.56658 21.9119 8.57584 21.9669 8.57584C22.1681 8.57584 22.3568 8.45103 22.4283 8.25061L22.4935 8.06889H23.1716C23.1932 8.06889 23.2144 8.06735 23.2352 8.06465C23.3244 8.34204 23.3959 8.62599 23.4488 8.91554H12.2268C12.2788 8.62618 12.3504 8.34204 12.4395 8.06484Z" fill="#39A154"/>
</g>
<path d="M23.4105 10.7735C23.4105 13.8463 20.9105 16.3461 17.8375 16.3461C14.7644 16.3461 12.2644 13.8463 12.2644 10.7735C12.2644 10.5029 12.0447 10.2834 11.7741 10.2834C11.5033 10.2834 11.2837 10.5029 11.2837 10.7735C11.2837 11.658 11.457 12.5162 11.799 13.3245C12.1292 14.1048 12.6016 14.8056 13.2033 15.407C13.8049 16.0087 14.5058 16.4813 15.2864 16.8112C16.0947 17.1532 16.9529 17.3264 17.8375 17.3264C18.722 17.3264 19.5804 17.1532 20.3885 16.8112C21.1691 16.4811 21.8698 16.0087 22.4716 15.407C23.0735 14.8056 23.5459 14.1048 23.8759 13.3245C24.218 12.5162 24.3912 11.658 24.3912 10.7735C24.3912 10.5029 24.1717 10.2834 23.9008 10.2834C23.63 10.2834 23.4105 10.5029 23.4105 10.7735Z" fill="#39A154"/>
<path d="M39.152 31.9662L33.4487 24.3192C33.4442 24.3133 33.4396 24.3073 33.435 24.3017C33.2353 24.0592 32.9593 23.9427 32.6715 23.9774L29.8823 20.2374C30.033 20.0769 30.0496 19.8279 29.913 19.6441C29.7228 19.3879 29.652 19.0858 29.7021 18.7463C29.7506 18.4188 29.9234 18.1294 30.189 17.9313L30.1912 17.9298C30.4612 17.7293 30.7108 17.6557 31.1447 17.6477C31.4826 17.6416 32.0569 17.6908 32.5181 17.8133C32.5274 17.816 32.5366 17.8185 32.5471 17.821L32.5515 17.8221C32.5517 17.8221 32.5521 17.8221 32.5525 17.8223H32.5528C32.7402 17.8651 32.9358 17.8241 33.0897 17.7093C33.2299 17.6047 33.3208 17.4521 33.3459 17.2793C33.3709 17.1065 33.3273 16.9342 33.223 16.794C33.1578 16.7066 33.071 16.6366 32.9736 16.5916C32.9711 16.5905 32.9684 16.5891 32.9658 16.5881C32.9298 16.5719 32.8916 16.5552 32.8516 16.5374L32.8374 16.531C32.401 16.3368 31.8036 16.0708 31.2592 15.9039C30.4518 15.6562 29.7145 15.5243 29.0679 15.5121C28.2097 15.4959 27.501 15.6904 26.9618 16.0901L24.5673 17.8675C24.4419 17.9608 24.3729 18.1096 24.3823 18.2654C24.4016 18.5789 24.2523 18.886 23.9832 19.0864L23.9803 19.0885C23.712 19.2878 23.4506 19.3547 23.2041 19.2876C23.2016 19.287 23.1991 19.2862 23.1967 19.2857C23.1931 19.2847 23.19 19.2841 23.1861 19.2832L23.1667 19.2789C23.1613 19.278 23.1564 19.2772 23.1497 19.276L23.1312 19.2737C23.129 19.2735 23.1265 19.2733 23.1244 19.2731C23.1171 19.2726 23.1111 19.2722 23.1072 19.272L23.1022 19.2716C23.0584 19.2697 23.0143 19.2739 22.9711 19.2847L22.967 19.2857C22.9608 19.2872 22.9552 19.2889 22.9485 19.2907L22.946 19.2915C22.9398 19.2934 22.934 19.2953 22.9269 19.2978L22.923 19.2992C22.9167 19.3015 22.9118 19.3034 22.9057 19.3059L22.9006 19.308C22.897 19.3096 22.8927 19.3115 22.8889 19.3133L22.88 19.3175C22.8796 19.3177 22.8785 19.3183 22.8773 19.3188C22.8742 19.3204 22.8711 19.3219 22.868 19.3235C22.8642 19.3256 22.8615 19.3269 22.8592 19.3283C22.8557 19.3302 22.8526 19.332 22.8497 19.3337C22.8447 19.3364 22.8422 19.3381 22.8407 19.3391C22.836 19.342 22.8329 19.3439 22.83 19.3459L22.8206 19.3522C22.8183 19.3538 22.8156 19.3557 22.8127 19.3578C22.8106 19.3594 22.8084 19.3607 22.8063 19.3624L21.3366 20.4533C21.1329 20.6051 21.0905 20.8943 21.2417 21.098L23.0301 23.5067C23.1034 23.6057 23.211 23.6699 23.3329 23.6881C23.3657 23.6929 23.3993 23.694 23.4325 23.6919C23.5204 23.6857 23.6043 23.6547 23.6753 23.602C23.7351 23.5575 25.1369 22.5158 25.1454 22.5094C25.2564 22.4267 25.3244 22.3034 25.3326 22.1715C25.3495 21.8923 25.4876 21.6367 25.7116 21.4697L25.713 21.4685C26.1317 21.1578 26.7257 21.2455 27.0366 21.6643C27.0496 21.6817 27.0621 21.6998 27.0741 21.7185C27.1406 21.8223 27.2436 21.8939 27.364 21.9201C27.4844 21.9464 27.6078 21.9242 27.7116 21.8576C27.7166 21.8543 27.7216 21.8509 27.7268 21.8474L30.5121 25.582C30.4838 25.6445 30.4635 25.7093 30.452 25.7756C30.4249 25.928 30.4302 26.1618 30.6078 26.4103C30.6097 26.4128 30.6115 26.4155 30.614 26.4188L36.3154 34.0633C36.5073 34.3206 36.7444 34.4672 37.02 34.4988L37.022 34.499C37.0577 34.5031 37.0924 34.5048 37.1261 34.5048C37.424 34.5048 37.6508 34.3619 37.7405 34.2949C37.7486 34.2889 37.7554 34.2835 37.7608 34.2793L39.0067 33.3503C39.0787 33.2976 39.3177 33.0986 39.3733 32.7488C39.4155 32.483 39.3408 32.2199 39.152 31.9662ZM27.532 20.8437C26.8723 20.2432 25.885 20.1923 25.163 20.7282L25.1599 20.7307C24.9849 20.8611 24.831 21.0254 24.711 21.2089C24.5532 21.1128 24.3468 21.1194 24.1948 21.2322C23.9911 21.384 23.9485 21.6732 24.0999 21.8771L24.2249 22.0455L23.4959 22.5868L22.2575 20.9188L22.9867 20.3775L23.4093 20.9467C23.4826 21.0457 23.5903 21.1101 23.7122 21.1281C23.8339 21.1462 23.9556 21.1155 24.0552 21.0418C24.2589 20.8898 24.3013 20.6007 24.1501 20.397L23.9579 20.1379C24.1537 20.0698 24.3461 19.966 24.531 19.8289L24.5339 19.8268C24.7901 19.6356 24.9965 19.3842 25.1302 19.0997C25.2224 18.9031 25.2809 18.6871 25.2998 18.4726L27.5108 16.8316C28.3455 16.212 29.7436 16.4242 30.8252 16.7369C30.368 16.7768 30.0091 16.9168 29.641 17.19L29.6377 17.1925C29.1753 17.5372 28.8744 18.0413 28.7899 18.6119C28.7301 19.0166 28.7841 19.4242 28.9464 19.7942L27.532 20.8437ZM38.4566 32.6151L37.2048 33.5484C37.1998 33.5521 37.195 33.5559 37.1904 33.5596C37.1722 33.5723 37.1449 33.5837 37.1308 33.586H37.125C37.1155 33.5818 37.0883 33.5631 37.0517 33.5141L31.3935 25.9273L31.75 25.6645C31.8482 25.591 31.912 25.484 31.9298 25.3624C31.9475 25.2411 31.9168 25.1202 31.8435 25.0218C31.7701 24.9236 31.663 24.8597 31.5417 24.8418C31.4207 24.8242 31.2999 24.8545 31.2018 24.9275L31.1809 24.9421L28.4647 21.2998L29.1501 20.7911L31.9433 24.5362C31.9246 24.6576 31.955 24.7814 32.0287 24.8804C32.1022 24.9786 32.2093 25.0424 32.3306 25.0602C32.4521 25.0779 32.5731 25.0474 32.6713 24.9741L32.7488 24.9163L38.4159 32.5148C38.4464 32.5557 38.4626 32.5903 38.4653 32.6043C38.463 32.608 38.4593 32.6123 38.4566 32.6151Z" fill="#39A154"/>
<path d="M9.75212 18.1767V23.6738L8.76717 28.2697C8.71142 28.5307 8.87751 28.7876 9.1385 28.8436C9.17265 28.8509 9.20679 28.8544 9.24035 28.8544C9.46316 28.8544 9.66377 28.6991 9.71238 28.4722L10.626 24.2081H20.3057C20.5727 24.2081 20.789 23.9919 20.789 23.7249C20.789 23.458 20.5727 23.2417 20.3057 23.2417H12.7456V17.6483C12.7456 17.3814 12.5291 17.1651 12.2623 17.1651H10.2353C10.2091 17.1651 10.1836 17.1673 10.1586 17.1711C9.41628 17.2043 8.71856 17.3737 8.08121 17.6765C7.33816 18.0293 6.69097 18.5571 6.15779 19.2446C5.60745 19.9545 5.18268 20.8312 4.89545 21.8509C4.59664 22.9119 4.44502 24.135 4.44502 25.4869V33.3252C4.44502 33.5922 4.66126 33.8085 4.92824 33.8085C5.19522 33.8085 5.41146 33.5922 5.41146 33.3252V25.4869C5.41146 21.2228 7.01987 18.5498 9.75212 18.1767ZM10.7186 18.1318H11.7789V23.2419H10.7186V18.1318Z" fill="#39A154"/>
<mask id="mask2_2425_2147" style="mask-type:luminance" maskUnits="userSpaceOnUse" x="1" y="13" width="1" height="2">
<path d="M1.56963 13.8272H1.63579V14.0247H1.56963V13.8272Z" fill="white"/>
</mask>
<g mask="url(#mask2_2425_2147)">
<path d="M1.57792 13.8478H1.62055V13.9795H1.57792V13.8478Z" fill="#39A154"/>
</g>
</svg>
