<svg width="41" height="40" viewBox="0 0 41 40" fill="none" xmlns="http://www.w3.org/2000/svg">
<g clip-path="url(#clip0_2425_886)">
<path d="M28.6482 10.3703C28.6968 10.3703 28.745 10.3655 28.7926 10.3561C28.8403 10.3466 28.8868 10.3325 28.9315 10.314C28.9765 10.2953 29.0193 10.2725 29.0596 10.2455C29.1001 10.2185 29.1375 10.1879 29.1719 10.1533C29.2064 10.119 29.2371 10.0816 29.2641 10.0411C29.2911 10.0007 29.3139 9.95793 29.3326 9.91298C29.3511 9.86823 29.3652 9.82174 29.3746 9.77409C29.3841 9.72644 29.3889 9.67822 29.3889 9.62961V6.66664C29.3889 6.61803 29.3841 6.56981 29.3746 6.52216C29.3652 6.47451 29.3511 6.42803 29.3326 6.38308C29.3139 6.33833 29.2911 6.2955 29.2641 6.25519C29.2371 6.21468 29.2064 6.17725 29.1719 6.14292C29.1375 6.10839 29.1001 6.07772 29.0596 6.05071C29.0193 6.0237 28.9765 6.00094 28.9315 5.98223C28.8868 5.96371 28.8403 5.94963 28.7926 5.94018C28.745 5.93073 28.6968 5.9259 28.6482 5.9259C28.5995 5.9259 28.5513 5.93073 28.5037 5.94018C28.456 5.94963 28.4095 5.96371 28.3646 5.98223C28.3198 6.00094 28.277 6.0237 28.2367 6.05071C28.1962 6.07772 28.1588 6.10839 28.1244 6.14292C28.0899 6.17725 28.0592 6.21468 28.0322 6.25519C28.0052 6.2955 27.9824 6.33833 27.9637 6.38308C27.9452 6.42803 27.9311 6.47451 27.9217 6.52216C27.9122 6.56981 27.9074 6.61803 27.9074 6.66664V9.62961C27.9074 9.67822 27.9122 9.72644 27.9217 9.77409C27.9311 9.82174 27.9452 9.86823 27.9637 9.91298C27.9824 9.95793 28.0052 10.0007 28.0322 10.0411C28.0592 10.0816 28.0899 10.119 28.1244 10.1533C28.1588 10.1879 28.1962 10.2185 28.2367 10.2455C28.277 10.2725 28.3198 10.2953 28.3646 10.314C28.4095 10.3325 28.456 10.3466 28.5037 10.3561C28.5513 10.3655 28.5995 10.3703 28.6482 10.3703Z" fill="#39A154"/>
<path d="M28.6482 17.7778C28.5995 17.7778 28.5513 17.7826 28.5037 17.792C28.456 17.8015 28.4095 17.8156 28.3646 17.8341C28.3198 17.8528 28.277 17.8756 28.2367 17.9026C28.1962 17.9296 28.1588 17.9603 28.1244 17.9948C28.0899 18.0291 28.0592 18.0665 28.0322 18.1071C28.0052 18.1474 27.9824 18.1902 27.9637 18.2349C27.9452 18.2799 27.9311 18.3264 27.9217 18.374C27.9122 18.4217 27.9074 18.4699 27.9074 18.5185V21.4815C27.9074 21.5301 27.9122 21.5783 27.9217 21.626C27.9311 21.6736 27.9452 21.7201 27.9637 21.7648C27.9824 21.8098 28.0052 21.8526 28.0322 21.8929C28.0592 21.9334 28.0899 21.9709 28.1244 22.0052C28.1588 22.0397 28.1962 22.0704 28.2367 22.0974C28.277 22.1244 28.3198 22.1472 28.3646 22.1659C28.4095 22.1844 28.456 22.1985 28.5037 22.2079C28.5513 22.2174 28.5995 22.2222 28.6482 22.2222C28.6968 22.2222 28.745 22.2174 28.7926 22.2079C28.8403 22.1985 28.8868 22.1844 28.9315 22.1659C28.9765 22.1472 29.0193 22.1244 29.0596 22.0974C29.1001 22.0704 29.1375 22.0397 29.1719 22.0052C29.2064 21.9709 29.2371 21.9334 29.2641 21.8929C29.2911 21.8526 29.3139 21.8098 29.3326 21.7648C29.3511 21.7201 29.3652 21.6736 29.3746 21.626C29.3841 21.5783 29.3889 21.5301 29.3889 21.4815V18.5185C29.3889 18.4699 29.3841 18.4217 29.3746 18.374C29.3652 18.3264 29.3511 18.2799 29.3326 18.2349C29.3139 18.1902 29.2911 18.1474 29.2641 18.1071C29.2371 18.0665 29.2064 18.0291 29.1719 17.9948C29.1375 17.9603 29.1001 17.9296 29.0596 17.9026C29.0193 17.8756 28.9765 17.8528 28.9315 17.8341C28.8868 17.8156 28.8403 17.8015 28.7926 17.792C28.745 17.7826 28.6968 17.7778 28.6482 17.7778Z" fill="#39A154"/>
<path d="M12.3519 34.0741C12.4489 34.0741 12.5457 34.0718 12.6426 34.0669C12.7396 34.0621 12.8362 34.055 12.9327 34.0455C13.0291 34.0361 13.1254 34.0241 13.2215 34.01C13.3173 33.9958 13.4128 33.9792 13.5079 33.9603C13.603 33.9414 13.6977 33.9201 13.7917 33.8964C13.8858 33.8729 13.9792 33.847 14.0722 33.8189C14.1649 33.7907 14.257 33.7604 14.3482 33.7276C14.4396 33.695 14.5301 33.6601 14.6196 33.6231C14.7093 33.5858 14.7978 33.5465 14.8854 33.5052C14.9732 33.4637 15.0598 33.4201 15.1453 33.3744C15.2309 33.3287 15.3152 33.2809 15.3983 33.2309C15.4815 33.1811 15.5635 33.1293 15.6441 33.0754C15.7247 33.0214 15.804 32.9657 15.882 32.908C15.9599 32.8501 16.0363 32.7905 16.1113 32.729C16.1862 32.6674 16.2597 32.6042 16.3314 32.539C16.4034 32.4738 16.4736 32.407 16.5421 32.3384C16.6107 32.2699 16.6775 32.1997 16.7427 32.1277C16.8079 32.0559 16.8711 31.9825 16.9327 31.9076C16.9942 31.8326 17.0538 31.7562 17.1117 31.6782C17.1694 31.6003 17.2251 31.521 17.2791 31.4404C17.333 31.3598 17.3848 31.2778 17.4346 31.1946C17.4846 31.1115 17.5324 31.0272 17.5781 30.9416C17.6238 30.8561 17.6674 30.7695 17.7089 30.6817C17.7502 30.5941 17.7896 30.5056 17.8268 30.4159C17.8638 30.3264 17.8987 30.2359 17.9313 30.1445C17.9641 30.0532 17.9944 29.9612 18.0226 29.8684C18.0507 29.7755 18.0766 29.6821 18.1001 29.588C18.1238 29.494 18.1451 29.3993 18.164 29.3042C18.1829 29.2091 18.1995 29.1136 18.2135 29.0178C18.2278 28.9217 18.2398 28.8254 18.2492 28.729C18.2587 28.6325 18.2658 28.5359 18.2706 28.4389C18.2755 28.342 18.2778 28.2452 18.2778 28.1482C18.2778 28.0511 18.2755 27.9543 18.2706 27.8575C18.2658 27.7604 18.2587 27.6638 18.2492 27.5673C18.2398 27.4709 18.2278 27.3746 18.2135 27.2786C18.1995 27.1827 18.1829 27.0872 18.164 26.9921C18.1451 26.897 18.1238 26.8023 18.1001 26.7083C18.0766 26.6142 18.0507 26.5208 18.0226 26.4279C17.9944 26.3351 17.9641 26.2431 17.9313 26.1518C17.8987 26.0604 17.8638 25.9699 17.8268 25.8804C17.7896 25.7907 17.7502 25.7022 17.7089 25.6144C17.6674 25.5268 17.6238 25.4402 17.5781 25.3548C17.5324 25.2691 17.4846 25.1848 17.4346 25.1017C17.3848 25.0185 17.333 24.9365 17.2791 24.8559C17.2251 24.7753 17.1694 24.696 17.1117 24.6181C17.0538 24.5401 16.9942 24.4637 16.9327 24.3887C16.8711 24.3139 16.8079 24.2404 16.7427 24.1686C16.6775 24.0967 16.6107 24.0264 16.5421 23.958C16.4736 23.8893 16.4034 23.8225 16.3314 23.7573C16.2597 23.6921 16.1862 23.6289 16.1113 23.5673C16.0363 23.5058 15.9599 23.4462 15.882 23.3883C15.804 23.3306 15.7247 23.2749 15.6441 23.2209C15.5635 23.1671 15.4815 23.1152 15.3983 23.0654C15.3152 23.0154 15.2309 22.9676 15.1453 22.9219C15.0598 22.8762 14.9732 22.8326 14.8854 22.7911C14.7978 22.7496 14.7093 22.7105 14.6196 22.6732C14.5301 22.6362 14.4396 22.6013 14.3482 22.5687C14.257 22.5359 14.1649 22.5056 14.0722 22.4774C13.9792 22.4493 13.8858 22.4234 13.7917 22.3999C13.6977 22.3762 13.603 22.3549 13.5079 22.336C13.4128 22.3171 13.3173 22.3005 13.2215 22.2863C13.1254 22.2722 13.0291 22.2602 12.9327 22.2508C12.8362 22.2413 12.7396 22.2342 12.6426 22.2294C12.5457 22.2245 12.4489 22.2222 12.3519 22.2222C12.2548 22.2222 12.158 22.2245 12.0612 22.2294C11.9641 22.2342 11.8675 22.2413 11.771 22.2508C11.6746 22.2602 11.5783 22.2722 11.4823 22.2863C11.3864 22.3005 11.2909 22.3171 11.1958 22.336C11.1007 22.3549 11.006 22.3762 10.912 22.3999C10.8179 22.4234 10.7245 22.4493 10.6316 22.4774C10.5388 22.5056 10.4468 22.5359 10.3555 22.5687C10.2641 22.6013 10.1736 22.6362 10.0841 22.6732C9.99441 22.7105 9.90587 22.7496 9.8181 22.7911C9.73052 22.8326 9.64391 22.8762 9.55846 22.9219C9.47281 22.9676 9.38851 23.0154 9.30537 23.0654C9.22223 23.1152 9.14025 23.1671 9.05961 23.2209C8.97898 23.2749 8.8997 23.3306 8.82177 23.3883C8.74383 23.4462 8.66745 23.5058 8.59241 23.5673C8.51756 23.6289 8.44407 23.6921 8.37231 23.7573C8.30036 23.8225 8.23014 23.8893 8.16166 23.958C8.09299 24.0264 8.02624 24.0967 7.96104 24.1686C7.89584 24.2404 7.83257 24.3139 7.77103 24.3887C7.7095 24.4637 7.64989 24.5401 7.59202 24.6181C7.53434 24.696 7.4786 24.7753 7.42458 24.8559C7.37076 24.9365 7.31887 25.0185 7.26911 25.1017C7.21914 25.1848 7.1713 25.2691 7.12559 25.3548C7.07987 25.4402 7.03627 25.5268 6.9948 25.6144C6.95333 25.7022 6.91417 25.7907 6.87694 25.8804C6.8399 25.9699 6.80498 26.0604 6.77238 26.1518C6.73959 26.2431 6.70931 26.3351 6.68114 26.4279C6.65298 26.5208 6.62713 26.6142 6.6036 26.7083C6.57987 26.8023 6.55865 26.897 6.53975 26.9921C6.52084 27.0872 6.50425 27.1827 6.48998 27.2786C6.4759 27.3746 6.46394 27.4709 6.45448 27.5673C6.44503 27.6638 6.43789 27.7604 6.43307 27.8575C6.42825 27.9543 6.42593 28.0511 6.42593 28.1482C6.42593 28.2452 6.42825 28.342 6.43307 28.4389C6.43789 28.5359 6.44503 28.6325 6.45448 28.729C6.46394 28.8254 6.4759 28.9217 6.48998 29.0178C6.50425 29.1136 6.52084 29.2091 6.53975 29.3042C6.55865 29.3993 6.57987 29.494 6.6036 29.588C6.62713 29.6821 6.65298 29.7755 6.68114 29.8684C6.70931 29.9612 6.73959 30.0532 6.77238 30.1445C6.80498 30.2359 6.8399 30.3264 6.87694 30.4159C6.91417 30.5056 6.95333 30.5941 6.9948 30.6817C7.03627 30.7695 7.07987 30.8561 7.12559 30.9416C7.1713 31.0272 7.21914 31.1115 7.26911 31.1946C7.31887 31.2778 7.37076 31.3598 7.42458 31.4404C7.4786 31.521 7.53434 31.6003 7.59202 31.6782C7.64989 31.7562 7.7095 31.8326 7.77103 31.9076C7.83257 31.9825 7.89584 32.0559 7.96104 32.1277C8.02624 32.1997 8.09299 32.2699 8.16166 32.3384C8.23014 32.407 8.30036 32.4738 8.37231 32.539C8.44407 32.6042 8.51756 32.6674 8.59241 32.729C8.66745 32.7905 8.74383 32.8501 8.82177 32.908C8.8997 32.9657 8.97898 33.0214 9.05961 33.0754C9.14025 33.1293 9.22223 33.1811 9.30537 33.2309C9.38851 33.2809 9.47281 33.3287 9.55846 33.3744C9.64391 33.4201 9.73052 33.4637 9.8181 33.5052C9.90587 33.5465 9.99441 33.5858 10.0841 33.6231C10.1736 33.6601 10.2641 33.695 10.3555 33.7276C10.4468 33.7604 10.5388 33.7907 10.6316 33.8189C10.7245 33.847 10.8179 33.8729 10.912 33.8964C11.006 33.9201 11.1007 33.9414 11.1958 33.9603C11.2909 33.9792 11.3864 33.9958 11.4823 34.01C11.5783 34.0241 11.6746 34.0361 11.771 34.0455C11.8675 34.055 11.9641 34.0621 12.0612 34.0669C12.158 34.0718 12.2548 34.0741 12.3519 34.0741ZM12.3519 23.7037C12.4443 23.7031 12.5365 23.7056 12.6287 23.7108C12.7209 23.7161 12.8129 23.7242 12.9045 23.7352C12.9961 23.7461 13.0874 23.76 13.1782 23.7768C13.2691 23.7934 13.3594 23.8129 13.4489 23.8353C13.5386 23.8575 13.6273 23.8825 13.7155 23.9103C13.8034 23.9383 13.8906 23.9688 13.9767 24.0021C14.0629 24.0353 14.1478 24.0712 14.2317 24.1098C14.3156 24.1483 14.3983 24.1894 14.4796 24.2332C14.561 24.277 14.6408 24.3231 14.7193 24.3719C14.7978 24.4205 14.8746 24.4717 14.9499 24.5251C15.0253 24.5787 15.0988 24.6345 15.1705 24.6925C15.2423 24.7506 15.3123 24.8108 15.3804 24.8733C15.4483 24.9356 15.5145 25.0002 15.5785 25.0668C15.6424 25.1333 15.7043 25.2018 15.7641 25.2722C15.8239 25.3426 15.8814 25.4147 15.9365 25.4886C15.9919 25.5627 16.0448 25.6383 16.0953 25.7157C16.1458 25.7928 16.1939 25.8717 16.2396 25.952C16.2851 26.0322 16.3283 26.1138 16.3688 26.1968C16.4093 26.2799 16.4473 26.364 16.4826 26.4493C16.5179 26.5345 16.5505 26.621 16.5804 26.7083C16.6103 26.7957 16.6375 26.8839 16.6619 26.973C16.6863 27.0621 16.708 27.1518 16.7267 27.2421C16.7456 27.3326 16.7616 27.4234 16.7747 27.5149C16.7878 27.6063 16.7982 27.6979 16.8056 27.7901C16.8131 27.8821 16.8175 27.9744 16.8193 28.0666C16.821 28.159 16.8198 28.2512 16.8158 28.3436C16.8117 28.4358 16.8048 28.5278 16.795 28.6196C16.7851 28.7114 16.7726 28.8029 16.757 28.8939C16.7415 28.985 16.7232 29.0754 16.7022 29.1653C16.6809 29.2552 16.657 29.3443 16.6304 29.4327C16.6036 29.5212 16.5743 29.6086 16.5421 29.6952C16.51 29.7818 16.4751 29.8673 16.4377 29.9516C16.4003 30.0361 16.3602 30.1192 16.3175 30.201C16.2749 30.283 16.2296 30.3634 16.1819 30.4425C16.1343 30.5216 16.0843 30.5992 16.0316 30.6752C15.9792 30.7512 15.9244 30.8254 15.8673 30.898C15.8102 30.9705 15.7508 31.0411 15.6892 31.11C15.6277 31.1788 15.5641 31.2458 15.4983 31.3106C15.4327 31.3756 15.365 31.4383 15.2953 31.4989C15.2257 31.5596 15.1543 31.6181 15.081 31.6742C15.0077 31.7305 14.9329 31.7843 14.8561 31.8358C14.7795 31.8874 14.7014 31.9365 14.6217 31.9832C14.5421 32.0299 14.461 32.0741 14.3785 32.1156C14.2961 32.1572 14.2124 32.1962 14.1275 32.2326C14.0428 32.2691 13.9568 32.3029 13.8698 32.3339C13.7828 32.3648 13.695 32.3931 13.6063 32.4188C13.5176 32.4443 13.4281 32.467 13.338 32.4871C13.2479 32.5071 13.157 32.5243 13.066 32.5386C12.9747 32.5529 12.8831 32.5644 12.7911 32.5731C12.6993 32.5818 12.6071 32.5874 12.5149 32.5903C12.4225 32.5932 12.3303 32.5932 12.2379 32.5905C12.1456 32.5876 12.0534 32.5818 11.9616 32.5731C11.8696 32.5646 11.778 32.5531 11.6867 32.5388C11.5955 32.5245 11.5048 32.5073 11.4147 32.4875C11.3245 32.4674 11.2352 32.4446 11.1464 32.4192C11.0577 32.3935 10.9697 32.3654 10.8827 32.3343C10.7957 32.3032 10.7099 32.2697 10.625 32.2332C10.5401 32.1968 10.4564 32.1578 10.374 32.1163C10.2915 32.0747 10.2105 32.0305 10.1308 31.984C10.0511 31.9373 9.97281 31.8881 9.89623 31.8366C9.81964 31.7851 9.74461 31.7313 9.6713 31.6752C9.598 31.619 9.52663 31.5606 9.45699 31.4998C9.38735 31.4392 9.31965 31.3766 9.25387 31.3117C9.18809 31.2467 9.12462 31.18 9.06289 31.1111H9.12964C9.19079 31.0976 9.25136 31.0814 9.31116 31.0627C9.37096 31.044 9.42979 31.0228 9.48785 30.9992C9.54592 30.9755 9.60282 30.9495 9.65857 30.9209C9.71451 30.8924 9.76891 30.8615 9.82215 30.8285C9.87539 30.7953 9.92709 30.76 9.97725 30.7226C10.0276 30.685 10.076 30.6456 10.1229 30.604C10.1698 30.5623 10.2149 30.5189 10.2581 30.4736C10.3013 30.4281 10.3424 30.381 10.3818 30.332C10.4209 30.2832 10.458 30.2326 10.4929 30.1808C10.5278 30.1287 10.5606 30.0752 10.5909 30.0205C10.6213 29.9657 10.6495 29.9097 10.6752 29.8526C10.7008 29.7953 10.724 29.7373 10.7448 29.6781C10.7656 29.619 10.7838 29.559 10.7996 29.4985C10.8152 29.4377 10.8283 29.3766 10.8387 29.3148C10.8494 29.2529 10.8573 29.1908 10.8625 29.1285C10.8679 29.066 10.8704 29.0035 10.8704 28.9408V27.3555C10.8704 27.2928 10.8679 27.2303 10.8625 27.1678C10.8573 27.1055 10.8494 27.0434 10.8389 26.9815C10.8283 26.9198 10.8152 26.8586 10.7996 26.7978C10.7838 26.7373 10.7656 26.6773 10.7448 26.6183C10.724 26.559 10.7008 26.501 10.6752 26.4437C10.6495 26.3866 10.6213 26.3306 10.5909 26.2759C10.5606 26.2211 10.5278 26.1676 10.4929 26.1156C10.458 26.0637 10.4209 26.0131 10.3818 25.9643C10.3424 25.9153 10.3013 25.8683 10.2581 25.8227C10.2149 25.7774 10.1698 25.734 10.1229 25.6923C10.076 25.6507 10.0276 25.6111 9.97725 25.5737C9.92709 25.5363 9.87539 25.501 9.82215 25.4678C9.76891 25.4348 9.71451 25.4039 9.65857 25.3754C9.60282 25.3468 9.54592 25.3208 9.48785 25.2971C9.42979 25.2735 9.37096 25.2523 9.31116 25.2336C9.25136 25.2149 9.19079 25.1987 9.12964 25.1852H9.05556C9.15896 25.0695 9.26833 24.9595 9.3833 24.8553C9.49827 24.751 9.61845 24.6532 9.74364 24.5613C9.86883 24.4697 9.99866 24.3848 10.1327 24.3069C10.267 24.2288 10.4047 24.158 10.5463 24.0943C10.6879 24.0307 10.8324 23.9745 10.9799 23.9261C11.1273 23.8777 11.2768 23.837 11.4286 23.8042C11.5803 23.7714 11.7332 23.7465 11.8875 23.7298C12.0419 23.713 12.1966 23.7043 12.3519 23.7037ZM7.90742 28.1482C7.91012 27.5799 8.01621 27.0318 8.2259 26.5037L8.81116 26.637C8.85263 26.6464 8.89295 26.6592 8.9323 26.6755C8.97146 26.6918 9.00907 26.7112 9.04495 26.734C9.08083 26.7568 9.11459 26.7824 9.14603 26.811C9.17748 26.8395 9.20622 26.8706 9.23245 26.9041C9.25869 26.9377 9.28164 26.9732 9.30171 27.0106C9.32177 27.048 9.33836 27.087 9.35167 27.1273C9.36517 27.1678 9.37481 27.2089 9.38118 27.251C9.38735 27.293 9.38986 27.3353 9.3889 27.3777V28.963C9.38986 29.0054 9.38735 29.0477 9.38118 29.0897C9.37481 29.1318 9.36517 29.173 9.35167 29.2134C9.33836 29.2537 9.32177 29.2926 9.30171 29.3301C9.28164 29.3677 9.25869 29.4032 9.23245 29.4367C9.20622 29.4701 9.17748 29.5012 9.14603 29.5297C9.11459 29.5583 9.08083 29.5839 9.04495 29.6067C9.00907 29.6294 8.97146 29.6489 8.9323 29.6653C8.89295 29.6815 8.85263 29.6945 8.81116 29.7037L8.2259 29.837C8.11922 29.5683 8.03917 29.2921 7.98554 29.0079C7.93191 28.7238 7.90587 28.4373 7.90742 28.1482Z" fill="#39A154"/>
<path d="M19.0185 16.2963H20.5C20.5486 16.2963 20.5969 16.2915 20.6445 16.282C20.6922 16.2726 20.7386 16.2585 20.7834 16.24C20.8283 16.2213 20.8712 16.1985 20.9115 16.1715C20.952 16.1445 20.9894 16.1138 21.0238 16.0793C21.0583 16.0449 21.089 16.0075 21.116 15.967C21.143 15.9267 21.1657 15.8839 21.1844 15.8389C21.203 15.7942 21.217 15.7477 21.2265 15.7C21.2359 15.6524 21.2408 15.6042 21.2408 15.5556C21.2408 15.5069 21.2359 15.4587 21.2265 15.4111C21.217 15.3634 21.203 15.3169 21.1844 15.272C21.1657 15.2272 21.143 15.1844 21.116 15.1441C21.089 15.1036 21.0583 15.0662 21.0238 15.0318C20.9894 14.9973 20.952 14.9666 20.9115 14.9396C20.8712 14.9126 20.8283 14.8899 20.7834 14.8711C20.7386 14.8526 20.6922 14.8385 20.6445 14.8291C20.5969 14.8196 20.5486 14.8148 20.5 14.8148H19.0185C18.9699 14.8148 18.9217 14.8196 18.8741 14.8291C18.8264 14.8385 18.7799 14.8526 18.735 14.8711C18.6902 14.8899 18.6474 14.9126 18.6071 14.9396C18.5666 14.9666 18.5292 14.9973 18.4948 15.0318C18.4603 15.0662 18.4296 15.1036 18.4026 15.1441C18.3756 15.1844 18.3528 15.2272 18.3341 15.272C18.3156 15.3169 18.3015 15.3634 18.2921 15.4111C18.2826 15.4587 18.2778 15.5069 18.2778 15.5556C18.2778 15.6042 18.2826 15.6524 18.2921 15.7C18.3015 15.7477 18.3156 15.7942 18.3341 15.8389C18.3528 15.8839 18.3756 15.9267 18.4026 15.967C18.4296 16.0075 18.4603 16.0449 18.4948 16.0793C18.5292 16.1138 18.5666 16.1445 18.6071 16.1715C18.6474 16.1985 18.6902 16.2213 18.735 16.24C18.7799 16.2585 18.8264 16.2726 18.8741 16.282C18.9217 16.2915 18.9699 16.2963 19.0185 16.2963Z" fill="#39A154"/>
<path d="M4.20372 16.2963H5.6852C5.73382 16.2963 5.78204 16.2915 5.82969 16.282C5.87733 16.2726 5.92382 16.2585 5.96858 16.24C6.01352 16.2213 6.05635 16.1985 6.09666 16.1715C6.13717 16.1445 6.17459 16.1138 6.20893 16.0793C6.24346 16.0449 6.27413 16.0075 6.30114 15.967C6.32814 15.9267 6.35091 15.8839 6.36962 15.8389C6.38814 15.7942 6.40222 15.7477 6.41167 15.7C6.42112 15.6524 6.42594 15.6042 6.42594 15.5556C6.42594 15.5069 6.42112 15.4587 6.41167 15.4111C6.40222 15.3634 6.38814 15.3169 6.36962 15.272C6.35091 15.2272 6.32814 15.1844 6.30114 15.1441C6.27413 15.1036 6.24346 15.0662 6.20893 15.0318C6.17459 14.9973 6.13717 14.9666 6.09666 14.9396C6.05635 14.9126 6.01352 14.8899 5.96858 14.8711C5.92382 14.8526 5.87733 14.8385 5.82969 14.8291C5.78204 14.8196 5.73382 14.8148 5.6852 14.8148H4.20372C4.15511 14.8148 4.10689 14.8196 4.05924 14.8291C4.01159 14.8385 3.9651 14.8526 3.92016 14.8711C3.8754 14.8899 3.83258 14.9126 3.79226 14.9396C3.75176 14.9666 3.71433 14.9973 3.68 15.0318C3.64547 15.0662 3.6148 15.1036 3.58779 15.1441C3.56078 15.1844 3.53802 15.2272 3.51931 15.272C3.50079 15.3169 3.48671 15.3634 3.47726 15.4111C3.4678 15.4587 3.46298 15.5069 3.46298 15.5556C3.46298 15.6042 3.4678 15.6524 3.47726 15.7C3.48671 15.7477 3.50079 15.7942 3.51931 15.8389C3.53802 15.8839 3.56078 15.9267 3.58779 15.967C3.6148 16.0075 3.64547 16.0449 3.68 16.0793C3.71433 16.1138 3.75176 16.1445 3.79226 16.1715C3.83258 16.1985 3.8754 16.2213 3.92016 16.24C3.9651 16.2585 4.01159 16.2726 4.05924 16.282C4.10689 16.2915 4.15511 16.2963 4.20372 16.2963Z" fill="#39A154"/>
<path d="M8.64815 16.2963H16.0556C16.1042 16.2963 16.1524 16.2915 16.2 16.282C16.2477 16.2726 16.2942 16.2585 16.3389 16.24C16.3839 16.2213 16.4267 16.1985 16.467 16.1715C16.5075 16.1445 16.5449 16.1138 16.5793 16.0793C16.6138 16.0449 16.6445 16.0075 16.6715 15.967C16.6985 15.9267 16.7213 15.8839 16.74 15.8389C16.7585 15.7942 16.7726 15.7477 16.782 15.7C16.7915 15.6524 16.7963 15.6042 16.7963 15.5556C16.7963 15.5069 16.7915 15.4587 16.782 15.4111C16.7726 15.3634 16.7585 15.3169 16.74 15.272C16.7213 15.2272 16.6985 15.1844 16.6715 15.1441C16.6445 15.1036 16.6138 15.0662 16.5793 15.0318C16.5449 14.9973 16.5075 14.9666 16.467 14.9396C16.4267 14.9126 16.3839 14.8899 16.3389 14.8711C16.2942 14.8526 16.2477 14.8385 16.2 14.8291C16.1524 14.8196 16.1042 14.8148 16.0556 14.8148H8.64815C8.59954 14.8148 8.55131 14.8196 8.50367 14.8291C8.45602 14.8385 8.40953 14.8526 8.36459 14.8711C8.31983 14.8899 8.27701 14.9126 8.23669 14.9396C8.19618 14.9666 8.15876 14.9973 8.12442 15.0318C8.08989 15.0662 8.05922 15.1036 8.03222 15.1441C8.00521 15.1844 7.98245 15.2272 7.96374 15.272C7.94522 15.3169 7.93114 15.3634 7.92168 15.4111C7.91223 15.4587 7.90741 15.5069 7.90741 15.5556C7.90741 15.6042 7.91223 15.6524 7.92168 15.7C7.93114 15.7477 7.94522 15.7942 7.96374 15.8389C7.98245 15.8839 8.00521 15.9267 8.03222 15.967C8.05922 16.0075 8.08989 16.0449 8.12442 16.0793C8.15876 16.1138 8.19618 16.1445 8.23669 16.1715C8.27701 16.1985 8.31983 16.2213 8.36459 16.24C8.40953 16.2585 8.45602 16.2726 8.50367 16.282C8.55131 16.2915 8.59954 16.2963 8.64815 16.2963Z" fill="#39A154"/>
<path d="M38.2778 23.7037H32.3519V2.22222C32.3519 2.1495 32.3484 2.07677 32.3412 2.00444C32.3341 1.93191 32.3233 1.86015 32.3092 1.78877C32.2949 1.7174 32.2772 1.6468 32.2562 1.57716C32.235 1.50752 32.2105 1.43904 32.1827 1.37172C32.1549 1.30459 32.1238 1.23881 32.0895 1.17477C32.0552 1.11053 32.0177 1.04823 31.9774 0.987654C31.9369 0.927083 31.8935 0.868634 31.8474 0.8125C31.8013 0.756173 31.7525 0.702353 31.701 0.650849C31.6495 0.599344 31.5957 0.55054 31.5394 0.504437C31.4832 0.458333 31.4248 0.414931 31.3642 0.374421C31.3036 0.334105 31.2413 0.296682 31.1771 0.262346C31.113 0.228009 31.0473 0.196952 30.9799 0.169174C30.9128 0.141397 30.8443 0.116898 30.7747 0.095679C30.7051 0.0746528 30.6345 0.0569059 30.5631 0.0426312C30.4917 0.0285494 30.4199 0.0177469 30.3474 0.0106096C30.2751 0.00347222 30.2024 0 30.1296 0H10.8704C10.7976 0 10.7249 0.00347222 10.6526 0.0106096C10.5801 0.0177469 10.5083 0.0285494 10.4369 0.0426312C10.3655 0.0569059 10.2949 0.0746528 10.2253 0.095679C10.1557 0.116898 10.0872 0.141397 10.0199 0.169174C9.95274 0.196952 9.88696 0.228009 9.82292 0.262346C9.75868 0.296682 9.69637 0.334105 9.6358 0.374421C9.57523 0.414931 9.51678 0.458333 9.46065 0.504437C9.40432 0.55054 9.3505 0.599344 9.299 0.650849C9.24749 0.702353 9.19869 0.756173 9.15258 0.8125C9.10648 0.868634 9.06308 0.927083 9.02257 0.987654C8.98225 1.04823 8.94483 1.11053 8.91049 1.17477C8.87616 1.23881 8.8451 1.30459 8.81732 1.37172C8.78954 1.43904 8.76505 1.50752 8.74383 1.57716C8.7228 1.6468 8.70505 1.7174 8.69078 1.78877C8.6767 1.86015 8.6659 1.93191 8.65876 2.00444C8.65162 2.07677 8.64815 2.1495 8.64815 2.22222V11.8519H2.72222C2.6495 11.8519 2.57677 11.8555 2.50444 11.8625C2.43191 11.8696 2.36015 11.8804 2.28877 11.8945C2.2174 11.9088 2.1468 11.9265 2.07716 11.9475C2.00752 11.9688 1.93904 11.9932 1.87172 12.021C1.80459 12.0488 1.73881 12.0799 1.67477 12.1142C1.61053 12.1485 1.54823 12.186 1.48765 12.2263C1.42708 12.2668 1.36863 12.3102 1.3125 12.3563C1.25617 12.4024 1.20235 12.4512 1.15085 12.5027C1.09934 12.5542 1.05054 12.608 1.00444 12.6644C0.958333 12.7205 0.914931 12.7789 0.874421 12.8395C0.834105 12.9001 0.796682 12.9624 0.762346 13.0266C0.728009 13.0907 0.696952 13.1564 0.669174 13.2236C0.641397 13.2909 0.616898 13.3594 0.595679 13.429C0.574653 13.4986 0.556906 13.5693 0.542631 13.6406C0.528549 13.712 0.517747 13.7838 0.51061 13.8563C0.503472 13.9286 0.5 14.0014 0.5 14.0741V37.7778C0.5 37.8505 0.503472 37.9232 0.51061 37.9956C0.517747 38.0681 0.528549 38.1399 0.542631 38.2112C0.556906 38.2826 0.574653 38.3532 0.595679 38.4228C0.616898 38.4925 0.641397 38.561 0.669174 38.6281C0.696952 38.6954 0.728009 38.7612 0.762346 38.8252C0.796682 38.8895 0.834105 38.9518 0.874421 39.0123C0.914931 39.0729 0.958333 39.1314 1.00444 39.1875C1.05054 39.2438 1.09934 39.2976 1.15085 39.3492C1.20235 39.4007 1.25617 39.4495 1.3125 39.4956C1.36863 39.5417 1.42708 39.5851 1.48765 39.6256C1.54823 39.6659 1.61053 39.7033 1.67477 39.7377C1.73881 39.772 1.80459 39.803 1.87172 39.8308C1.93904 39.8586 2.00752 39.8831 2.07716 39.9043C2.1468 39.9253 2.2174 39.9431 2.28877 39.9574C2.36015 39.9715 2.43191 39.9823 2.50444 39.9894C2.57677 39.9965 2.6495 40 2.72222 40H38.2778C38.3505 40 38.4232 39.9965 38.4956 39.9894C38.5681 39.9823 38.6399 39.9715 38.7112 39.9574C38.7826 39.9431 38.8532 39.9253 38.9228 39.9043C38.9925 39.8831 39.061 39.8586 39.1281 39.8308C39.1954 39.803 39.2612 39.772 39.3252 39.7377C39.3895 39.7033 39.4518 39.6659 39.5123 39.6256C39.5729 39.5851 39.6314 39.5417 39.6875 39.4956C39.7438 39.4495 39.7976 39.4007 39.8492 39.3492C39.9007 39.2976 39.9495 39.2438 39.9956 39.1875C40.0417 39.1314 40.0851 39.0729 40.1256 39.0123C40.1659 38.9518 40.2033 38.8895 40.2377 38.8252C40.272 38.7612 40.303 38.6954 40.3308 38.6281C40.3586 38.561 40.3831 38.4925 40.4043 38.4228C40.4253 38.3532 40.4431 38.2826 40.4574 38.2112C40.4715 38.1399 40.4823 38.0681 40.4894 37.9956C40.4965 37.9232 40.5 37.8505 40.5 37.7778V25.9259C40.5 25.8532 40.4965 25.7805 40.4894 25.7081C40.4823 25.6356 40.4715 25.5639 40.4574 25.4925C40.4431 25.4211 40.4253 25.3505 40.4043 25.2809C40.3831 25.2112 40.3586 25.1427 40.3308 25.0754C40.303 25.0083 40.272 24.9425 40.2377 24.8785C40.2033 24.8142 40.1659 24.7519 40.1256 24.6914C40.0851 24.6308 40.0417 24.5723 39.9956 24.5162C39.9495 24.4599 39.9007 24.4061 39.8492 24.3546C39.7976 24.303 39.7438 24.2542 39.6875 24.2081C39.6314 24.162 39.5729 24.1186 39.5123 24.0781C39.4518 24.0378 39.3895 24.0004 39.3252 23.966C39.2612 23.9317 39.1954 23.9007 39.1281 23.8729C39.061 23.8451 38.9925 23.8206 38.9228 23.7994C38.8532 23.7784 38.7826 23.7606 38.7112 23.7463C38.6399 23.7323 38.5681 23.7215 38.4956 23.7143C38.4232 23.7074 38.3505 23.7037 38.2778 23.7037ZM24.2037 23.7037V16.2963H30.8704V23.7037H24.2037ZM10.1296 2.22222C10.1296 2.17361 10.1345 2.12539 10.1439 2.07774C10.1534 2.03009 10.1674 1.9836 10.186 1.93866C10.2047 1.8939 10.2274 1.85108 10.2544 1.81076C10.2814 1.77025 10.3121 1.73283 10.3466 1.6985C10.381 1.66397 10.4184 1.63329 10.4589 1.60629C10.4992 1.57928 10.5421 1.55652 10.5868 1.53781C10.6318 1.51929 10.6782 1.50521 10.7259 1.49576C10.7735 1.4863 10.8218 1.48148 10.8704 1.48148H17.0777L16.337 2.96296H10.1296V2.22222ZM10.1296 4.44444H16.7963C16.8648 4.44425 16.9317 4.4348 16.9975 4.4159C17.0633 4.39718 17.1252 4.36979 17.1834 4.33391C17.2417 4.29784 17.2938 4.25463 17.3401 4.20428C17.3862 4.15394 17.4248 4.09819 17.4556 4.03704L18.7371 1.48148H30.1296C30.1782 1.48148 30.2265 1.4863 30.2741 1.49576C30.3218 1.50521 30.3682 1.51929 30.413 1.53781C30.4579 1.55652 30.5008 1.57928 30.5411 1.60629C30.5816 1.63329 30.619 1.66397 30.6534 1.6985C30.6879 1.73283 30.7186 1.77025 30.7456 1.81076C30.7726 1.85108 30.7953 1.8939 30.814 1.93866C30.8326 1.9836 30.8466 2.03009 30.8561 2.07774C30.8655 2.12539 30.8704 2.17361 30.8704 2.22222V14.8148H24.2037V14.0741C24.2037 14.0014 24.2002 13.9286 24.1931 13.8563C24.186 13.7838 24.1752 13.712 24.1611 13.6406C24.1468 13.5693 24.1291 13.4986 24.108 13.429C24.0868 13.3594 24.0623 13.2909 24.0345 13.2236C24.0068 13.1564 23.9757 13.0907 23.9414 13.0266C23.907 12.9624 23.8696 12.9001 23.8293 12.8395C23.7888 12.7789 23.7454 12.7205 23.6993 12.6644C23.6532 12.608 23.6044 12.5542 23.5529 12.5027C23.5014 12.4512 23.4475 12.4024 23.3912 12.3563C23.3351 12.3102 23.2766 12.2668 23.216 12.2263C23.1555 12.186 23.0932 12.1485 23.0289 12.1142C22.9649 12.0799 22.8991 12.0488 22.8318 12.021C22.7647 11.9932 22.6962 11.9688 22.6265 11.9475C22.5569 11.9265 22.4863 11.9088 22.4149 11.8945C22.3436 11.8804 22.2718 11.8696 22.1993 11.8625C22.1269 11.8555 22.0542 11.8519 21.9815 11.8519H10.1296V4.44444ZM2.72222 13.3333H21.9815C22.0301 13.3333 22.0783 13.3382 22.126 13.3476C22.1736 13.3571 22.2201 13.3711 22.2649 13.3897C22.3098 13.4084 22.3526 13.4311 22.3929 13.4581C22.4334 13.4851 22.4709 13.5158 22.5052 13.5503C22.5397 13.5847 22.5704 13.6221 22.5974 13.6626C22.6244 13.7029 22.6472 13.7458 22.6659 13.7905C22.6844 13.8355 22.6985 13.8819 22.7079 13.9296C22.7174 13.9772 22.7222 14.0255 22.7222 14.0741V17.7778H1.98148V14.0741C1.98148 14.0255 1.9863 13.9772 1.99576 13.9296C2.00521 13.8819 2.01929 13.8355 2.03781 13.7905C2.05652 13.7458 2.07928 13.7029 2.10629 13.6626C2.13329 13.6221 2.16397 13.5847 2.1985 13.5503C2.23283 13.5158 2.27025 13.4851 2.31076 13.4581C2.35108 13.4311 2.3939 13.4084 2.43866 13.3897C2.4836 13.3711 2.53009 13.3571 2.57774 13.3476C2.62539 13.3382 2.67361 13.3333 2.72222 13.3333ZM1.98148 37.7778V19.2593H22.7222V23.7037H21.9815C21.9088 23.7037 21.836 23.7074 21.7637 23.7143C21.6912 23.7215 21.6194 23.7323 21.548 23.7463C21.4767 23.7606 21.4061 23.7784 21.3364 23.7994C21.2668 23.8206 21.1983 23.8451 21.131 23.8729C21.0639 23.9007 20.9981 23.9317 20.934 23.966C20.8698 24.0004 20.8075 24.0378 20.7469 24.0781C20.6863 24.1186 20.6279 24.162 20.5718 24.2081C20.5154 24.2542 20.4616 24.303 20.4101 24.3546C20.3586 24.4061 20.3098 24.4599 20.2637 24.5162C20.2176 24.5723 20.1742 24.6308 20.1337 24.6914C20.0934 24.7519 20.0559 24.8142 20.0216 24.8785C19.9873 24.9425 19.9562 25.0083 19.9284 25.0754C19.9007 25.1427 19.8762 25.2112 19.8549 25.2809C19.8339 25.3505 19.8162 25.4211 19.8019 25.4925C19.7878 25.5639 19.777 25.6356 19.7699 25.7081C19.7627 25.7805 19.7593 25.8532 19.7593 25.9259V35.5556H4.2037C4.15509 35.5556 4.10687 35.5604 4.05922 35.5698C4.01157 35.5793 3.96508 35.5934 3.92014 35.6119C3.87539 35.6306 3.83256 35.6534 3.79225 35.6804C3.75174 35.7074 3.71431 35.738 3.67998 35.7726C3.64545 35.8069 3.61478 35.8443 3.58777 35.8848C3.56076 35.9252 3.538 35.968 3.51929 36.0127C3.50077 36.0577 3.48669 36.1042 3.47724 36.1518C3.46779 36.1995 3.46296 36.2477 3.46296 36.2963C3.46296 36.3449 3.46779 36.3931 3.47724 36.4408C3.48669 36.4884 3.50077 36.5349 3.51929 36.5797C3.538 36.6246 3.56076 36.6674 3.58777 36.7078C3.61478 36.7483 3.64545 36.7857 3.67998 36.82C3.71431 36.8546 3.75174 36.8852 3.79225 36.9122C3.83256 36.9392 3.87539 36.962 3.92014 36.9807C3.96508 36.9992 4.01157 37.0133 4.05922 37.0228C4.10687 37.0322 4.15509 37.037 4.2037 37.037H19.7593V37.7778C19.7612 38.0324 19.8057 38.2793 19.8926 38.5185H2.72222C2.67361 38.5185 2.62539 38.5137 2.57774 38.5042C2.53009 38.4948 2.4836 38.4807 2.43866 38.4622C2.3939 38.4435 2.35108 38.4207 2.31076 38.3937C2.27025 38.3667 2.23283 38.336 2.1985 38.3015C2.16397 38.2672 2.13329 38.2297 2.10629 38.1892C2.07928 38.1489 2.05652 38.1061 2.03781 38.0611C2.01929 38.0164 2.00521 37.9699 1.99576 37.9223C1.9863 37.8746 1.98148 37.8264 1.98148 37.7778ZM39.0185 37.7778C39.0185 37.8264 39.0137 37.8746 39.0042 37.9223C38.9948 37.9699 38.9807 38.0164 38.9622 38.0611C38.9435 38.1061 38.9207 38.1489 38.8937 38.1892C38.8667 38.2297 38.836 38.2672 38.8015 38.3015C38.7672 38.336 38.7297 38.3667 38.6892 38.3937C38.6489 38.4207 38.6061 38.4435 38.5611 38.4622C38.5164 38.4807 38.4699 38.4948 38.4223 38.5042C38.3746 38.5137 38.3264 38.5185 38.2778 38.5185H21.9815C21.9329 38.5185 21.8846 38.5137 21.837 38.5042C21.7894 38.4948 21.7429 38.4807 21.6979 38.4622C21.6532 38.4435 21.6103 38.4207 21.57 38.3937C21.5295 38.3667 21.4921 38.336 21.4578 38.3015C21.4232 38.2672 21.3926 38.2297 21.3655 38.1892C21.3385 38.1489 21.3158 38.1061 21.2971 38.0611C21.2785 38.0164 21.2645 37.9699 21.255 37.9223C21.2456 37.8746 21.2407 37.8264 21.2407 37.7778V25.9259C21.2407 25.8773 21.2456 25.8291 21.255 25.7814C21.2645 25.7338 21.2785 25.6873 21.2971 25.6426C21.3158 25.5976 21.3385 25.5548 21.3655 25.5145C21.3926 25.474 21.4232 25.4365 21.4578 25.4022C21.4921 25.3677 21.5295 25.337 21.57 25.31C21.6103 25.283 21.6532 25.2602 21.6979 25.2415C21.7429 25.223 21.7894 25.2089 21.837 25.1995C21.8846 25.19 21.9329 25.1852 21.9815 25.1852H38.2778C38.3264 25.1852 38.3746 25.19 38.4223 25.1995C38.4699 25.2089 38.5164 25.223 38.5611 25.2415C38.6061 25.2602 38.6489 25.283 38.6892 25.31C38.7297 25.337 38.7672 25.3677 38.8015 25.4022C38.836 25.4365 38.8667 25.474 38.8937 25.5145C38.9207 25.5548 38.9435 25.5976 38.9622 25.6424C38.9807 25.6873 38.9948 25.7338 39.0042 25.7814C39.0137 25.8291 39.0185 25.8773 39.0185 25.9259V37.7778Z" fill="#39A154"/>
<path d="M32.3518 26.6667H23.4629C23.4143 26.6667 23.3661 26.6715 23.3185 26.681C23.2708 26.6904 23.2243 26.7045 23.1794 26.723C23.1346 26.7417 23.0918 26.7645 23.0515 26.7915C23.011 26.8185 22.9735 26.8492 22.9392 26.8837C22.9047 26.918 22.874 26.9555 22.847 26.996C22.82 27.0363 22.7972 27.0791 22.7785 27.1239C22.76 27.1688 22.7459 27.2153 22.7365 27.2629C22.727 27.3106 22.7222 27.3588 22.7222 27.4074V36.2963C22.7222 36.3449 22.727 36.3932 22.7365 36.4408C22.7459 36.4884 22.76 36.5349 22.7785 36.5797C22.7972 36.6246 22.82 36.6675 22.847 36.7078C22.874 36.7483 22.9047 36.7857 22.9392 36.82C22.9735 36.8546 23.011 36.8852 23.0515 36.9122C23.0918 36.9393 23.1346 36.962 23.1794 36.9807C23.2243 36.9992 23.2708 37.0133 23.3185 37.0228C23.3661 37.0322 23.4143 37.0371 23.4629 37.0371H32.3518C32.4004 37.0371 32.4487 37.0322 32.4963 37.0228C32.544 37.0133 32.5904 36.9992 32.6352 36.9807C32.6801 36.962 32.723 36.9393 32.7633 36.9122C32.8038 36.8852 32.8412 36.8546 32.8756 36.82C32.9101 36.7857 32.9408 36.7483 32.9678 36.7078C32.9948 36.6675 33.0175 36.6246 33.0362 36.5797C33.0548 36.5349 33.0688 36.4884 33.0783 36.4408C33.0877 36.3932 33.0926 36.3449 33.0926 36.2963V27.4074C33.0926 27.3588 33.0877 27.3106 33.0783 27.2629C33.0688 27.2153 33.0548 27.1688 33.0362 27.1239C33.0175 27.0791 32.9948 27.0363 32.9678 26.996C32.9408 26.9555 32.9101 26.918 32.8756 26.8837C32.8412 26.8492 32.8038 26.8185 32.7633 26.7915C32.723 26.7645 32.6801 26.7417 32.6352 26.723C32.5904 26.7045 32.544 26.6904 32.4963 26.681C32.4487 26.6715 32.4004 26.6667 32.3518 26.6667ZM31.6111 35.5556H24.2037V28.1482H31.6111V35.5556Z" fill="#39A154"/>
<path d="M36.7963 31.1111H35.3148C35.2662 31.1111 35.218 31.1159 35.1704 31.1254C35.1227 31.1348 35.0762 31.1489 35.0313 31.1674C34.9865 31.1861 34.9437 31.2089 34.9034 31.2359C34.8629 31.2629 34.8254 31.2936 34.7911 31.3281C34.7566 31.3624 34.7259 31.3999 34.6989 31.4404C34.6719 31.4807 34.6491 31.5235 34.6304 31.5683C34.6119 31.6132 34.5978 31.6597 34.5884 31.7073C34.5789 31.755 34.5741 31.8032 34.5741 31.8518C34.5741 31.9004 34.5789 31.9487 34.5884 31.9963C34.5978 32.044 34.6119 32.0904 34.6304 32.1352C34.6491 32.1801 34.6719 32.223 34.6989 32.2633C34.7259 32.3038 34.7566 32.3412 34.7911 32.3755C34.8254 32.4101 34.8629 32.4408 34.9034 32.4678C34.9437 32.4948 34.9865 32.5175 35.0313 32.5362C35.0762 32.5548 35.1227 32.5688 35.1704 32.5783C35.218 32.5877 35.2662 32.5926 35.3148 32.5926H36.7963C36.8449 32.5926 36.8932 32.5877 36.9408 32.5783C36.9884 32.5688 37.0349 32.5548 37.0797 32.5362C37.1246 32.5175 37.1675 32.4948 37.2078 32.4678C37.2483 32.4408 37.2857 32.4101 37.32 32.3755C37.3546 32.3412 37.3852 32.3038 37.4123 32.2633C37.4393 32.223 37.462 32.1801 37.4807 32.1352C37.4993 32.0904 37.5133 32.044 37.5228 31.9963C37.5322 31.9487 37.5371 31.9004 37.5371 31.8518C37.5371 31.8032 37.5322 31.755 37.5228 31.7073C37.5133 31.6597 37.4993 31.6132 37.4807 31.5683C37.462 31.5235 37.4393 31.4807 37.4123 31.4404C37.3852 31.3999 37.3546 31.3624 37.32 31.3281C37.2857 31.2936 37.2483 31.2629 37.2078 31.2359C37.1675 31.2089 37.1246 31.1861 37.0797 31.1674C37.0349 31.1489 36.9884 31.1348 36.9408 31.1254C36.8932 31.1159 36.8449 31.1111 36.7963 31.1111Z" fill="#39A154"/>
<path d="M36.7963 28.1481H35.3148C35.2662 28.1481 35.218 28.153 35.1704 28.1624C35.1227 28.1719 35.0762 28.1859 35.0313 28.2045C34.9865 28.2232 34.9437 28.2459 34.9034 28.2729C34.8629 28.2999 34.8254 28.3306 34.7911 28.3651C34.7566 28.3995 34.7259 28.4369 34.6989 28.4774C34.6719 28.5177 34.6491 28.5606 34.6304 28.6053C34.6119 28.6503 34.5978 28.6967 34.5884 28.7444C34.5789 28.792 34.5741 28.8403 34.5741 28.8889C34.5741 28.9375 34.5789 28.9857 34.5884 29.0334C34.5978 29.081 34.6119 29.1275 34.6304 29.1722C34.6491 29.2172 34.6719 29.26 34.6989 29.3003C34.7259 29.3408 34.7566 29.3783 34.7911 29.4126C34.8254 29.4471 34.8629 29.4778 34.9034 29.5048C34.9437 29.5318 34.9865 29.5546 35.0313 29.5733C35.0762 29.5918 35.1227 29.6059 35.1704 29.6153C35.218 29.6248 35.2662 29.6296 35.3148 29.6296H36.7963C36.8449 29.6296 36.8932 29.6248 36.9408 29.6153C36.9884 29.6059 37.0349 29.5918 37.0797 29.5733C37.1246 29.5546 37.1675 29.5318 37.2078 29.5048C37.2483 29.4778 37.2857 29.4471 37.32 29.4126C37.3546 29.3783 37.3852 29.3408 37.4123 29.3003C37.4393 29.26 37.462 29.2172 37.4807 29.1722C37.4993 29.1275 37.5133 29.081 37.5228 29.0334C37.5322 28.9857 37.5371 28.9375 37.5371 28.8889C37.5371 28.8403 37.5322 28.792 37.5228 28.7444C37.5133 28.6967 37.4993 28.6503 37.4807 28.6053C37.462 28.5606 37.4393 28.5177 37.4123 28.4774C37.3852 28.4369 37.3546 28.3995 37.32 28.3651C37.2857 28.3306 37.2483 28.2999 37.2078 28.2729C37.1675 28.2459 37.1246 28.2232 37.0797 28.2045C37.0349 28.1859 36.9884 28.1719 36.9408 28.1624C36.8932 28.153 36.8449 28.1481 36.7963 28.1481Z" fill="#39A154"/>
<path d="M36.7963 34.0741H35.3148C35.2662 34.0741 35.218 34.0789 35.1704 34.0884C35.1227 34.0978 35.0762 34.1119 35.0313 34.1304C34.9865 34.1491 34.9437 34.1719 34.9034 34.1989C34.8629 34.2259 34.8254 34.2566 34.7911 34.2911C34.7566 34.3254 34.7259 34.3629 34.6989 34.4034C34.6719 34.4437 34.6491 34.4865 34.6304 34.5313C34.6119 34.5762 34.5978 34.6227 34.5884 34.6704C34.5789 34.718 34.5741 34.7662 34.5741 34.8148C34.5741 34.8634 34.5789 34.9117 34.5884 34.9593C34.5978 35.007 34.6119 35.0535 34.6304 35.0982C34.6491 35.1432 34.6719 35.186 34.6989 35.2263C34.7259 35.2668 34.7566 35.3042 34.7911 35.3386C34.8254 35.3731 34.8629 35.4038 34.9034 35.4308C34.9437 35.4578 34.9865 35.4805 35.0313 35.4993C35.0762 35.5178 35.1227 35.5319 35.1704 35.5413C35.218 35.5508 35.2662 35.5556 35.3148 35.5556H36.7963C36.8449 35.5556 36.8932 35.5508 36.9408 35.5413C36.9884 35.5319 37.0349 35.5178 37.0797 35.4993C37.1246 35.4805 37.1675 35.4578 37.2078 35.4308C37.2483 35.4038 37.2857 35.3731 37.32 35.3386C37.3546 35.3042 37.3852 35.2668 37.4123 35.2263C37.4393 35.186 37.462 35.1432 37.4807 35.0982C37.4993 35.0535 37.5133 35.007 37.5228 34.9593C37.5322 34.9117 37.5371 34.8634 37.5371 34.8148C37.5371 34.7662 37.5322 34.718 37.5228 34.6704C37.5133 34.6227 37.4993 34.5762 37.4807 34.5313C37.462 34.4865 37.4393 34.4437 37.4123 34.4034C37.3852 34.3629 37.3546 34.3254 37.32 34.2911C37.2857 34.2566 37.2483 34.2259 37.2078 34.1989C37.1675 34.1719 37.1246 34.1491 37.0797 34.1304C37.0349 34.1119 36.9884 34.0978 36.9408 34.0884C36.8932 34.0789 36.8449 34.0741 36.7963 34.0741Z" fill="#39A154"/>
</g>
<defs>
<clipPath id="clip0_2425_886">
<rect width="40" height="40" fill="white" transform="translate(0.5)"/>
</clipPath>
</defs>
</svg>
