<svg width="41" height="40" viewBox="0 0 41 40" fill="none" xmlns="http://www.w3.org/2000/svg">
<mask id="mask0_2425_372" style="mask-type:luminance" maskUnits="userSpaceOnUse" x="2" y="0" width="37" height="40">
<path d="M2.45004 0H38.5611V40H2.45004V0Z" fill="white"/>
</mask>
<g mask="url(#mask0_2425_372)">
<path d="M36.1096 7.31713H34.646V6.04147C34.646 5.97762 34.643 5.91377 34.6368 5.85012C34.6304 5.78665 34.6212 5.72357 34.6086 5.66088C34.5961 5.59819 34.5806 5.53627 34.5621 5.47512C34.5436 5.41397 34.522 5.35378 34.4975 5.29475C34.4732 5.23573 34.4458 5.17805 34.4157 5.12172C34.3856 5.06539 34.3528 5.01061 34.3173 4.95737C34.2818 4.90432 34.2438 4.85301 34.2031 4.80363C34.1626 4.75424 34.1198 4.70698 34.0747 4.66165C34.0293 4.61651 33.9821 4.57369 33.9327 4.53318C33.8833 4.49267 33.832 4.45467 33.779 4.41917C33.7257 4.38349 33.6711 4.35069 33.6148 4.3206C33.5583 4.29051 33.5006 4.26331 33.4416 4.23881C33.3825 4.21431 33.3225 4.1929 33.2614 4.17419C33.2002 4.15567 33.1383 4.14024 33.0756 4.1277C33.0129 4.11535 32.9497 4.1059 32.8862 4.09973C32.8225 4.09336 32.7589 4.09028 32.6948 4.09028H30.7437V0.487847C30.7437 0.455826 30.7406 0.423997 30.7344 0.392554C30.728 0.361304 30.7188 0.330633 30.7066 0.301119C30.6943 0.271605 30.6792 0.243441 30.6615 0.216821C30.6437 0.190201 30.6235 0.165509 30.6007 0.14294C30.5781 0.120177 30.5535 0.0999229 30.5268 0.0821759C30.5002 0.064429 30.472 0.0493827 30.4425 0.037037C30.413 0.0248842 30.3825 0.015625 30.3511 0.00945215C30.3197 0.00308642 30.2878 0 30.2558 0H2.93887C2.90684 0 2.87502 0.00308642 2.84357 0.00945215C2.81232 0.015625 2.78165 0.0248842 2.75214 0.037037C2.72262 0.0493827 2.69446 0.064429 2.66784 0.0821759C2.64122 0.0999229 2.61653 0.120177 2.59396 0.14294C2.5712 0.165509 2.55094 0.190201 2.5332 0.216821C2.51545 0.243441 2.5004 0.271605 2.48806 0.301119C2.4759 0.330633 2.46664 0.361304 2.46047 0.392554C2.45411 0.423997 2.45102 0.455826 2.45102 0.487847V29.7562C2.45102 29.836 2.45488 29.9157 2.46279 29.9952C2.4705 30.0747 2.48227 30.1535 2.49789 30.2319C2.51352 30.3102 2.53281 30.3877 2.55596 30.4641C2.5793 30.5405 2.60611 30.6157 2.63659 30.6894C2.66726 30.7633 2.70141 30.8355 2.73902 30.9059C2.77664 30.9763 2.81772 31.0448 2.86209 31.1111C2.90646 31.1775 2.95391 31.2417 3.00465 31.3034C3.05538 31.3652 3.10881 31.4242 3.16533 31.4807C3.22185 31.5372 3.28107 31.5909 3.3428 31.6414C3.40453 31.6921 3.46857 31.7398 3.53493 31.7841C3.60148 31.8285 3.66977 31.8694 3.74037 31.9072C3.81078 31.9448 3.88293 31.979 3.95661 32.0095C4.03049 32.0401 4.10553 32.0669 4.18192 32.0901C4.2585 32.1132 4.33586 32.1327 4.41418 32.1483C4.49249 32.1638 4.57139 32.1755 4.65106 32.1834C4.73053 32.1912 4.8102 32.195 4.89006 32.1952C4.96992 32.195 5.04959 32.1912 5.12907 32.1834C5.20854 32.1755 5.28744 32.1638 5.36595 32.1483C5.44427 32.1327 5.52162 32.1132 5.59801 32.0901C5.6744 32.0669 5.74963 32.0401 5.82332 32.0095C5.8972 31.979 5.96934 31.9448 6.03975 31.9072C6.11016 31.8694 6.17864 31.8285 6.245 31.7841C6.31155 31.7398 6.37559 31.6921 6.43732 31.6414C6.49905 31.5909 6.55827 31.5372 6.6146 31.4807C6.67112 31.4242 6.72475 31.3652 6.77548 31.3034C6.82602 31.2417 6.87367 31.1775 6.91803 31.1111C6.9624 31.0448 7.00349 30.9763 7.0411 30.9059C7.07872 30.8355 7.11286 30.7633 7.14334 30.6894C7.17401 30.6157 7.20083 30.5405 7.22397 30.4641C7.24712 30.3877 7.26661 30.3102 7.28223 30.2319C7.29786 30.1535 7.30943 30.0747 7.31734 29.9952C7.32505 29.9157 7.32911 29.836 7.32911 29.7562V21.9512C7.32911 21.9034 7.33142 21.8555 7.33605 21.8079C7.34087 21.76 7.34782 21.7128 7.35708 21.6657C7.36653 21.6186 7.3781 21.5723 7.39199 21.5264C7.40607 21.4805 7.42208 21.4354 7.44041 21.3912C7.45874 21.3468 7.47918 21.3036 7.50195 21.2614C7.52451 21.2191 7.54901 21.178 7.57563 21.1381C7.60225 21.0984 7.6308 21.0598 7.66128 21.0228C7.69157 20.9857 7.72378 20.9502 7.75773 20.9165C7.79149 20.8825 7.82698 20.8503 7.86402 20.82C7.90106 20.7895 7.93964 20.761 7.97938 20.7344C8.01931 20.7078 8.06039 20.6833 8.10264 20.6607C8.14489 20.6379 8.18809 20.6175 8.23246 20.5992C8.27664 20.5808 8.32178 20.5648 8.36769 20.5507C8.4136 20.5368 8.45989 20.5253 8.50696 20.516C8.55403 20.5066 8.60129 20.4996 8.64894 20.4948C8.69678 20.4902 8.74462 20.4878 8.79245 20.4878C8.84049 20.4878 8.88813 20.4902 8.93597 20.4948C8.98362 20.4996 9.03088 20.5066 9.07795 20.516C9.12502 20.5253 9.17131 20.5368 9.21722 20.5507C9.26313 20.5648 9.30827 20.5808 9.35245 20.5992C9.39681 20.6175 9.44002 20.6379 9.48227 20.6607C9.52451 20.6833 9.5656 20.7078 9.60553 20.7344C9.64527 20.761 9.68385 20.7895 9.72089 20.82C9.75793 20.8503 9.79342 20.8825 9.82718 20.9165C9.86113 20.9502 9.89334 20.9857 9.92363 21.0228C9.95411 21.0598 9.98266 21.0984 10.0093 21.1381C10.0359 21.178 10.0604 21.2191 10.0832 21.2614C10.1057 21.3036 10.1262 21.3468 10.1445 21.3912C10.1628 21.4354 10.179 21.4805 10.1929 21.5264C10.2068 21.5723 10.2184 21.6186 10.2278 21.6657C10.2371 21.7128 10.2442 21.76 10.2489 21.8079C10.2535 21.8555 10.2558 21.9034 10.2558 21.9512V25.8536C10.2558 25.9334 10.2599 26.0133 10.2676 26.0928C10.2755 26.1723 10.2872 26.2512 10.3027 26.3295C10.3183 26.4078 10.3378 26.4851 10.3609 26.5617C10.3841 26.6381 10.4109 26.7132 10.4416 26.787C10.472 26.8609 10.5062 26.9329 10.5438 27.0035C10.5816 27.0739 10.6225 27.1424 10.6669 27.2087C10.7112 27.2751 10.7589 27.3391 10.8094 27.401C10.8602 27.4628 10.9138 27.5218 10.9703 27.5783C11.0268 27.6348 11.0859 27.6885 11.1476 27.739C11.2093 27.7897 11.2734 27.8372 11.3399 27.8816C11.4063 27.9259 11.4747 27.967 11.5452 28.0046C11.6156 28.0422 11.6877 28.0764 11.7616 28.1071C11.8353 28.1375 11.9105 28.1645 11.9869 28.1877C12.0633 28.2108 12.1406 28.2303 12.2192 28.2458C12.2975 28.2614 12.3764 28.2731 12.4558 28.2809C12.5353 28.2888 12.615 28.2926 12.6948 28.2926C12.7747 28.2926 12.8546 28.2888 12.934 28.2809C13.0135 28.2731 13.0924 28.2614 13.1707 28.2458C13.2491 28.2303 13.3264 28.2108 13.403 28.1877C13.4794 28.1645 13.5544 28.1375 13.6283 28.1071C13.702 28.0764 13.7741 28.0422 13.8447 28.0046C13.9151 27.967 13.9836 27.9259 14.05 27.8816C14.1163 27.8372 14.1804 27.7897 14.2423 27.739C14.304 27.6885 14.3631 27.6348 14.4196 27.5783C14.4761 27.5218 14.5295 27.4628 14.5803 27.401C14.631 27.3391 14.6784 27.2751 14.7228 27.2087C14.7672 27.1424 14.8083 27.0739 14.8459 27.0035C14.8835 26.9329 14.9176 26.8609 14.9483 26.787C14.9788 26.7132 15.0058 26.6381 15.029 26.5617C15.0521 26.4851 15.0714 26.4078 15.087 26.3295C15.1026 26.2512 15.1144 26.1723 15.1221 26.0928C15.13 26.0133 15.1339 25.9334 15.1339 25.8536V21.9512C15.1339 21.9034 15.1362 21.8555 15.141 21.8079C15.1457 21.76 15.1528 21.7128 15.1621 21.6657C15.1713 21.6186 15.1831 21.5723 15.197 21.5264C15.2109 21.4805 15.2271 21.4354 15.2454 21.3912C15.2637 21.3468 15.2842 21.3036 15.3067 21.2614C15.3293 21.2191 15.354 21.178 15.3806 21.1381C15.4072 21.0984 15.4358 21.0598 15.4661 21.0228C15.4965 20.9857 15.5288 20.9502 15.5625 20.9165C15.5965 20.8825 15.632 20.8503 15.669 20.82C15.706 20.7895 15.7444 20.761 15.7844 20.7344C15.8241 20.7078 15.8652 20.6833 15.9074 20.6607C15.9497 20.6379 15.9931 20.6175 16.0372 20.5992C16.0816 20.5808 16.1268 20.5648 16.1725 20.5507C16.2184 20.5368 16.2649 20.5253 16.3119 20.516C16.3588 20.5066 16.4063 20.4996 16.4539 20.4948C16.5016 20.4902 16.5494 20.4878 16.5974 20.4878C16.6773 20.4877 16.7568 20.4838 16.8362 20.4759C16.9157 20.468 16.9946 20.456 17.0729 20.4404C17.1513 20.4248 17.2286 20.4053 17.305 20.3821C17.3814 20.3588 17.4564 20.332 17.5303 20.3013C17.604 20.2708 17.6761 20.2367 17.7465 20.1989C17.817 20.1613 17.8852 20.1202 17.9518 20.0758C18.0181 20.0314 18.0822 19.984 18.1439 19.9333C18.2056 19.8825 18.2647 19.8291 18.3212 19.7726C18.3775 19.716 18.4312 19.657 18.4819 19.5953C18.5324 19.5336 18.5801 19.4695 18.6244 19.4032C18.6688 19.3368 18.7099 19.2683 18.7475 19.1979C18.7851 19.1275 18.8193 19.0554 18.8499 18.9817C18.8806 18.908 18.9074 18.8329 18.9308 18.7566C18.9539 18.68 18.9734 18.6026 18.989 18.5245C19.0046 18.4462 19.0164 18.3673 19.0243 18.2878C19.0322 18.2083 19.0363 18.1287 19.0363 18.0488V13.4707H32.6948C32.7589 13.4707 32.8225 13.4676 32.8862 13.4614C32.9497 13.4551 33.0129 13.4458 33.0756 13.4333C33.1383 13.4207 33.2002 13.4053 33.2614 13.3868C33.3225 13.3682 33.3825 13.3466 33.4416 13.3221C33.5006 13.2978 33.5583 13.2704 33.6146 13.2404C33.6711 13.2103 33.7257 13.1775 33.779 13.142C33.832 13.1065 33.8833 13.0683 33.9327 13.0278C33.9821 12.9873 34.0293 12.9444 34.0747 12.8993C34.1198 12.854 34.1626 12.8067 34.2031 12.7573C34.2438 12.7079 34.2818 12.6566 34.3173 12.6036C34.3528 12.5503 34.3856 12.4958 34.4157 12.4392C34.4458 12.3829 34.4732 12.3252 34.4975 12.2662C34.522 12.2072 34.5436 12.147 34.5621 12.0858C34.5806 12.0247 34.5961 11.9628 34.6086 11.9003C34.6212 11.8376 34.6304 11.7743 34.6368 11.7108C34.643 11.6472 34.646 11.5833 34.646 11.5195V10.2438H35.6217V13.4859C35.6219 13.5347 35.6148 13.5824 35.6007 13.6291C35.5864 13.6757 35.5656 13.7191 35.5382 13.7596C35.5108 13.8 35.4782 13.8355 35.44 13.8659C35.402 13.8964 35.3604 13.9207 35.3148 13.9385L23.1339 18.8111C23.0552 18.8424 22.9776 18.8765 22.9013 18.9136C22.8251 18.9506 22.7504 18.9905 22.6771 19.0332C22.6038 19.0758 22.5322 19.1211 22.4622 19.169C22.3924 19.217 22.3245 19.2676 22.2583 19.3206C22.1921 19.3736 22.1281 19.4292 22.0662 19.4871C22.0043 19.5449 21.9447 19.6051 21.8872 19.6674C21.8297 19.7297 21.7747 19.7942 21.722 19.8605C21.6694 19.9271 21.6192 19.9954 21.5718 20.0656C21.5241 20.1358 21.4794 20.2076 21.4373 20.2813C21.3951 20.3547 21.3557 20.4298 21.3193 20.5064C21.2828 20.5828 21.2491 20.6605 21.2184 20.7396C21.1877 20.8187 21.1599 20.8987 21.1352 20.9797C21.1105 21.0608 21.0889 21.1427 21.0702 21.2255C21.0517 21.3081 21.0363 21.3914 21.0239 21.4753C21.0116 21.5592 21.0023 21.6433 20.9962 21.728C20.9902 21.8125 20.9873 21.8972 20.9877 21.9819V24.4697C20.9167 24.4927 20.848 24.5206 20.7815 24.554C20.7149 24.5874 20.6514 24.6258 20.5907 24.669C20.5301 24.712 20.473 24.7596 20.4198 24.8115C20.3663 24.8634 20.3173 24.9192 20.2724 24.9786C20.2276 25.038 20.1877 25.1005 20.1526 25.1661C20.1173 25.2319 20.0874 25.2998 20.0627 25.37C20.0378 25.4402 20.0187 25.5118 20.0048 25.5851C19.9911 25.6582 19.9832 25.7319 19.9807 25.8063L19.5729 37.984C19.5708 38.0492 19.572 38.1144 19.5762 38.1794C19.5806 38.2446 19.5882 38.3094 19.5992 38.3736C19.61 38.4381 19.6241 38.5017 19.6414 38.5648C19.6586 38.6277 19.679 38.6896 19.7024 38.7506C19.7259 38.8115 19.7523 38.8709 19.7818 38.9292C19.8114 38.9875 19.8436 39.0442 19.8787 39.0992C19.914 39.1541 19.9518 39.2074 19.9921 39.2585C20.0326 39.3098 20.0756 39.3588 20.121 39.4057C20.1665 39.4527 20.2139 39.4971 20.2639 39.5394C20.3137 39.5814 20.3656 39.6209 20.4194 39.658C20.4732 39.6948 20.5288 39.729 20.5861 39.7602C20.6433 39.7917 20.702 39.82 20.7622 39.8455C20.8224 39.8709 20.8835 39.8933 20.9458 39.9126C21.0083 39.9319 21.0714 39.9481 21.1354 39.961C21.1995 39.9742 21.2639 39.9838 21.3287 39.9904C21.3937 39.9967 21.4589 40 21.5241 40H23.3779C23.4431 40 23.5083 39.9967 23.5731 39.9904C23.6381 39.9838 23.7026 39.9742 23.7666 39.961C23.8306 39.9481 23.8937 39.9319 23.956 39.9126C24.0185 39.8933 24.0797 39.8709 24.1399 39.8455C24.1999 39.82 24.2587 39.7917 24.316 39.7602C24.3731 39.729 24.4286 39.6948 24.4825 39.658C24.5365 39.6209 24.5882 39.5814 24.6381 39.5394C24.6879 39.4971 24.7355 39.4527 24.7811 39.4057C24.8264 39.3588 24.8694 39.3098 24.9097 39.2585C24.9502 39.2074 24.9881 39.1543 25.0232 39.0992C25.0585 39.0442 25.0907 38.9875 25.1202 38.9292C25.1497 38.8709 25.1761 38.8115 25.1995 38.7506C25.223 38.6896 25.2435 38.6277 25.2606 38.5648C25.278 38.5017 25.2921 38.4381 25.3029 38.3736C25.3137 38.3094 25.3214 38.2446 25.3258 38.1794C25.3301 38.1144 25.3312 38.0492 25.3291 37.984L24.9213 25.8048C24.9188 25.7297 24.9107 25.6551 24.8966 25.5812C24.8827 25.5073 24.8631 25.435 24.838 25.3642C24.8127 25.2934 24.7822 25.2249 24.7464 25.1588C24.7105 25.0926 24.6698 25.0297 24.6241 24.9699C24.5783 24.9103 24.5284 24.8544 24.4742 24.8023C24.4198 24.7504 24.3617 24.7027 24.3 24.6599C24.2384 24.6169 24.1736 24.5789 24.1061 24.5459C24.0384 24.5131 23.9688 24.4855 23.8968 24.4633V22.4707C23.8966 22.4223 23.9001 22.374 23.9072 22.326C23.9144 22.2782 23.925 22.2309 23.9391 22.1846C23.9531 22.1383 23.9707 22.0932 23.9915 22.0494C24.0124 22.0058 24.0365 21.9637 24.0637 21.9236C24.0909 21.8835 24.1208 21.8455 24.1536 21.81C24.1866 21.7743 24.2219 21.7413 24.2597 21.7108C24.2975 21.6806 24.3372 21.6532 24.3791 21.6289C24.4209 21.6044 24.4645 21.5833 24.5095 21.5654L36.7105 16.6765C36.778 16.6497 36.8443 16.6206 36.9097 16.5887C36.9749 16.5569 37.039 16.5228 37.1019 16.4861C37.1646 16.4497 37.2259 16.4109 37.2857 16.3696C37.3455 16.3285 37.4038 16.2851 37.4603 16.2396C37.517 16.1943 37.5718 16.1466 37.6248 16.097C37.6779 16.0475 37.729 15.9959 37.7782 15.9425C37.8274 15.8891 37.8744 15.8339 37.9196 15.777C37.9647 15.7199 38.0075 15.6615 38.0482 15.6013C38.0889 15.5411 38.1273 15.4796 38.1634 15.4165C38.1995 15.3536 38.2332 15.2892 38.2645 15.2238C38.2957 15.1582 38.3245 15.0914 38.3509 15.0239C38.3771 14.9562 38.4009 14.8875 38.4221 14.8181C38.4431 14.7486 38.4618 14.6784 38.4776 14.6076C38.4937 14.5367 38.5068 14.4655 38.5174 14.3935C38.528 14.3218 38.5359 14.2496 38.5411 14.1771C38.5463 14.1047 38.5488 14.0322 38.5486 13.9595V9.75617C38.5484 9.67631 38.5444 9.59664 38.5365 9.51717C38.5286 9.43769 38.5168 9.3588 38.5012 9.28048C38.4855 9.20216 38.4661 9.12481 38.4429 9.04842C38.4196 8.97203 38.3928 8.89699 38.3621 8.82311C38.3314 8.74942 38.2975 8.67728 38.2597 8.60687C38.222 8.53646 38.181 8.46817 38.1366 8.40181C38.0922 8.33526 38.0448 8.27122 37.994 8.20949C37.9433 8.14796 37.8899 8.08873 37.8333 8.03221C37.7768 7.97589 37.7178 7.92226 37.6561 7.87153C37.5943 7.82099 37.5303 7.77334 37.4639 7.72897C37.3976 7.68461 37.3291 7.64352 37.2587 7.6059C37.1883 7.56829 37.1161 7.53414 37.0425 7.50347C36.9688 7.47299 36.8935 7.44599 36.8171 7.42284C36.7408 7.3995 36.6634 7.38002 36.5851 7.36439C36.5068 7.34877 36.4281 7.337 36.3486 7.32909C36.2691 7.32118 36.1894 7.31713 36.1096 7.31713ZM18.0608 18.0488C18.0608 18.0966 18.0585 18.1445 18.0536 18.1921C18.049 18.24 18.0421 18.2872 18.0326 18.3343C18.0234 18.3814 18.0116 18.4277 17.9977 18.4736C17.9838 18.5195 17.9676 18.5644 17.9493 18.6088C17.931 18.6532 17.9105 18.6964 17.8879 18.7386C17.8654 18.7809 17.8407 18.822 17.8141 18.8619C17.7874 18.9016 17.7589 18.9402 17.7286 18.9772C17.6981 19.0143 17.6661 19.0498 17.6322 19.0835C17.5982 19.1175 17.5627 19.1497 17.5257 19.18C17.4886 19.2105 17.4502 19.239 17.4103 19.2656C17.3706 19.2922 17.3295 19.3167 17.2872 19.3393C17.245 19.3621 17.2016 19.3825 17.1574 19.4008C17.1131 19.4192 17.0679 19.4352 17.0222 19.4493C16.9763 19.4632 16.9298 19.4747 16.8829 19.484C16.8359 19.4934 16.7884 19.5004 16.7408 19.5052C16.6931 19.5098 16.6453 19.5122 16.5974 19.5122C16.5176 19.5123 16.4379 19.5162 16.3584 19.5241C16.279 19.532 16.2001 19.544 16.1217 19.5596C16.0434 19.5752 15.9661 19.5947 15.8897 19.6179C15.8133 19.6412 15.7382 19.668 15.6644 19.6987C15.5907 19.7292 15.5185 19.7633 15.4481 19.8011C15.3777 19.8387 15.3094 19.8798 15.2431 19.9242C15.1765 19.9686 15.1125 20.016 15.0507 20.0667C14.989 20.1175 14.93 20.1709 14.8735 20.2274C14.8171 20.284 14.7635 20.343 14.7128 20.4047C14.6622 20.4664 14.6146 20.5305 14.5702 20.5968C14.5259 20.6632 14.4848 20.7317 14.4472 20.8021C14.4095 20.8725 14.3754 20.9444 14.3447 21.0183C14.3143 21.092 14.2872 21.1671 14.2639 21.2434C14.2408 21.32 14.2213 21.3974 14.2056 21.4755C14.19 21.5538 14.1783 21.6327 14.1703 21.7122C14.1624 21.7917 14.1584 21.8713 14.1584 21.9512V25.8536C14.1584 25.9016 14.1559 25.9495 14.1513 25.9971C14.1466 26.0448 14.1395 26.0922 14.1302 26.1391C14.1208 26.1861 14.1092 26.2326 14.0953 26.2785C14.0814 26.3243 14.0652 26.3694 14.0469 26.4138C14.0286 26.4579 14.0081 26.5012 13.9855 26.5436C13.963 26.5858 13.9383 26.6269 13.9117 26.6667C13.885 26.7066 13.8565 26.745 13.8262 26.782C13.7957 26.8191 13.7635 26.8546 13.7298 26.8885C13.6958 26.9223 13.6603 26.9545 13.6233 26.985C13.5862 27.0152 13.5479 27.0438 13.5079 27.0704C13.468 27.097 13.4271 27.1217 13.3847 27.1443C13.3424 27.1669 13.2992 27.1873 13.2548 27.2056C13.2107 27.224 13.1655 27.2402 13.1198 27.2541C13.0739 27.2679 13.0274 27.2795 12.9803 27.289C12.9335 27.2982 12.886 27.3054 12.8384 27.31C12.7907 27.3148 12.7429 27.3171 12.6948 27.3171C12.647 27.3171 12.5992 27.3148 12.5515 27.31C12.5037 27.3054 12.4564 27.2982 12.4094 27.289C12.3625 27.2795 12.316 27.2679 12.2701 27.2541C12.2242 27.2402 12.1792 27.224 12.1349 27.2056C12.0907 27.1873 12.0473 27.1669 12.005 27.1443C11.9628 27.1217 11.9217 27.097 11.882 27.0704C11.842 27.0438 11.8036 27.0152 11.7666 26.985C11.7296 26.9545 11.6941 26.9223 11.6601 26.8885C11.6262 26.8546 11.5942 26.8191 11.5637 26.782C11.5332 26.745 11.5048 26.7066 11.478 26.6667C11.4514 26.6267 11.4269 26.5858 11.4043 26.5436C11.3818 26.5012 11.3613 26.4579 11.3428 26.4138C11.3245 26.3694 11.3085 26.3243 11.2946 26.2785C11.2807 26.2326 11.2689 26.1861 11.2597 26.1391C11.2502 26.0922 11.2433 26.0448 11.2384 25.9971C11.2338 25.9495 11.2315 25.9016 11.2315 25.8536V21.9512C11.2315 21.8713 11.2276 21.7917 11.2197 21.7122C11.2118 21.6327 11.2002 21.5538 11.1846 21.4753C11.169 21.397 11.1497 21.3196 11.1266 21.2432C11.1032 21.1669 11.0764 21.0916 11.0457 21.0177C11.0153 20.9441 10.9811 20.8719 10.9435 20.8015C10.9059 20.7311 10.8648 20.6626 10.8204 20.5963C10.7761 20.5297 10.7286 20.4657 10.6779 20.4039C10.6271 20.3422 10.5735 20.283 10.5172 20.2267C10.4607 20.1701 10.4014 20.1165 10.3397 20.0658C10.278 20.0152 10.2139 19.9676 10.1476 19.9232C10.081 19.8789 10.0127 19.8378 9.94215 19.8002C9.87174 19.7625 9.79959 19.7284 9.7259 19.6979C9.65202 19.6672 9.57698 19.6404 9.5004 19.6173C9.42401 19.5939 9.34666 19.5747 9.26834 19.559C9.19002 19.5434 9.11093 19.5318 9.03146 19.5239C8.95198 19.5162 8.87232 19.5122 8.79245 19.5122C8.71259 19.5122 8.63293 19.5162 8.55345 19.5239C8.47397 19.5318 8.39508 19.5434 8.31657 19.559C8.23825 19.5747 8.1609 19.5939 8.08451 19.6173C8.00793 19.6404 7.93289 19.6672 7.85901 19.6979C7.78532 19.7284 7.71317 19.7625 7.64276 19.8002C7.57235 19.8378 7.50387 19.8789 7.43732 19.9232C7.37097 19.9676 7.30692 20.0152 7.24519 20.0658C7.18347 20.1165 7.12424 20.1701 7.06772 20.2267C7.0114 20.283 6.95777 20.3422 6.90704 20.4039C6.8563 20.4657 6.80885 20.5297 6.76448 20.5963C6.72012 20.6626 6.67903 20.7311 6.64141 20.8015C6.6038 20.8719 6.56965 20.9441 6.53918 21.0177C6.5085 21.0916 6.48169 21.1667 6.45854 21.2432C6.4352 21.3196 6.41591 21.397 6.40029 21.4753C6.38466 21.5538 6.37309 21.6327 6.36518 21.7122C6.35727 21.7917 6.35341 21.8713 6.35341 21.9512V29.7562C6.35341 29.804 6.3511 29.8519 6.34647 29.8995C6.34164 29.9471 6.3347 29.9946 6.32525 30.0417C6.31599 30.0885 6.30441 30.135 6.29033 30.1809C6.27644 30.2269 6.26043 30.2718 6.24211 30.3162C6.22378 30.3603 6.20314 30.4037 6.18057 30.446C6.158 30.4882 6.1335 30.5293 6.10688 30.5691C6.08026 30.609 6.05171 30.6474 6.02124 30.6844C5.99095 30.7215 5.95874 30.7569 5.92478 30.7909C5.89083 30.8248 5.85553 30.8569 5.8185 30.8873C5.78127 30.9178 5.74288 30.9462 5.70314 30.9728C5.66321 30.9994 5.62212 31.0241 5.57988 31.0467C5.53763 31.0693 5.49442 31.0897 5.45005 31.108C5.40569 31.1265 5.36074 31.1426 5.31483 31.1564C5.26892 31.1703 5.22262 31.1821 5.17556 31.1914C5.12849 31.2008 5.08123 31.2078 5.03339 31.2124C4.98574 31.2172 4.9379 31.2195 4.89006 31.2195C4.84203 31.2195 4.79419 31.2172 4.74654 31.2124C4.6989 31.2078 4.65144 31.2008 4.60457 31.1914C4.5575 31.1821 4.51101 31.1703 4.46529 31.1564C4.41938 31.1426 4.37424 31.1265 4.33007 31.108C4.2857 31.0897 4.24249 31.0693 4.20025 31.0467C4.158 31.0241 4.11691 30.9994 4.07698 30.9728C4.03705 30.9462 3.99867 30.9178 3.96163 30.8873C3.92459 30.8569 3.8891 30.8248 3.85515 30.7909C3.82139 30.7569 3.78918 30.7215 3.7587 30.6844C3.72841 30.6474 3.69986 30.609 3.67324 30.5691C3.64662 30.5293 3.62193 30.4882 3.59936 30.446C3.57679 30.4037 3.55634 30.3603 3.53802 30.3162C3.51969 30.2718 3.50349 30.2269 3.4896 30.1809C3.47571 30.135 3.46414 30.0885 3.45468 30.0417C3.44543 29.9946 3.43829 29.9471 3.43366 29.8995C3.42903 29.8519 3.42652 29.804 3.42652 29.7562V0.975694H29.7681V4.09028H10.4061C10.3422 4.09028 10.2786 4.09336 10.2149 4.09973C10.1513 4.1059 10.0882 4.11535 10.0255 4.1277C9.96279 4.14024 9.90087 4.15567 9.83972 4.17419C9.77857 4.1929 9.71838 4.21431 9.65935 4.23881C9.60032 4.26331 9.54265 4.29051 9.48632 4.3206C9.42999 4.35069 9.37521 4.38349 9.32216 4.41917C9.26892 4.45467 9.21761 4.49267 9.16823 4.53318C9.11884 4.57369 9.07158 4.61651 9.02644 4.66165C8.9813 4.70698 8.93829 4.75424 8.89778 4.80363C8.85727 4.85301 8.81927 4.90432 8.78377 4.95737C8.74828 5.01061 8.71549 5.06539 8.68539 5.12172C8.65511 5.17805 8.62791 5.23573 8.60341 5.29475C8.57891 5.35378 8.5575 5.41397 8.53898 5.47512C8.52046 5.53627 8.50484 5.59819 8.49249 5.66088C8.47995 5.72357 8.4705 5.78665 8.46433 5.85012C8.45796 5.91377 8.45488 5.97762 8.45488 6.04147V6.22878H8.37482C8.30866 6.22878 8.24269 6.23225 8.17691 6.23881C8.11093 6.24537 8.04554 6.25502 7.98073 6.26794C7.91572 6.28106 7.85168 6.29707 7.7884 6.31636C7.72513 6.33565 7.66282 6.35802 7.60168 6.38329C7.54053 6.40876 7.48092 6.43692 7.42247 6.46817C7.36421 6.49942 7.3075 6.53337 7.25233 6.57022C7.19735 6.60706 7.14431 6.64641 7.09319 6.68846C7.04207 6.73032 6.99307 6.77469 6.9462 6.82157C6.89951 6.86844 6.85495 6.91744 6.81309 6.96856C6.77104 7.01968 6.73169 7.07272 6.69485 7.1277C6.658 7.18268 6.62405 7.23939 6.5928 7.29784C6.56155 7.3561 6.53339 7.4159 6.50793 7.47704C6.48266 7.53819 6.46028 7.60031 6.44099 7.66377C6.4217 7.72704 6.40569 7.79109 6.39276 7.8561C6.37965 7.92091 6.37 7.9863 6.36344 8.05228C6.35688 8.11806 6.3536 8.18403 6.35341 8.25019V9.31076C6.3536 9.37693 6.35688 9.4429 6.36344 9.50887C6.37 9.57465 6.37965 9.64005 6.39276 9.70486C6.40569 9.76987 6.4217 9.83391 6.44099 9.89718C6.46028 9.96065 6.48266 10.0228 6.50793 10.0839C6.53339 10.1451 6.56155 10.2049 6.5928 10.2631C6.62405 10.3216 6.658 10.3783 6.69485 10.4333C6.73169 10.4882 6.77104 10.5413 6.81309 10.5924C6.85495 10.6437 6.89951 10.6925 6.9462 10.7394C6.99307 10.7863 7.04207 10.8306 7.09319 10.8727C7.14431 10.9145 7.19735 10.9539 7.25233 10.9907C7.3075 11.0276 7.36421 11.0615 7.42247 11.0928C7.48092 11.124 7.54053 11.1524 7.60168 11.1777C7.66282 11.2031 7.72513 11.2253 7.7884 11.2446C7.85168 11.2639 7.91572 11.2799 7.98073 11.293C8.04554 11.3059 8.11093 11.3158 8.17691 11.3221C8.24269 11.3287 8.30866 11.3322 8.37482 11.3322H8.45488V11.5195C8.45488 11.5833 8.45796 11.6472 8.46433 11.7108C8.4705 11.7743 8.47995 11.8376 8.49249 11.9003C8.50484 11.9628 8.52046 12.0247 8.53898 12.0858C8.5575 12.147 8.57891 12.2072 8.60341 12.2662C8.62791 12.3252 8.65511 12.3829 8.68539 12.4392C8.71549 12.4958 8.74828 12.5503 8.78377 12.6036C8.81927 12.6566 8.85727 12.7079 8.89778 12.7573C8.93829 12.8067 8.9813 12.854 9.02644 12.8993C9.07158 12.9444 9.11884 12.9873 9.16823 13.0278C9.21761 13.0683 9.26892 13.1065 9.32216 13.142C9.37521 13.1775 9.42999 13.2103 9.48632 13.2404C9.54265 13.2704 9.60032 13.2978 9.65935 13.3221C9.71838 13.3466 9.77857 13.3682 9.83972 13.3868C9.90087 13.4053 9.96279 13.4207 10.0255 13.4333C10.0882 13.4458 10.1513 13.4551 10.2149 13.4614C10.2786 13.4676 10.3422 13.4707 10.4061 13.4707H18.0608V18.0488ZM8.45488 10.3567H8.37482C8.34068 10.3565 8.30654 10.3549 8.27239 10.3515C8.23825 10.3482 8.20449 10.3432 8.17093 10.3364C8.13736 10.3297 8.10418 10.3214 8.07139 10.3115C8.0386 10.3015 8.00638 10.2899 7.97475 10.2768C7.94311 10.2637 7.91225 10.249 7.88196 10.233C7.85187 10.2168 7.82235 10.1993 7.794 10.1802C7.76545 10.1611 7.73806 10.1408 7.71163 10.119C7.68501 10.0972 7.65974 10.0743 7.63543 10.0502C7.61132 10.0258 7.58836 10.0006 7.56657 9.97415C7.54496 9.94753 7.52451 9.92014 7.50542 9.89159C7.48651 9.86323 7.46877 9.83391 7.45276 9.80363C7.43655 9.77353 7.42189 9.74248 7.40877 9.71084C7.39566 9.67921 7.38408 9.64699 7.37424 9.6142C7.36421 9.5816 7.35592 9.54823 7.34917 9.51466C7.34261 9.4811 7.33759 9.44734 7.33412 9.41319C7.33084 9.37905 7.32911 9.34491 7.32911 9.31076V8.25019C7.32911 8.21605 7.33084 8.18191 7.33412 8.14776C7.33759 8.11362 7.34261 8.07986 7.34917 8.0463C7.35592 8.01273 7.36421 7.97955 7.37424 7.94676C7.38408 7.91397 7.39566 7.88175 7.40877 7.85012C7.42189 7.81848 7.43655 7.78762 7.45276 7.75733C7.46877 7.72704 7.48651 7.69772 7.50542 7.66937C7.52451 7.64082 7.54496 7.61343 7.56657 7.58681C7.58836 7.56038 7.61132 7.53511 7.63543 7.5108C7.65974 7.48669 7.68501 7.46373 7.71163 7.44194C7.73806 7.42014 7.76545 7.39988 7.794 7.38079C7.82255 7.36169 7.85187 7.34414 7.88196 7.32793C7.91225 7.31192 7.94311 7.29726 7.97475 7.28414C8.00638 7.27103 8.0386 7.25945 8.07139 7.24961C8.10418 7.23958 8.13736 7.23129 8.17093 7.22454C8.20449 7.21779 8.23825 7.21277 8.27239 7.20949C8.30654 7.20602 8.34068 7.20448 8.37482 7.20448H8.45488V10.3567ZM33.6705 11.5195C33.6705 11.5515 33.669 11.5833 33.6659 11.6152C33.6626 11.647 33.658 11.6784 33.6518 11.7099C33.6455 11.7411 33.6377 11.7722 33.6285 11.8027C33.6192 11.8333 33.6084 11.8634 33.5963 11.8929C33.5839 11.9225 33.5704 11.9512 33.5554 11.9794C33.5403 12.0075 33.5239 12.0349 33.5062 12.0615C33.4882 12.0882 33.4693 12.1138 33.4491 12.1385C33.4288 12.1632 33.4074 12.1867 33.3849 12.2093C33.3621 12.2321 33.3386 12.2535 33.3139 12.2737C33.2892 12.294 33.2635 12.3129 33.2369 12.3306C33.2103 12.3484 33.1831 12.3648 33.1547 12.38C33.1266 12.3951 33.0978 12.4086 33.0683 12.4209C33.0388 12.4331 33.0087 12.4439 32.978 12.4531C32.9475 12.4624 32.9165 12.4701 32.8852 12.4765C32.854 12.4826 32.8224 12.4873 32.7905 12.4904C32.7587 12.4936 32.7269 12.4952 32.6948 12.4952H10.4061C10.3742 12.4952 10.3422 12.4936 10.3106 12.4904C10.2788 12.4873 10.2471 12.4826 10.2159 12.4765C10.1844 12.4701 10.1536 12.4624 10.1229 12.4531C10.0924 12.4439 10.0623 12.4331 10.0328 12.4209C10.0033 12.4086 9.97436 12.3951 9.9462 12.38C9.91803 12.3648 9.89064 12.3484 9.86402 12.3306C9.83759 12.3129 9.81194 12.294 9.78725 12.2737C9.76255 12.2535 9.73883 12.2321 9.71626 12.2093C9.69369 12.1867 9.67228 12.1632 9.65202 12.1385C9.63177 12.1138 9.61267 12.0882 9.59492 12.0615C9.57718 12.0349 9.56078 12.0075 9.54573 11.9794C9.53069 11.9512 9.51699 11.9225 9.50484 11.8929C9.49249 11.8634 9.48188 11.8333 9.47243 11.8027C9.46317 11.7722 9.45546 11.7411 9.44928 11.7099C9.44311 11.6784 9.43829 11.647 9.4352 11.6152C9.43212 11.5833 9.43057 11.5515 9.43057 11.5195V6.04147C9.43057 6.00945 9.43212 5.97762 9.4352 5.94579C9.43829 5.91397 9.44311 5.88252 9.44928 5.85108C9.45546 5.81983 9.46317 5.78877 9.47243 5.75829C9.48188 5.72762 9.49249 5.69772 9.50484 5.66821C9.51699 5.6385 9.53069 5.60976 9.54573 5.5816C9.56078 5.55343 9.57718 5.52604 9.59492 5.49942C9.61267 5.4728 9.63177 5.44734 9.65202 5.42245C9.67228 5.39776 9.69369 5.37423 9.71626 5.35166C9.73883 5.32909 9.76255 5.30748 9.78725 5.28723C9.81194 5.26698 9.83759 5.24807 9.86402 5.23032C9.89064 5.21258 9.91803 5.19618 9.9462 5.18113C9.97436 5.1659 10.0033 5.15239 10.0328 5.14005C10.0623 5.12789 10.0924 5.11709 10.1229 5.10783C10.1536 5.09857 10.1844 5.09086 10.2159 5.08468C10.2471 5.07832 10.2788 5.07369 10.3106 5.0706C10.3422 5.06752 10.3742 5.06578 10.4061 5.06578H32.6948C32.7269 5.06578 32.7587 5.06752 32.7905 5.0706C32.8224 5.07369 32.854 5.07832 32.8852 5.08468C32.9165 5.09086 32.9475 5.09857 32.978 5.10783C33.0087 5.11709 33.0388 5.12789 33.0683 5.14005C33.0978 5.15239 33.1266 5.1659 33.1547 5.18113C33.1829 5.19618 33.2103 5.21258 33.2369 5.23032C33.2635 5.24807 33.2892 5.26698 33.3139 5.28723C33.3386 5.30748 33.3621 5.32909 33.3849 5.35166C33.4074 5.37423 33.4288 5.39776 33.4491 5.42245C33.4693 5.44734 33.4882 5.4728 33.506 5.49942C33.5239 5.52604 33.5403 5.55343 33.5554 5.5816C33.5704 5.60976 33.5839 5.6385 33.5963 5.66802C33.6084 5.69772 33.6192 5.72762 33.6285 5.75829C33.6377 5.78877 33.6455 5.81983 33.6518 5.85108C33.658 5.88252 33.6626 5.91397 33.6659 5.94579C33.669 5.97762 33.6705 6.00945 33.6705 6.04147V11.5195ZM24.3534 38.0166C24.3546 38.0492 24.354 38.0818 24.3517 38.1144C24.3496 38.147 24.3457 38.1792 24.3403 38.2114C24.3349 38.2436 24.3278 38.2755 24.3193 38.3069C24.3106 38.3383 24.3004 38.3694 24.2886 38.3999C24.2768 38.4304 24.2637 38.4601 24.2489 38.4892C24.2342 38.5183 24.218 38.5467 24.2004 38.5741C24.1829 38.6017 24.164 38.6281 24.1437 38.6537C24.1235 38.6794 24.1021 38.7039 24.0793 38.7274C24.0565 38.7508 24.0328 38.7731 24.0079 38.7942C23.983 38.8152 23.957 38.8349 23.9302 38.8534C23.9032 38.8719 23.8754 38.8889 23.8469 38.9045C23.8181 38.9203 23.7888 38.9344 23.7587 38.9471C23.7288 38.9599 23.6981 38.9711 23.6669 38.9807C23.6358 38.9904 23.6042 38.9985 23.5722 39.005C23.5401 39.0114 23.5079 39.0162 23.4755 39.0195C23.4431 39.0228 23.4105 39.0245 23.3779 39.0243H21.5241C21.4915 39.0245 21.4589 39.0228 21.4265 39.0195C21.3941 39.0162 21.3619 39.0114 21.3299 39.005C21.2979 38.9985 21.2662 38.9904 21.2352 38.9807C21.2039 38.9711 21.1732 38.9599 21.1431 38.9471C21.1132 38.9344 21.0839 38.9203 21.0552 38.9045C21.0266 38.8889 20.9989 38.8719 20.9719 38.8534C20.945 38.8349 20.919 38.8152 20.8941 38.7942C20.8692 38.773 20.8453 38.7508 20.8227 38.7274C20.8 38.7039 20.7786 38.6794 20.7583 38.6537C20.7381 38.6281 20.7192 38.6017 20.7016 38.5741C20.684 38.5467 20.6678 38.5183 20.6532 38.4892C20.6383 38.4601 20.6252 38.4304 20.6134 38.3999C20.6017 38.3694 20.5915 38.3383 20.5828 38.3069C20.5741 38.2755 20.5671 38.2436 20.5617 38.2114C20.5563 38.1792 20.5525 38.147 20.5502 38.1144C20.548 38.0818 20.5475 38.0492 20.5486 38.0166L20.9545 25.8376C20.9555 25.8061 20.9595 25.7753 20.9665 25.7446C20.9734 25.7141 20.9834 25.6844 20.9962 25.6559C21.0087 25.6271 21.0241 25.5999 21.0421 25.5743C21.06 25.5486 21.0803 25.5249 21.1028 25.5029C21.1254 25.4811 21.1499 25.4618 21.1761 25.4446C21.2024 25.4275 21.2301 25.4132 21.2593 25.4014C21.2882 25.3897 21.3181 25.3808 21.349 25.3748C21.3798 25.3688 21.4109 25.3657 21.4421 25.3659H23.4568C23.4882 25.3657 23.5193 25.3688 23.5502 25.3748C23.5808 25.3808 23.6107 25.3897 23.6399 25.4014C23.669 25.4132 23.6966 25.4275 23.723 25.4446C23.7492 25.4618 23.7737 25.4811 23.7961 25.5029C23.8187 25.5249 23.8389 25.5486 23.8571 25.5743C23.875 25.5999 23.8903 25.6271 23.903 25.6559C23.9157 25.6844 23.9256 25.7141 23.9327 25.7446C23.9396 25.7753 23.9437 25.8061 23.9447 25.8376L24.3534 38.0166ZM37.5729 13.9595C37.5733 14.0565 37.5664 14.153 37.5521 14.2488C37.538 14.3447 37.5168 14.439 37.4886 14.5318C37.4603 14.6246 37.4254 14.7147 37.3835 14.8023C37.3416 14.8897 37.2936 14.9736 37.2394 15.054C37.185 15.1343 37.125 15.2101 37.0592 15.2814C36.9937 15.3526 36.923 15.4188 36.8474 15.4796C36.7718 15.5403 36.6921 15.5951 36.6084 15.6439C36.5247 15.6927 36.4377 15.735 36.3476 15.7706L24.147 20.6595C24.0569 20.6952 23.9701 20.7377 23.8862 20.7865C23.8025 20.8353 23.7228 20.89 23.6472 20.9508C23.5716 21.0116 23.501 21.0775 23.4354 21.1489C23.3696 21.2201 23.3096 21.2959 23.2554 21.3764C23.201 21.4566 23.153 21.5405 23.1111 21.6281C23.0695 21.7155 23.0344 21.8057 23.0062 21.8983C22.9778 21.9911 22.9566 22.0855 22.9425 22.1813C22.9284 22.2774 22.9215 22.3738 22.9217 22.4707V24.3902H21.9632V21.9819C21.9628 21.8607 21.9715 21.74 21.9892 21.62C22.0068 21.5 22.0334 21.3821 22.0687 21.266C22.104 21.1501 22.148 21.0374 22.2001 20.9279C22.2523 20.8185 22.3125 20.7135 22.3804 20.613C22.4485 20.5127 22.5236 20.4178 22.6057 20.3287C22.6879 20.2394 22.7764 20.1568 22.871 20.081C22.9655 20.005 23.0652 19.9365 23.17 19.8756C23.2749 19.8146 23.3837 19.7618 23.4964 19.717L35.6773 14.8449C35.745 14.8181 35.8102 14.7863 35.8731 14.7498C35.936 14.7132 35.996 14.6721 36.0527 14.6265C36.1094 14.5808 36.1624 14.5314 36.2116 14.4778C36.261 14.4244 36.3062 14.3675 36.3469 14.3073C36.3877 14.2469 36.4238 14.184 36.4551 14.1182C36.4865 14.0527 36.5127 13.985 36.534 13.9153C36.5552 13.8459 36.5712 13.7751 36.5818 13.7029C36.5924 13.631 36.5976 13.5586 36.5974 13.4859V10.2438C36.5974 10.212 36.5957 10.1802 36.5926 10.1483C36.5895 10.1165 36.5849 10.0849 36.5785 10.0536C36.5724 10.0222 36.5646 9.99132 36.5554 9.96065C36.5461 9.93017 36.5353 9.90008 36.5232 9.87056C36.5108 9.84105 36.4971 9.81211 36.4821 9.78395C36.467 9.75579 36.4506 9.7284 36.4329 9.70197C36.4151 9.67535 36.3962 9.64969 36.376 9.625C36.3555 9.60031 36.3341 9.57658 36.3116 9.55401C36.289 9.53144 36.2653 9.51003 36.2406 9.48978C36.2159 9.46952 36.1904 9.45042 36.1638 9.43268C36.1372 9.41493 36.1098 9.39853 36.0816 9.38349C36.0535 9.36844 36.0245 9.35475 35.995 9.34259C35.9655 9.33025 35.9356 9.31964 35.9049 9.31038C35.8744 9.30112 35.8434 9.29321 35.8121 9.28704C35.7807 9.28086 35.7492 9.27604 35.7174 9.27296C35.6856 9.26987 35.6538 9.26833 35.6217 9.26833H34.646V8.29263H36.1096C36.1574 8.29263 36.2053 8.29495 36.2529 8.29977C36.3007 8.3044 36.348 8.31154 36.3951 8.32079C36.442 8.33025 36.4884 8.34182 36.5344 8.35571C36.5803 8.3696 36.6252 8.3858 36.6696 8.40413C36.7138 8.42245 36.7572 8.4429 36.7994 8.46547C36.8416 8.48804 36.8827 8.51273 36.9225 8.53935C36.9624 8.56597 37.0008 8.59452 37.0378 8.62481C37.0751 8.65529 37.1104 8.6875 37.1443 8.72126C37.1783 8.75521 37.2103 8.7907 37.2408 8.82774C37.2712 8.86478 37.2998 8.90316 37.3264 8.94309C37.353 8.98283 37.3775 9.02392 37.4001 9.06617C37.4227 9.1086 37.4433 9.15181 37.4616 9.19599C37.48 9.24036 37.496 9.28549 37.5099 9.33121C37.5239 9.37712 37.5355 9.42361 37.5448 9.47068C37.5542 9.51755 37.5612 9.56501 37.566 9.61265C37.5706 9.6603 37.5729 9.70814 37.5729 9.75617V13.9595Z" fill="#39A154"/>
<path d="M36.0372 7.74107H34.6226V6.50805C34.6226 6.44634 34.6196 6.38462 34.6136 6.32309C34.6074 6.26175 34.5985 6.20078 34.5864 6.14018C34.5743 6.07958 34.5593 6.01973 34.5414 5.96063C34.5235 5.90152 34.5027 5.84335 34.479 5.78629C34.4555 5.72924 34.429 5.67349 34.3999 5.61904C34.3708 5.5646 34.3391 5.51165 34.3048 5.46018C34.2705 5.40891 34.2338 5.35931 34.1945 5.31158C34.1553 5.26385 34.1139 5.21817 34.0703 5.17435C34.0265 5.13072 33.9808 5.08933 33.933 5.05017C33.8853 5.01102 33.8357 4.97429 33.7844 4.93998C33.733 4.90549 33.6802 4.87379 33.6258 4.8447C33.5711 4.81561 33.5154 4.78932 33.4583 4.76565C33.4013 4.74197 33.3433 4.72127 33.2842 4.70318C33.2251 4.68528 33.1652 4.67037 33.1046 4.65825C33.044 4.64632 32.9829 4.63718 32.9215 4.63121C32.86 4.62506 32.7985 4.62208 32.7366 4.62208H30.8506V1.14006C30.8506 1.10911 30.8476 1.07834 30.8416 1.04795C30.8355 1.01775 30.8265 0.988099 30.8148 0.959572C30.8029 0.931044 30.7883 0.903822 30.7712 0.878092C30.754 0.852361 30.7344 0.828495 30.7124 0.80668C30.6906 0.784679 30.6668 0.765101 30.641 0.747947C30.6153 0.730794 30.5881 0.71625 30.5595 0.704317C30.531 0.692571 30.5016 0.683621 30.4712 0.677654C30.4408 0.671501 30.41 0.668518 30.3791 0.668518H3.9752C3.94425 0.668518 3.91349 0.671501 3.88309 0.677654C3.85289 0.683621 3.82324 0.692571 3.79472 0.704317C3.76619 0.71625 3.73897 0.730794 3.71324 0.747947C3.68751 0.765101 3.66364 0.784679 3.64182 0.80668C3.61982 0.828495 3.60024 0.852361 3.58309 0.878092C3.56594 0.903822 3.55139 0.931044 3.53946 0.959572C3.52771 0.988099 3.51876 1.01775 3.5128 1.04795C3.50665 1.07834 3.50366 1.10911 3.50366 1.14006V29.4301C3.50366 29.5073 3.50739 29.5843 3.51504 29.6611C3.52249 29.7379 3.53387 29.8142 3.54897 29.8899C3.56407 29.9656 3.58272 30.0405 3.60509 30.1144C3.62765 30.1882 3.65357 30.2609 3.68303 30.3321C3.71268 30.4035 3.74568 30.4733 3.78204 30.5413C3.8184 30.6094 3.85811 30.6756 3.90099 30.7397C3.94388 30.8039 3.98975 30.866 4.03878 30.9256C4.08782 30.9853 4.13947 31.0423 4.1941 31.097C4.24873 31.1516 4.30597 31.2034 4.36564 31.2523C4.4253 31.3013 4.4872 31.3474 4.55134 31.3903C4.61567 31.4331 4.68167 31.4727 4.74992 31.5092C4.81797 31.5456 4.88771 31.5786 4.95893 31.608C5.03034 31.6377 5.10287 31.6636 5.17671 31.686C5.25073 31.7084 5.3255 31.7272 5.4012 31.7423C5.4769 31.7572 5.55316 31.7686 5.63016 31.7762C5.70698 31.7837 5.78399 31.7874 5.86118 31.7876C5.93837 31.7874 6.01538 31.7837 6.09219 31.7762C6.16901 31.7686 6.24527 31.7572 6.32116 31.7423C6.39686 31.7272 6.47163 31.7084 6.54546 31.686C6.6193 31.6636 6.69202 31.6377 6.76324 31.608C6.83465 31.5786 6.90439 31.5456 6.97244 31.5092C7.0405 31.4727 7.10669 31.4331 7.17083 31.3903C7.23515 31.3474 7.29706 31.3013 7.35672 31.2523C7.41639 31.2034 7.47363 31.1516 7.52807 31.097C7.5827 31.0423 7.63454 30.9853 7.68357 30.9256C7.73243 30.866 7.77848 30.8039 7.82136 30.7397C7.86425 30.6756 7.90396 30.6094 7.94032 30.5413C7.97668 30.4733 8.00968 30.4035 8.03914 30.3321C8.06879 30.2609 8.0947 30.1882 8.11708 30.1144C8.13945 30.0405 8.15829 29.9656 8.17339 29.8899C8.18849 29.8142 8.19968 29.7379 8.20732 29.6611C8.21478 29.5843 8.2187 29.5073 8.2187 29.4301V21.886C8.2187 21.8397 8.22093 21.7935 8.22541 21.7474C8.23007 21.7012 8.23678 21.6555 8.24573 21.61C8.25487 21.5645 8.26606 21.5198 8.27948 21.4754C8.29309 21.431 8.30857 21.3874 8.32628 21.3447C8.34399 21.3018 8.36376 21.2601 8.38576 21.2192C8.40757 21.1784 8.43125 21.1387 8.45698 21.1001C8.48271 21.0617 8.51031 21.0244 8.53977 20.9886C8.56904 20.9528 8.60018 20.9185 8.633 20.8858C8.66562 20.853 8.69993 20.8219 8.73573 20.7926C8.77153 20.7632 8.80882 20.7356 8.84723 20.7098C8.88583 20.6841 8.92554 20.6604 8.96637 20.6386C9.00721 20.6166 9.04897 20.5968 9.09186 20.5791C9.13456 20.5614 9.17819 20.5459 9.22256 20.5323C9.26694 20.5189 9.31169 20.5077 9.35718 20.4988C9.40268 20.4896 9.44836 20.4829 9.49441 20.4783C9.54065 20.4738 9.58689 20.4715 9.63313 20.4715C9.67956 20.4715 9.72561 20.4738 9.77185 20.4783C9.81791 20.4829 9.86359 20.4896 9.90908 20.4988C9.95458 20.5077 9.99933 20.5189 10.0437 20.5323C10.0881 20.5459 10.1317 20.5614 10.1744 20.5791C10.2173 20.5968 10.2591 20.6166 10.2999 20.6386C10.3407 20.6604 10.3804 20.6841 10.419 20.7098C10.4574 20.7356 10.4947 20.7632 10.5305 20.7926C10.5663 20.8219 10.6006 20.853 10.6333 20.8858C10.6661 20.9185 10.6972 20.9528 10.7265 20.9886C10.756 21.0244 10.7835 21.0617 10.8093 21.1001C10.835 21.1387 10.8587 21.1784 10.8807 21.2192C10.9025 21.2601 10.9223 21.3018 10.94 21.3447C10.9577 21.3874 10.9734 21.431 10.9868 21.4754C11.0002 21.5198 11.0114 21.5645 11.0205 21.61C11.0295 21.6555 11.0364 21.7012 11.0409 21.7474C11.0453 21.7935 11.0476 21.8397 11.0476 21.886V25.6579C11.0476 25.7351 11.0515 25.8123 11.0589 25.8891C11.0666 25.966 11.078 26.0422 11.0929 26.1179C11.108 26.1936 11.1268 26.2684 11.1492 26.3424C11.1716 26.4162 11.1975 26.4888 11.2271 26.5602C11.2566 26.6316 11.2896 26.7011 11.3259 26.7694C11.3625 26.8374 11.402 26.9036 11.4449 26.9678C11.4878 27.0319 11.5338 27.0938 11.5827 27.1537C11.6317 27.2133 11.6836 27.2704 11.7382 27.325C11.7928 27.3796 11.8499 27.4315 11.9095 27.4803C11.9692 27.5294 12.0311 27.5752 12.0954 27.6181C12.1596 27.661 12.2258 27.7007 12.2938 27.7371C12.3619 27.7734 12.4316 27.8064 12.503 27.8361C12.5742 27.8655 12.647 27.8916 12.7208 27.914C12.7946 27.9364 12.8694 27.9552 12.9453 27.9701C13.021 27.9852 13.0972 27.9966 13.1741 28.0041C13.2509 28.0117 13.3279 28.0155 13.4051 28.0155C13.4823 28.0155 13.5595 28.0117 13.6363 28.0041C13.7131 27.9966 13.7894 27.9852 13.8651 27.9701C13.9408 27.9552 14.0155 27.9364 14.0896 27.914C14.1634 27.8916 14.2359 27.8655 14.3073 27.8361C14.3786 27.8064 14.4483 27.7734 14.5165 27.7371C14.5846 27.7007 14.6508 27.661 14.7149 27.6181C14.7791 27.5752 14.841 27.5294 14.9008 27.4803C14.9605 27.4315 15.0175 27.3796 15.0722 27.325C15.1268 27.2704 15.1784 27.2133 15.2275 27.1537C15.2765 27.0938 15.3224 27.0319 15.3653 26.9678C15.4082 26.9036 15.4479 26.8374 15.4842 26.7694C15.5206 26.7011 15.5536 26.6316 15.5832 26.5602C15.6127 26.4888 15.6388 26.4162 15.6612 26.3424C15.6835 26.2684 15.7022 26.1936 15.7173 26.1179C15.7324 26.0422 15.7438 25.966 15.7512 25.8891C15.7589 25.8123 15.7626 25.7351 15.7626 25.6579V21.886C15.7626 21.8397 15.7648 21.7935 15.7695 21.7474C15.774 21.7012 15.7809 21.6555 15.7898 21.61C15.7988 21.5645 15.8101 21.5198 15.8236 21.4754C15.837 21.431 15.8527 21.3874 15.8704 21.3447C15.8881 21.3018 15.9078 21.2601 15.9297 21.2192C15.9515 21.1784 15.9753 21.1387 16.0011 21.1001C16.0268 21.0617 16.0544 21.0244 16.0837 20.9886C16.1131 20.9528 16.1443 20.9185 16.1769 20.8858C16.2097 20.853 16.244 20.8219 16.2798 20.7926C16.3156 20.7632 16.3527 20.7356 16.3913 20.7098C16.4297 20.6841 16.4694 20.6604 16.5103 20.6386C16.5511 20.6166 16.5931 20.5968 16.6358 20.5791C16.6786 20.5614 16.7223 20.5459 16.7665 20.5323C16.8108 20.5189 16.8558 20.5077 16.9013 20.4988C16.9466 20.4896 16.9924 20.4829 17.0385 20.4783C17.0846 20.4738 17.1308 20.4715 17.1772 20.4715C17.2544 20.4714 17.3312 20.4676 17.4081 20.46C17.4849 20.4523 17.5611 20.4408 17.6368 20.4257C17.7125 20.4106 17.7873 20.3917 17.8611 20.3694C17.935 20.3468 18.0075 20.3209 18.0789 20.2912C18.1501 20.2618 18.2199 20.2288 18.2879 20.1922C18.356 20.1559 18.422 20.1162 18.4863 20.0733C18.5505 20.0304 18.6124 19.9845 18.672 19.9355C18.7317 19.8865 18.7887 19.8348 18.8434 19.7802C18.8978 19.7255 18.9496 19.6685 18.9987 19.6088C19.0475 19.5492 19.0936 19.4873 19.1365 19.4231C19.1794 19.359 19.2191 19.2928 19.2554 19.2247C19.2918 19.1567 19.3248 19.0869 19.3544 19.0157C19.3841 18.9445 19.41 18.872 19.4326 18.7981C19.4549 18.7241 19.4738 18.6493 19.4889 18.5738C19.504 18.4981 19.5153 18.4219 19.523 18.345C19.5306 18.2682 19.5346 18.1912 19.5346 18.114V13.6889H32.7366C32.7985 13.6889 32.86 13.6859 32.9215 13.68C32.9829 13.6738 33.044 13.6649 33.1046 13.6528C33.1652 13.6406 33.2251 13.6257 33.2842 13.6078C33.3433 13.5899 33.4013 13.569 33.4583 13.5454C33.5154 13.5219 33.5711 13.4954 33.6256 13.4663C33.6802 13.4372 33.733 13.4055 33.7844 13.3712C33.8357 13.3369 33.8853 13.3 33.933 13.2608C33.9808 13.2217 34.0265 13.1803 34.0703 13.1367C34.1139 13.0928 34.1553 13.0472 34.1945 12.9994C34.2338 12.9517 34.2705 12.9021 34.3048 12.8508C34.3391 12.7994 34.3708 12.7466 34.3999 12.692C34.429 12.6375 34.4555 12.5818 34.479 12.5247C34.5027 12.4677 34.5235 12.4095 34.5414 12.3504C34.5593 12.2913 34.5743 12.2314 34.5864 12.171C34.5985 12.1104 34.6074 12.0493 34.6136 11.9879C34.6196 11.9264 34.6226 11.8647 34.6226 11.803V10.5699H35.5656V13.7037C35.5658 13.7508 35.5589 13.7969 35.5453 13.842C35.5315 13.8871 35.5114 13.9291 35.4849 13.9682C35.4584 14.0072 35.4269 14.0415 35.39 14.071C35.3533 14.1004 35.313 14.1239 35.269 14.1411L23.4952 18.8509C23.4191 18.8811 23.3442 18.9141 23.2703 18.9499C23.1967 18.9857 23.1245 19.0243 23.0537 19.0655C22.9828 19.1067 22.9136 19.1505 22.846 19.1968C22.7785 19.2432 22.7128 19.292 22.6489 19.3433C22.5849 19.3946 22.523 19.4483 22.4632 19.5042C22.4033 19.5602 22.3457 19.6183 22.2901 19.6786C22.2346 19.7388 22.1814 19.8011 22.1305 19.8652C22.0796 19.9295 22.0312 19.9955 21.9853 20.0634C21.9392 20.1313 21.896 20.2006 21.8553 20.2719C21.8145 20.3429 21.7765 20.4154 21.7412 20.4894C21.706 20.5633 21.6734 20.6384 21.6437 20.7149C21.6141 20.7913 21.5872 20.8687 21.5634 20.947C21.5395 21.0253 21.5186 21.1046 21.5005 21.1845C21.4826 21.2643 21.4677 21.3449 21.4558 21.426C21.4438 21.5071 21.4349 21.5884 21.4289 21.6703C21.4231 21.7519 21.4203 21.8338 21.4207 21.9156V24.3203C21.3521 24.3425 21.2857 24.3695 21.2214 24.4018C21.1571 24.4341 21.0957 24.4712 21.037 24.5129C20.9784 24.5545 20.9233 24.6006 20.8718 24.6507C20.8201 24.7009 20.7728 24.7548 20.7293 24.8122C20.6861 24.8696 20.6475 24.93 20.6136 24.9934C20.5794 25.057 20.5505 25.1226 20.5267 25.1905C20.5026 25.2584 20.4842 25.3275 20.4707 25.3984C20.4575 25.4691 20.4499 25.5403 20.4474 25.6123L20.0533 37.3829C20.0512 37.4459 20.0523 37.5089 20.0564 37.5718C20.0607 37.6348 20.068 37.6974 20.0786 37.7595C20.0891 37.8218 20.1027 37.8833 20.1195 37.9443C20.1361 38.0051 20.1558 38.0649 20.1784 38.1238C20.2011 38.1828 20.2267 38.2402 20.2552 38.2965C20.2837 38.3528 20.3149 38.4076 20.3488 38.4608C20.3829 38.5139 20.4195 38.5654 20.4584 38.6148C20.4976 38.6644 20.5392 38.7117 20.583 38.757C20.627 38.8025 20.6729 38.8454 20.7211 38.8862C20.7692 38.9269 20.8194 38.9651 20.8714 39.0009C20.9234 39.0365 20.9771 39.0695 21.0325 39.0997C21.0879 39.1301 21.1446 39.1575 21.2028 39.1821C21.2609 39.2068 21.32 39.2284 21.3803 39.247C21.4407 39.2657 21.5016 39.2813 21.5635 39.2938C21.6254 39.3065 21.6877 39.3158 21.7504 39.3222C21.8132 39.3283 21.8762 39.3315 21.9392 39.3315H23.7311C23.7941 39.3315 23.8571 39.3283 23.9198 39.3222C23.9826 39.3158 24.0449 39.3065 24.1068 39.2938C24.1687 39.2813 24.2296 39.2657 24.2899 39.247C24.3503 39.2284 24.4094 39.2068 24.4676 39.1821C24.5255 39.1575 24.5824 39.1301 24.6378 39.0997C24.693 39.0695 24.7467 39.0365 24.7987 39.0009C24.8509 38.9651 24.9009 38.9269 24.9492 38.8862C24.9973 38.8454 25.0433 38.8025 25.0873 38.757C25.1311 38.7117 25.1727 38.6644 25.2117 38.6148C25.2508 38.5654 25.2874 38.5141 25.3213 38.4608C25.3554 38.4076 25.3866 38.3528 25.4151 38.2965C25.4436 38.2402 25.4692 38.1828 25.4917 38.1238C25.5145 38.0649 25.5343 38.0051 25.5508 37.9443C25.5676 37.8833 25.5812 37.8218 25.5917 37.7595C25.6021 37.6974 25.6096 37.6348 25.6139 37.5718C25.618 37.5089 25.6191 37.4459 25.617 37.3829L25.2229 25.6108C25.2205 25.5382 25.2126 25.4661 25.199 25.3947C25.1856 25.3233 25.1666 25.2533 25.1423 25.1849C25.1179 25.1165 25.0884 25.0503 25.0538 24.9863C25.0191 24.9224 24.9797 24.8616 24.9355 24.8038C24.8914 24.7462 24.8431 24.6921 24.7907 24.6418C24.7381 24.5916 24.682 24.5456 24.6223 24.5042C24.5628 24.4626 24.5002 24.4259 24.4349 24.394C24.3695 24.3623 24.3022 24.3356 24.2326 24.3142V22.3881C24.2324 22.3413 24.2358 22.2947 24.2427 22.2483C24.2496 22.202 24.2598 22.1563 24.2735 22.1116C24.2871 22.0668 24.304 22.0232 24.3242 21.9809C24.3443 21.9388 24.3676 21.8981 24.3939 21.8593C24.4202 21.8205 24.4491 21.7838 24.4808 21.7495C24.5127 21.715 24.5468 21.6831 24.5833 21.6537C24.6199 21.6244 24.6583 21.5979 24.6988 21.5744C24.7392 21.5507 24.7814 21.5304 24.8248 21.5131L36.618 16.7876C36.6832 16.7617 36.7474 16.7335 36.8106 16.7028C36.8736 16.672 36.9355 16.639 36.9963 16.6036C37.0569 16.5683 37.1162 16.5309 37.174 16.491C37.2318 16.4512 37.2881 16.4093 37.3427 16.3653C37.3975 16.3215 37.4505 16.2754 37.5018 16.2275C37.553 16.1796 37.6024 16.1298 37.65 16.0781C37.6975 16.0265 37.743 15.9732 37.7867 15.9182C37.8303 15.863 37.8717 15.8065 37.911 15.7483C37.9504 15.6901 37.9875 15.6307 38.0223 15.5697C38.0572 15.5089 38.0898 15.4466 38.12 15.3834C38.1502 15.32 38.178 15.2555 38.2036 15.1903C38.2289 15.1248 38.2519 15.0584 38.2724 14.9913C38.2927 14.9242 38.3108 14.8563 38.3261 14.7879C38.3416 14.7193 38.3542 14.6505 38.3645 14.5809C38.3747 14.5116 38.3824 14.4418 38.3874 14.3717C38.3925 14.3018 38.3949 14.2317 38.3947 14.1614V10.0986C38.3945 10.0214 38.3906 9.94439 38.3829 9.86757C38.3753 9.79075 38.3639 9.71449 38.3488 9.63879C38.3337 9.56309 38.3149 9.48832 38.2925 9.41449C38.27 9.34065 38.244 9.26812 38.2144 9.19671C38.1847 9.12549 38.1519 9.05575 38.1154 8.9877C38.079 8.91964 38.0393 8.85364 37.9964 8.7895C37.9535 8.72517 37.9077 8.66327 37.8586 8.6036C37.8096 8.54412 37.758 8.48688 37.7033 8.43225C37.6487 8.37781 37.5916 8.32597 37.532 8.27694C37.4723 8.22809 37.4104 8.18203 37.3463 8.13915C37.2821 8.09626 37.2159 8.05655 37.1479 8.02019C37.0798 7.98383 37.0101 7.95083 36.9389 7.92118C36.8676 7.89172 36.7949 7.86562 36.7211 7.84325C36.6472 7.82068 36.5725 7.80185 36.4968 7.78675C36.4211 7.77165 36.345 7.76027 36.2682 7.75263C36.1914 7.74498 36.1144 7.74107 36.0372 7.74107ZM18.5917 18.114C18.5917 18.1603 18.5894 18.2065 18.5848 18.2526C18.5803 18.2988 18.5736 18.3445 18.5644 18.39C18.5555 18.4355 18.5441 18.4802 18.5307 18.5246C18.5173 18.569 18.5016 18.6124 18.4839 18.6553C18.4662 18.6982 18.4464 18.74 18.4246 18.7808C18.4028 18.8216 18.3789 18.8613 18.3532 18.8999C18.3275 18.9383 18.2999 18.9756 18.2706 19.0114C18.2411 19.0472 18.2102 19.0815 18.1774 19.1142C18.1445 19.147 18.1102 19.1781 18.0744 19.2074C18.0386 19.2369 18.0015 19.2644 17.9629 19.2902C17.9245 19.3159 17.8848 19.3396 17.844 19.3614C17.8031 19.3834 17.7612 19.4032 17.7185 19.4209C17.6756 19.4386 17.632 19.4541 17.5878 19.4677C17.5434 19.4811 17.4985 19.4923 17.4532 19.5012C17.4077 19.5104 17.3618 19.5171 17.3158 19.5218C17.2697 19.5262 17.2235 19.5285 17.1772 19.5285C17.1 19.5287 17.023 19.5324 16.9462 19.54C16.8694 19.5477 16.7931 19.5592 16.7174 19.5743C16.6417 19.5894 16.567 19.6083 16.4931 19.6306C16.4193 19.6532 16.3468 19.6791 16.2753 19.7088C16.2041 19.7382 16.1344 19.7712 16.0663 19.8078C15.9983 19.8441 15.9323 19.8838 15.8681 19.9267C15.8038 19.9696 15.7419 20.0155 15.6822 20.0645C15.6226 20.1136 15.5655 20.1652 15.5109 20.2198C15.4564 20.2745 15.4046 20.3315 15.3556 20.3912C15.3067 20.4509 15.2607 20.5128 15.2178 20.5769C15.1749 20.641 15.1352 20.7072 15.0988 20.7753C15.0625 20.8433 15.0295 20.9129 14.9998 20.9843C14.9704 21.0555 14.9443 21.1281 14.9217 21.2019C14.8993 21.2759 14.8805 21.3507 14.8654 21.4262C14.8503 21.5019 14.8389 21.5781 14.8313 21.655C14.8236 21.7318 14.8197 21.8088 14.8197 21.886V25.6579C14.8197 25.7044 14.8173 25.7506 14.8128 25.7967C14.8083 25.8427 14.8014 25.8886 14.7925 25.9339C14.7833 25.9794 14.7722 26.0243 14.7587 26.0687C14.7453 26.1129 14.7296 26.1565 14.7119 26.1994C14.6942 26.2421 14.6745 26.2839 14.6526 26.3249C14.6308 26.3657 14.607 26.4054 14.5812 26.4438C14.5555 26.4824 14.5279 26.5195 14.4986 26.5553C14.4692 26.5911 14.438 26.6254 14.4054 26.6583C14.3726 26.6909 14.3383 26.722 14.3025 26.7515C14.2667 26.7808 14.2296 26.8084 14.191 26.8341C14.1524 26.8598 14.1129 26.8837 14.0718 26.9055C14.031 26.9273 13.9892 26.9471 13.9464 26.9648C13.9037 26.9825 13.86 26.9982 13.8158 27.0116C13.7715 27.025 13.7265 27.0362 13.681 27.0453C13.6357 27.0543 13.5899 27.0612 13.5438 27.0657C13.4978 27.0703 13.4515 27.0726 13.4051 27.0726C13.3588 27.0726 13.3126 27.0703 13.2665 27.0657C13.2203 27.0612 13.1746 27.0543 13.1291 27.0453C13.0838 27.0362 13.0389 27.025 12.9945 27.0116C12.9501 26.9982 12.9067 26.9825 12.8638 26.9648C12.8211 26.9471 12.7792 26.9273 12.7383 26.9055C12.6975 26.8837 12.6578 26.8598 12.6194 26.8341C12.5808 26.8084 12.5437 26.7808 12.5079 26.7515C12.4721 26.722 12.4378 26.6909 12.4049 26.6583C12.3721 26.6254 12.3412 26.5911 12.3117 26.5553C12.2823 26.5195 12.2549 26.4824 12.2289 26.4438C12.2032 26.4052 12.1795 26.3657 12.1577 26.3249C12.1359 26.2839 12.1161 26.2421 12.0982 26.1994C12.0805 26.1565 12.065 26.1129 12.0516 26.0687C12.0382 26.0243 12.0268 25.9794 12.0179 25.9339C12.0087 25.8886 12.002 25.8427 11.9974 25.7967C11.9929 25.7506 11.9906 25.7044 11.9906 25.6579V21.886C11.9906 21.8088 11.9869 21.7318 11.9793 21.655C11.9716 21.5781 11.9604 21.5019 11.9453 21.426C11.9302 21.3503 11.9116 21.2755 11.8892 21.2017C11.8667 21.1279 11.8407 21.0551 11.8111 20.9837C11.7816 20.9125 11.7486 20.8428 11.7123 20.7747C11.6759 20.7067 11.6362 20.6405 11.5933 20.5763C11.5504 20.512 11.5046 20.4501 11.4555 20.3904C11.4065 20.3308 11.3547 20.2735 11.3002 20.2191C11.2456 20.1645 11.1883 20.1126 11.1287 20.0636C11.069 20.0147 11.0071 19.9687 10.943 19.9258C10.8786 19.8829 10.8126 19.8432 10.7444 19.8068C10.6763 19.7705 10.6066 19.7375 10.5354 19.708C10.464 19.6784 10.3914 19.6525 10.3174 19.6301C10.2436 19.6075 10.1688 19.5889 10.0931 19.5738C10.0174 19.5587 9.94097 19.5475 9.86415 19.5398C9.78733 19.5324 9.71032 19.5285 9.63313 19.5285C9.55594 19.5285 9.47893 19.5324 9.40212 19.5398C9.3253 19.5475 9.24904 19.5587 9.17315 19.5738C9.09745 19.5889 9.02268 19.6075 8.94885 19.6301C8.87483 19.6525 8.8023 19.6784 8.73088 19.708C8.65966 19.7375 8.58992 19.7705 8.52187 19.8068C8.45381 19.8432 8.38762 19.8829 8.3233 19.9258C8.25916 19.9687 8.19725 20.0147 8.13759 20.0636C8.07792 20.1126 8.02068 20.1645 7.96605 20.2191C7.91161 20.2735 7.85977 20.3308 7.81074 20.3904C7.7617 20.4501 7.71583 20.512 7.67295 20.5763C7.63006 20.6405 7.59035 20.7067 7.55399 20.7747C7.51763 20.8428 7.48463 20.9125 7.45517 20.9837C7.42552 21.0551 7.39961 21.1277 7.37723 21.2017C7.35467 21.2755 7.33603 21.3503 7.32092 21.426C7.30582 21.5019 7.29463 21.5781 7.28699 21.655C7.27934 21.7318 7.27561 21.8088 7.27561 21.886V29.4301C7.27561 29.4763 7.27338 29.5226 7.2689 29.5686C7.26424 29.6147 7.25753 29.6605 7.24839 29.706C7.23944 29.7513 7.22826 29.7963 7.21464 29.8406C7.20122 29.885 7.18574 29.9285 7.16803 29.9714C7.15032 30.014 7.13037 30.056 7.10855 30.0968C7.08674 30.1377 7.06306 30.1774 7.03733 30.2158C7.0116 30.2544 6.984 30.2915 6.95454 30.3273C6.92527 30.3631 6.89413 30.3974 6.86132 30.4302C6.8285 30.463 6.79438 30.494 6.75858 30.5234C6.72259 30.5529 6.68549 30.5803 6.64708 30.606C6.60848 30.6318 6.56877 30.6556 6.52794 30.6774C6.4871 30.6993 6.44534 30.719 6.40245 30.7367C6.35957 30.7546 6.31613 30.7701 6.27175 30.7835C6.22737 30.797 6.18262 30.8083 6.13713 30.8173C6.09164 30.8264 6.04595 30.8331 5.99971 30.8376C5.95366 30.8423 5.90742 30.8445 5.86118 30.8445C5.81475 30.8445 5.76851 30.8423 5.72246 30.8376C5.6764 30.8331 5.63054 30.8264 5.58523 30.8173C5.53973 30.8083 5.4948 30.797 5.45061 30.7835C5.40623 30.7701 5.3626 30.7546 5.3199 30.7367C5.27702 30.719 5.23525 30.6993 5.19442 30.6774C5.15359 30.6556 5.11387 30.6318 5.07528 30.606C5.03668 30.5803 4.99958 30.5529 4.96378 30.5234C4.92798 30.494 4.89367 30.463 4.86086 30.4302C4.82823 30.3974 4.79709 30.3631 4.76763 30.3273C4.73836 30.2915 4.71076 30.2544 4.68503 30.2158C4.6593 30.1774 4.63543 30.1377 4.61362 30.0968C4.5918 30.056 4.57204 30.014 4.55433 29.9714C4.53661 29.9285 4.52095 29.885 4.50753 29.8406C4.4941 29.7963 4.48292 29.7513 4.47378 29.706C4.46483 29.6605 4.45793 29.6147 4.45346 29.5686C4.44898 29.5226 4.44656 29.4763 4.44656 29.4301V1.6116H29.9077V4.62208H11.1928C11.1311 4.62208 11.0696 4.62506 11.008 4.63121C10.9465 4.63718 10.8855 4.64632 10.8249 4.65825C10.7643 4.67037 10.7045 4.68528 10.6454 4.70318C10.5863 4.72127 10.5281 4.74197 10.4711 4.76565C10.414 4.78932 10.3582 4.81561 10.3038 4.8447C10.2494 4.87379 10.1964 4.90549 10.1451 4.93998C10.0937 4.97429 10.0441 5.01102 9.99634 5.05017C9.94861 5.08933 9.90293 5.13072 9.8593 5.17435C9.81567 5.21817 9.77409 5.26385 9.73494 5.31158C9.69578 5.35931 9.65905 5.40891 9.62474 5.46018C9.59043 5.51165 9.55874 5.5646 9.52965 5.61904C9.50038 5.67349 9.47409 5.72924 9.45041 5.78629C9.42673 5.84335 9.40603 5.90152 9.38813 5.96063C9.37023 6.01973 9.35513 6.07958 9.3432 6.14018C9.33108 6.20078 9.32194 6.26175 9.31597 6.32309C9.30982 6.38462 9.30684 6.44634 9.30684 6.50805V6.6891H9.22946C9.16551 6.6891 9.10174 6.69245 9.03816 6.69879C8.97439 6.70513 8.91118 6.71446 8.84854 6.72695C8.7857 6.73963 8.7238 6.7551 8.66264 6.77375C8.60148 6.79239 8.54126 6.81402 8.48215 6.83845C8.42305 6.86306 8.36543 6.89028 8.30894 6.92049C8.25263 6.95069 8.19781 6.98351 8.14449 7.01912C8.09135 7.05473 8.04007 7.09277 7.99066 7.13342C7.94125 7.17388 7.89389 7.21676 7.84859 7.26207C7.80346 7.30738 7.76039 7.35474 7.71993 7.40415C7.67929 7.45356 7.64125 7.50483 7.60564 7.55797C7.57002 7.61111 7.53721 7.66593 7.507 7.72242C7.4768 7.77873 7.44958 7.83653 7.42496 7.89564C7.40054 7.95474 7.37891 8.01478 7.36026 8.07613C7.34162 8.13728 7.32614 8.19918 7.31365 8.26202C7.30097 8.32467 7.29165 8.38788 7.28531 8.45164C7.27897 8.51522 7.2758 8.57899 7.27561 8.64294V9.66806C7.2758 9.73202 7.27897 9.79579 7.28531 9.85955C7.29165 9.92313 7.30097 9.98634 7.31365 10.049C7.32614 10.1118 7.34162 10.1737 7.36026 10.2349C7.37891 10.2962 7.40054 10.3563 7.42496 10.4154C7.44958 10.4745 7.4768 10.5323 7.507 10.5886C7.53721 10.6451 7.57002 10.6999 7.60564 10.753C7.64125 10.8062 7.67929 10.8575 7.71993 10.9069C7.76039 10.9565 7.80346 11.0036 7.84859 11.0489C7.89389 11.0942 7.94125 11.1371 7.99066 11.1778C8.04007 11.2182 8.09135 11.2563 8.14449 11.2919C8.19781 11.3275 8.25263 11.3603 8.30894 11.3905C8.36543 11.4207 8.42305 11.4481 8.48215 11.4726C8.54126 11.4972 8.60148 11.5186 8.66264 11.5373C8.7238 11.5559 8.7857 11.5714 8.84854 11.5841C8.91118 11.5966 8.97439 11.6061 9.03816 11.6122C9.10174 11.6186 9.16551 11.6219 9.22946 11.6219H9.30684V11.803C9.30684 11.8647 9.30982 11.9264 9.31597 11.9879C9.32194 12.0493 9.33108 12.1104 9.3432 12.171C9.35513 12.2314 9.37023 12.2913 9.38813 12.3504C9.40603 12.4095 9.42673 12.4677 9.45041 12.5247C9.47409 12.5818 9.50038 12.6375 9.52965 12.692C9.55874 12.7466 9.59043 12.7994 9.62474 12.8508C9.65905 12.9021 9.69578 12.9517 9.73494 12.9994C9.77409 13.0472 9.81567 13.0928 9.8593 13.1367C9.90293 13.1803 9.94861 13.2217 9.99634 13.2608C10.0441 13.3 10.0937 13.3369 10.1451 13.3712C10.1964 13.4055 10.2494 13.4372 10.3038 13.4663C10.3582 13.4954 10.414 13.5219 10.4711 13.5454C10.5281 13.569 10.5863 13.5899 10.6454 13.6078C10.7045 13.6257 10.7643 13.6406 10.8249 13.6528C10.8855 13.6649 10.9465 13.6738 11.008 13.68C11.0696 13.6859 11.1311 13.6889 11.1928 13.6889H18.5917V18.114ZM9.30684 10.679H9.22946C9.19646 10.6788 9.16346 10.6773 9.13045 10.674C9.09745 10.6708 9.06482 10.666 9.03238 10.6594C8.99994 10.6529 8.96787 10.6449 8.93617 10.6354C8.90447 10.6257 8.87333 10.6145 8.84276 10.6018C8.81218 10.5891 8.78234 10.575 8.75307 10.5595C8.72398 10.5438 8.69546 10.5269 8.66805 10.5084C8.64045 10.49 8.61398 10.4704 8.58843 10.4493C8.5627 10.4282 8.53828 10.406 8.51478 10.3827C8.49148 10.3592 8.46929 10.3348 8.44822 10.3093C8.42734 10.2835 8.40757 10.2571 8.38911 10.2295C8.37084 10.2021 8.35369 10.1737 8.33821 10.1445C8.32255 10.1154 8.30838 10.0853 8.2957 10.0548C8.28302 10.0242 8.27184 9.99305 8.26233 9.96136C8.25263 9.92985 8.24461 9.89759 8.23809 9.86515C8.23175 9.8327 8.2269 9.80007 8.22354 9.76707C8.22037 9.73407 8.2187 9.70107 8.2187 9.66806V8.64294C8.2187 8.60994 8.22037 8.57694 8.22354 8.54394C8.2269 8.51094 8.23175 8.47831 8.23809 8.44586C8.24461 8.41342 8.25263 8.38135 8.26233 8.34965C8.27184 8.31796 8.28302 8.28682 8.2957 8.25624C8.30838 8.22566 8.32255 8.19583 8.33821 8.16656C8.35369 8.13728 8.37084 8.10894 8.38911 8.08153C8.40757 8.05394 8.42734 8.02746 8.44822 8.00173C8.46929 7.97619 8.49148 7.95176 8.51478 7.92827C8.53828 7.90496 8.5627 7.88277 8.58843 7.8617C8.61398 7.84064 8.64045 7.82106 8.66805 7.8026C8.69564 7.78414 8.72398 7.76717 8.75307 7.75151C8.78234 7.73603 8.81218 7.72186 8.84276 7.70919C8.87333 7.69651 8.90447 7.68532 8.93617 7.67581C8.96787 7.66611 8.99994 7.6581 9.03238 7.65157C9.06482 7.64505 9.09745 7.6402 9.13045 7.63703C9.16346 7.63367 9.19646 7.63218 9.22946 7.63218H9.30684V10.679ZM33.6797 11.803C33.6797 11.8339 33.6782 11.8647 33.6752 11.8954C33.672 11.9262 33.6675 11.9566 33.6616 11.987C33.6554 12.0172 33.648 12.0472 33.639 12.0767C33.6301 12.1063 33.6196 12.1354 33.6079 12.1639C33.5959 12.1925 33.5829 12.2202 33.5683 12.2475C33.5538 12.2747 33.538 12.3012 33.5208 12.3269C33.5035 12.3526 33.4852 12.3774 33.4656 12.4013C33.446 12.4252 33.4253 12.4479 33.4035 12.4697C33.3815 12.4917 33.3588 12.5124 33.3349 12.532C33.311 12.5516 33.2862 12.5698 33.2605 12.587C33.2348 12.6041 33.2085 12.62 33.1811 12.6347C33.1539 12.6493 33.1261 12.6623 33.0975 12.6743C33.069 12.686 33.0399 12.6964 33.0103 12.7054C32.9808 12.7143 32.9508 12.7218 32.9206 12.728C32.8904 12.7339 32.8598 12.7384 32.8291 12.7414C32.7983 12.7445 32.7675 12.746 32.7366 12.746H11.1928C11.162 12.746 11.1311 12.7445 11.1005 12.7414C11.0698 12.7384 11.0392 12.7339 11.009 12.728C10.9786 12.7218 10.9487 12.7143 10.9191 12.7054C10.8896 12.6964 10.8606 12.686 10.832 12.6743C10.8035 12.6623 10.7755 12.6493 10.7483 12.6347C10.7211 12.62 10.6946 12.6041 10.6689 12.587C10.6433 12.5698 10.6185 12.5516 10.5947 12.532C10.5708 12.5124 10.5479 12.4917 10.5261 12.4697C10.5042 12.4479 10.4835 12.4252 10.464 12.4013C10.4444 12.3774 10.4259 12.3526 10.4088 12.3269C10.3916 12.3012 10.3758 12.2747 10.3612 12.2475C10.3467 12.2202 10.3335 12.1925 10.3217 12.1639C10.3098 12.1354 10.2995 12.1063 10.2904 12.0767C10.2814 12.0472 10.274 12.0172 10.268 11.987C10.262 11.9566 10.2574 11.9262 10.2544 11.8954C10.2514 11.8647 10.2499 11.8339 10.2499 11.803V6.50805C10.2499 6.4771 10.2514 6.44634 10.2544 6.41557C10.2574 6.38481 10.262 6.35441 10.268 6.32402C10.274 6.29382 10.2814 6.2638 10.2904 6.23434C10.2995 6.20469 10.3098 6.17579 10.3217 6.14727C10.3335 6.11855 10.3467 6.09077 10.3612 6.06355C10.3758 6.03633 10.3916 6.00985 10.4088 5.98412C10.4259 5.95839 10.4444 5.93378 10.464 5.90972C10.4835 5.88586 10.5042 5.86311 10.5261 5.8413C10.5479 5.81948 10.5708 5.7986 10.5947 5.77902C10.6185 5.75944 10.6433 5.74117 10.6689 5.72402C10.6946 5.70686 10.7211 5.69101 10.7483 5.67647C10.7755 5.66174 10.8035 5.64869 10.832 5.63676C10.8606 5.62501 10.8896 5.61457 10.9191 5.60562C10.9487 5.59667 10.9786 5.58921 11.009 5.58324C11.0392 5.57709 11.0698 5.57262 11.1005 5.56963C11.1311 5.56665 11.162 5.56497 11.1928 5.56497H32.7366C32.7675 5.56497 32.7983 5.56665 32.8291 5.56963C32.8598 5.57262 32.8904 5.57709 32.9206 5.58324C32.9508 5.58921 32.9808 5.59667 33.0103 5.60562C33.0399 5.61457 33.069 5.62501 33.0975 5.63676C33.1261 5.64869 33.1539 5.66174 33.1811 5.67647C33.2083 5.69101 33.2348 5.70686 33.2605 5.72402C33.2862 5.74117 33.311 5.75944 33.3349 5.77902C33.3588 5.7986 33.3815 5.81948 33.4035 5.8413C33.4253 5.86311 33.446 5.88586 33.4656 5.90972C33.4852 5.93378 33.5035 5.95839 33.5206 5.98412C33.538 6.00985 33.5538 6.03633 33.5683 6.06355C33.5829 6.09077 33.5959 6.11855 33.6079 6.14708C33.6196 6.17579 33.6301 6.20469 33.639 6.23434C33.648 6.2638 33.6554 6.29382 33.6616 6.32402C33.6675 6.35441 33.672 6.38481 33.6752 6.41557C33.6782 6.44634 33.6797 6.4771 33.6797 6.50805V11.803ZM24.674 37.4144C24.6751 37.4459 24.6745 37.4774 24.6723 37.5089C24.6702 37.5404 24.6665 37.5716 24.6613 37.6027C24.6561 37.6338 24.6492 37.6646 24.641 37.695C24.6326 37.7254 24.6227 37.7554 24.6113 37.7849C24.5999 37.8143 24.5873 37.843 24.5729 37.8712C24.5587 37.8993 24.5431 37.9268 24.5261 37.9532C24.5091 37.9799 24.4909 38.0054 24.4713 38.0302C24.4517 38.055 24.431 38.0787 24.409 38.1015C24.387 38.124 24.3641 38.1457 24.34 38.166C24.316 38.1863 24.2908 38.2053 24.2649 38.2232C24.2388 38.2411 24.2119 38.2575 24.1843 38.2726C24.1565 38.2879 24.1282 38.3015 24.0991 38.3138C24.0702 38.3261 24.0406 38.337 24.0104 38.3463C23.9803 38.3556 23.9498 38.3634 23.9188 38.3698C23.8879 38.3759 23.8567 38.3806 23.8254 38.3838C23.7941 38.3869 23.7626 38.3886 23.7311 38.3884H21.9392C21.9077 38.3886 21.8762 38.3869 21.8449 38.3838C21.8136 38.3806 21.7824 38.3759 21.7515 38.3698C21.7205 38.3634 21.69 38.3556 21.6599 38.3463C21.6297 38.337 21.6001 38.3261 21.571 38.3138C21.5421 38.3015 21.5138 38.2879 21.486 38.2726C21.4584 38.2575 21.4315 38.2411 21.4054 38.2232C21.3795 38.2053 21.3543 38.1863 21.3303 38.166C21.3062 38.1455 21.2831 38.124 21.2613 38.1015C21.2393 38.0787 21.2186 38.055 21.199 38.0302C21.1794 38.0054 21.1612 37.9799 21.1442 37.9532C21.1272 37.9268 21.1116 37.8993 21.0974 37.8712C21.083 37.843 21.0704 37.8143 21.059 37.7849C21.0476 37.7554 21.0377 37.7254 21.0294 37.695C21.021 37.6646 21.0142 37.6338 21.009 37.6027C21.0038 37.5716 21.0001 37.5404 20.9978 37.5089C20.9958 37.4774 20.9952 37.4459 20.9963 37.4144L21.3886 25.6425C21.3896 25.6121 21.3935 25.5822 21.4002 25.5526C21.4069 25.5231 21.4166 25.4944 21.4289 25.4668C21.441 25.439 21.456 25.4128 21.4733 25.388C21.4906 25.3632 21.5102 25.3402 21.532 25.319C21.5538 25.2979 21.5775 25.2792 21.6029 25.2627C21.6282 25.2461 21.6551 25.2323 21.6832 25.2209C21.7112 25.2095 21.7401 25.2009 21.7699 25.1952C21.7998 25.1894 21.8298 25.1864 21.86 25.1866H23.8073C23.8377 25.1864 23.8677 25.1894 23.8976 25.1952C23.9272 25.2009 23.9561 25.2095 23.9843 25.2209C24.0124 25.2323 24.0391 25.2461 24.0646 25.2627C24.09 25.2792 24.1137 25.2979 24.1353 25.319C24.1571 25.3402 24.1767 25.3632 24.1942 25.388C24.2116 25.4128 24.2263 25.439 24.2386 25.4668C24.2509 25.4944 24.2604 25.5231 24.2673 25.5526C24.274 25.5822 24.2779 25.6121 24.2789 25.6425L24.674 37.4144ZM37.4516 14.1614C37.452 14.2552 37.4453 14.3484 37.4315 14.4411C37.4179 14.5338 37.3974 14.6249 37.3701 14.7146C37.3427 14.8043 37.309 14.8914 37.2685 14.976C37.2281 15.0605 37.1816 15.1416 37.1292 15.2193C37.0767 15.2969 37.0187 15.3702 36.9551 15.4392C36.8917 15.508 36.8234 15.5719 36.7504 15.6307C36.6773 15.6894 36.6003 15.7423 36.5193 15.7895C36.4384 15.8367 36.3543 15.8775 36.2673 15.912L24.4745 20.6375C24.3874 20.672 24.3035 20.713 24.2224 20.7602C24.1414 20.8074 24.0644 20.8603 23.9913 20.919C23.9183 20.9778 23.85 21.0415 23.7866 21.1105C23.723 21.1793 23.6651 21.2526 23.6127 21.3304C23.5601 21.4079 23.5137 21.489 23.4732 21.5737C23.4329 21.6581 23.399 21.7454 23.3718 21.8349C23.3444 21.9246 23.3238 22.0158 23.3102 22.1084C23.2966 22.2013 23.2899 22.2945 23.2901 22.3881V24.2435H22.3636V21.9156C22.3632 21.7985 22.3716 21.6818 22.3888 21.5658C22.4057 21.4499 22.4315 21.3359 22.4656 21.2237C22.4997 21.1116 22.5422 21.0028 22.5926 20.8968C22.6431 20.7911 22.7013 20.6897 22.7669 20.5926C22.8327 20.4956 22.9053 20.4039 22.9847 20.3177C23.0641 20.2314 23.1497 20.1516 23.2411 20.0783C23.3324 20.0049 23.4288 19.9387 23.5301 19.8797C23.6315 19.8208 23.7367 19.7697 23.8455 19.7265L35.6193 15.0172C35.6848 14.9913 35.7478 14.9605 35.8086 14.9253C35.8694 14.8899 35.9274 14.8502 35.9822 14.8062C36.037 14.762 36.0883 14.7142 36.1358 14.6624C36.1835 14.6108 36.2272 14.5558 36.2665 14.4976C36.306 14.4392 36.3409 14.3784 36.3711 14.3149C36.4015 14.2515 36.4269 14.186 36.4474 14.1187C36.4679 14.0516 36.4834 13.9832 36.4936 13.9134C36.5039 13.8439 36.5089 13.774 36.5087 13.7037V10.5699C36.5087 10.5392 36.507 10.5084 36.5041 10.4776C36.5011 10.4469 36.4966 10.4163 36.4904 10.3861C36.4845 10.3557 36.477 10.3259 36.4681 10.2962C36.4591 10.2668 36.4487 10.2377 36.4369 10.2092C36.425 10.1806 36.4118 10.1527 36.3972 10.1254C36.3827 10.0982 36.3668 10.0717 36.3497 10.0462C36.3325 10.0205 36.3142 9.99566 36.2947 9.9718C36.2749 9.94793 36.2542 9.925 36.2324 9.90318C36.2106 9.88137 36.1876 9.86067 36.1638 9.84109C36.1399 9.82152 36.1153 9.80306 36.0896 9.7859C36.0638 9.76875 36.0374 9.7529 36.0101 9.73836C35.9829 9.72381 35.9549 9.71058 35.9264 9.69883C35.8979 9.6869 35.869 9.67664 35.8393 9.66769C35.8099 9.65874 35.7799 9.6511 35.7497 9.64513C35.7193 9.63916 35.6889 9.6345 35.6581 9.63152C35.6273 9.62854 35.5966 9.62705 35.5656 9.62705H34.6226V8.68396H36.0372C36.0834 8.68396 36.1297 8.6862 36.1757 8.69086C36.2219 8.69534 36.2676 8.70224 36.3131 8.71119C36.3584 8.72032 36.4034 8.73151 36.4477 8.74493C36.4921 8.75836 36.5356 8.77402 36.5784 8.79173C36.6211 8.80945 36.6631 8.82921 36.7039 8.85103C36.7448 8.87284 36.7845 8.89671 36.8229 8.92244C36.8615 8.94817 36.8986 8.97576 36.9344 9.00504C36.9704 9.0345 37.0045 9.06563 37.0373 9.09826C37.0701 9.13108 37.1011 9.16539 37.1305 9.20119C37.16 9.23698 37.1876 9.27409 37.2133 9.31268C37.2391 9.35109 37.2627 9.39081 37.2845 9.43164C37.3064 9.47266 37.3263 9.51443 37.344 9.55713C37.3617 9.60001 37.3772 9.64364 37.3906 9.68783C37.4042 9.7322 37.4154 9.77714 37.4244 9.82263C37.4335 9.86794 37.4402 9.91381 37.4449 9.95986C37.4494 10.0059 37.4516 10.0522 37.4516 10.0986V14.1614Z" fill="#39A154"/>
</g>
</svg>
