<svg width="41" height="40" viewBox="0 0 41 40" fill="none" xmlns="http://www.w3.org/2000/svg">
<g clip-path="url(#clip0_2425_397)">
<mask id="mask0_2425_397" style="mask-type:luminance" maskUnits="userSpaceOnUse" x="32" y="21" width="9" height="16">
<path d="M32.9938 21.4815H40.5V36.8538H32.9938V21.4815Z" fill="white"/>
</mask>
<g mask="url(#mask0_2425_397)">
<path d="M38.7191 36.8472H34.7644C33.8032 36.8472 33.0221 36.0606 33.0221 35.0909V30.7124C33.0221 30.4419 33.2405 30.2234 33.5109 30.2234C33.7814 30.2234 34.0024 30.4419 34.0024 30.7124V35.0909C34.0024 35.5197 34.3439 35.8692 34.7644 35.8692H38.7191C39.1398 35.8692 39.481 35.5197 39.481 35.0909V23.2556C39.481 22.8268 39.1398 22.4771 38.7191 22.4771H34.7644C34.3439 22.4771 34.0024 22.8268 34.0024 23.2556V27.6341C34.0024 27.9045 33.7814 28.1229 33.5109 28.1229C33.2405 28.1229 33.0221 27.9045 33.0221 27.6341V23.2556C33.0221 22.2859 33.8032 21.4992 34.7644 21.4992H38.7191C39.6805 21.4992 40.4616 22.2859 40.4616 23.2556V35.0909C40.4616 36.0606 39.6805 36.8472 38.7191 36.8472Z" fill="#39A154"/>
</g>
<path d="M15.8762 17.3256C15.6032 17.3256 15.3792 17.1071 15.3792 16.8366C15.3792 16.6127 15.5266 16.4242 15.7315 16.3669L39.7051 6.20873C39.858 6.14584 40.0301 6.16224 40.1694 6.25232C40.3059 6.3426 40.3879 6.49538 40.3879 6.65934V13.0974C40.3879 13.3677 40.1694 13.5862 39.8962 13.5862C39.626 13.5862 39.4074 13.3677 39.4074 13.0974V7.39951L16.0646 17.2874C16.0046 17.3146 15.939 17.3256 15.8762 17.3256Z" fill="#39A154"/>
<path d="M1.67167 23.4384C1.39582 23.4384 1.12287 23.3594 0.912411 23.2091C0.677651 23.0424 0.543777 22.794 0.543777 22.5345L0.541077 16.8366C0.541077 16.5661 0.759634 16.3478 1.02989 16.3478C1.30034 16.3478 1.51889 16.5661 1.51889 16.8366L1.52159 22.4334C1.58718 22.4552 1.70176 22.4743 1.81384 22.4361L2.73957 22.1165C2.99632 22.0291 3.27217 22.1657 3.36226 22.4224C3.44964 22.6765 3.31307 22.955 3.05651 23.0424L2.13328 23.3621C1.98301 23.4112 1.82734 23.4384 1.67167 23.4384Z" fill="#39A154"/>
<path d="M15.8734 17.3256C15.8188 17.3256 15.7616 17.3173 15.707 17.2955C7.78663 14.4003 1.29492 17.2519 1.22934 17.2818C0.98358 17.3939 0.694035 17.2845 0.581959 17.0388C0.472777 16.793 0.581959 16.5035 0.827908 16.3914C1.10646 16.2658 7.73204 13.3378 16.0428 16.3777C16.2969 16.4707 16.4251 16.7519 16.3323 17.006C16.2614 17.2027 16.0729 17.3256 15.8734 17.3256Z" fill="#39A154"/>
<path d="M1.02992 17.3256C0.838752 17.3256 0.655882 17.2135 0.5793 17.0278C0.472819 16.7793 0.590295 16.4925 0.838752 16.386L24.8588 6.20872C25.1266 6.08854 31.7548 3.1603 40.0656 6.20042C40.3197 6.2934 40.4479 6.57465 40.3578 6.8287C40.2651 7.08275 39.9809 7.21373 39.7298 7.11825C31.7903 4.2147 25.3177 7.07716 25.2521 7.10455L1.22108 17.2874C1.15839 17.3146 1.0928 17.3256 1.02992 17.3256Z" fill="#39A154"/>
<path d="M10.515 27.4811C7.28973 27.4811 4.66782 24.7195 4.66782 21.3272C4.66782 19.9259 5.12654 18.5521 5.96238 17.4649C6.12615 17.249 6.43209 17.2081 6.64775 17.3721C6.86361 17.5386 6.90181 17.8445 6.73803 18.0604C6.03336 18.9782 5.64544 20.1389 5.64544 21.3272C5.64544 24.1815 7.83043 26.5004 10.515 26.5004C11.9763 26.5004 13.3472 25.8121 14.2785 24.613C14.4423 24.4001 14.751 24.359 14.9641 24.5256C15.1771 24.6923 15.218 24.9983 15.0515 25.2112C13.9344 26.6533 12.282 27.4811 10.515 27.4811Z" fill="#39A154"/>
<path d="M17.2255 26.0143C17.0315 26.0143 16.8513 25.8995 16.772 25.711C16.6682 25.4626 16.7884 25.1757 17.0371 25.072L38.6127 16.1701C39.0961 15.9709 39.4074 15.5037 39.4074 14.9794V13.8349L16.9688 23.3403C16.5945 23.4987 16.1549 23.4605 15.8272 23.2419C15.5457 23.0561 15.3847 22.772 15.3847 22.4579L15.382 16.8366L16.3596 16.8339L16.3652 22.4579C16.3706 22.447 16.4144 22.4607 16.4717 22.4607C16.5072 22.4607 16.5453 22.4552 16.5864 22.4389L39.7051 12.6466C39.858 12.581 40.0301 12.5974 40.1667 12.6877C40.3033 12.7778 40.3879 12.9335 40.3879 13.0974V14.9794C40.3879 15.8997 39.8362 16.722 38.9842 17.0743L17.4111 25.9788C17.3511 26.0033 17.2882 26.0143 17.2255 26.0143Z" fill="#39A154"/>
<path d="M10.5151 19.3877C9.51814 19.3877 8.70719 20.2564 8.70719 21.3272C8.70719 22.3951 9.51814 23.2664 10.5151 23.2664C11.512 23.2664 12.3231 22.3951 12.3231 21.3272C12.3231 20.2564 11.512 19.3877 10.5151 19.3877ZM10.5151 24.2444C8.98014 24.2444 7.72937 22.936 7.72937 21.3272C7.72937 19.7184 8.98014 18.4072 10.5151 18.4072C12.0527 18.4072 13.3036 19.7184 13.3036 21.3272C13.3036 22.936 12.0527 24.2444 10.5151 24.2444Z" fill="#39A154"/>
<path d="M23.8237 29.6634C23.5534 29.6634 23.3349 29.4423 23.3349 29.1719V22.8021C23.3349 22.5316 23.5534 22.3133 23.8237 22.3133C24.0941 22.3133 24.3127 22.5316 24.3127 22.8021V29.1719C24.3127 29.4423 24.0941 29.6634 23.8237 29.6634Z" fill="#39A154"/>
<path d="M35.2425 31.2012H25.364C24.2444 31.2012 23.3349 30.2917 23.3349 29.1719V27.6341C23.3349 27.3636 23.5534 27.1451 23.8237 27.1451C24.0941 27.1451 24.3127 27.3636 24.3127 27.6341V29.1719C24.3127 29.751 24.7851 30.2234 25.364 30.2234H35.2425C35.8189 30.2234 36.2913 29.751 36.2913 29.1719C36.2913 28.5955 35.8189 28.1229 35.2425 28.1229H26.9645C26.6941 28.1229 26.4757 27.9045 26.4757 27.6341V21.5046C26.4757 21.2342 26.6941 21.0158 26.9645 21.0158C27.2349 21.0158 27.4533 21.2342 27.4533 21.5046V27.1451H35.2425C36.3596 27.1451 37.2689 28.0546 37.2689 29.1719C37.2689 30.2917 36.3596 31.2012 35.2425 31.2012Z" fill="#39A154"/>
</g>
<defs>
<clipPath id="clip0_2425_397">
<rect width="40" height="40" fill="white" transform="translate(0.5)"/>
</clipPath>
</defs>
</svg>
