<svg class="text-primary h-12 w-40" width="1000" height="879" viewBox="0 0 351 102" fill="currentColor" xmlns="http://www.w3.org/2000/svg"><path d="M70.808 52.08L70.104 37.872L89.368 17.2H103.32L84.12 38L77.08 45.36L70.808 52.08ZM59.48 62V17.2H72.024V62H59.48ZM89.56 62L74.968 43.504L83.224 34.672L104.28 62H89.56ZM127.526 62V55.536L126.694 53.936V42.032C126.694 40.112 126.096 38.64 124.902 37.616C123.75 36.5493 121.894 36.016 119.333 36.016C117.67 36.016 115.984 36.2933 114.278 36.848C112.571 37.36 111.12 38.0853 109.926 39.024L105.83 30.768C107.792 29.488 110.139 28.5067 112.87 27.824C115.643 27.0987 118.395 26.736 121.126 26.736C126.758 26.736 131.11 28.0373 134.182 30.64C137.296 33.2 138.854 37.232 138.854 42.736V62H127.526ZM117.286 62.576C114.512 62.576 112.166 62.1067 110.246 61.168C108.326 60.2293 106.854 58.9493 105.83 57.328C104.848 55.7067 104.358 53.8933 104.358 51.888C104.358 49.7547 104.891 47.92 105.958 46.384C107.067 44.8053 108.752 43.6107 111.014 42.8C113.275 41.9467 116.198 41.52 119.782 41.52H127.974V47.856H121.446C119.483 47.856 118.096 48.176 117.286 48.816C116.518 49.456 116.134 50.3093 116.134 51.376C116.134 52.4427 116.539 53.296 117.35 53.936C118.16 54.576 119.27 54.896 120.678 54.896C122 54.896 123.195 54.576 124.262 53.936C125.371 53.2533 126.182 52.2293 126.694 50.864L128.358 55.344C127.718 57.7333 126.459 59.5467 124.582 60.784C122.747 61.9787 120.315 62.576 117.286 62.576ZM169.121 26.736C171.809 26.736 174.241 27.2907 176.417 28.4C178.593 29.4667 180.3 31.1307 181.537 33.392C182.817 35.6533 183.457 38.576 183.457 42.16V62H171.297V44.144C171.297 41.6693 170.785 39.8773 169.761 38.768C168.78 37.616 167.393 37.04 165.601 37.04C164.321 37.04 163.148 37.3387 162.081 37.936C161.014 38.4907 160.182 39.3653 159.585 40.56C158.988 41.7547 158.689 43.312 158.689 45.232V62H146.529V27.312H158.113V37.168L155.873 34.288C157.196 31.7707 159.009 29.8933 161.313 28.656C163.617 27.376 166.22 26.736 169.121 26.736ZM208.489 74.992C205.161 74.992 201.982 74.608 198.953 73.84C195.966 73.072 193.406 71.9413 191.273 70.448L195.689 61.936C197.14 63.088 198.932 63.984 201.065 64.624C203.241 65.3067 205.353 65.648 207.401 65.648C210.686 65.648 213.054 64.9227 214.505 63.472C215.956 62.064 216.681 59.9947 216.681 57.264V53.168L217.321 43.44L217.257 33.648V27.312H228.841V55.664C228.841 62.2347 227.07 67.0987 223.529 70.256C219.988 73.4133 214.974 74.992 208.489 74.992ZM206.377 60.208C203.305 60.208 200.468 59.5253 197.865 58.16C195.305 56.752 193.236 54.8107 191.657 52.336C190.121 49.8187 189.353 46.8533 189.353 43.44C189.353 40.0267 190.121 37.0827 191.657 34.608C193.236 32.0907 195.305 30.1493 197.865 28.784C200.468 27.4187 203.305 26.736 206.377 26.736C209.321 26.736 211.838 27.3333 213.929 28.528C216.02 29.68 217.598 31.4933 218.665 33.968C219.774 36.4427 220.329 39.6 220.329 43.44C220.329 47.28 219.774 50.4373 218.665 52.912C217.598 55.3867 216.02 57.2213 213.929 58.416C211.838 59.6107 209.321 60.208 206.377 60.208ZM209.257 50.544C210.708 50.544 211.988 50.2453 213.097 49.648C214.249 49.0507 215.145 48.2187 215.785 47.152C216.468 46.0853 216.809 44.848 216.809 43.44C216.809 42.032 216.468 40.7947 215.785 39.728C215.145 38.6613 214.249 37.8507 213.097 37.296C211.988 36.6987 210.708 36.4 209.257 36.4C207.806 36.4 206.505 36.6987 205.353 37.296C204.201 37.8507 203.284 38.6613 202.601 39.728C201.961 40.7947 201.641 42.032 201.641 43.44C201.641 44.848 201.961 46.0853 202.601 47.152C203.284 48.2187 204.201 49.0507 205.353 49.648C206.505 50.2453 207.806 50.544 209.257 50.544Z" fill="black"></path><path d="M237.23 62V17.2H257.71C261.806 17.2 265.326 17.8613 268.27 19.184C271.257 20.5067 273.561 22.4267 275.182 24.944C276.803 27.4187 277.614 30.3627 277.614 33.776C277.614 37.1467 276.803 40.0693 275.182 42.544C273.561 45.0187 271.257 46.9387 268.27 48.304C265.326 49.6267 261.806 50.288 257.71 50.288H244.27L249.902 44.784V62H237.23ZM249.902 46.128L244.27 40.304H256.942C259.587 40.304 261.55 39.728 262.83 38.576C264.153 37.424 264.814 35.824 264.814 33.776C264.814 31.6853 264.153 30.064 262.83 28.912C261.55 27.76 259.587 27.184 256.942 27.184H244.27L249.902 21.36V46.128ZM283.467 62V27.312H295.051V37.424L293.323 34.544C294.347 31.9413 296.011 30 298.315 28.72C300.619 27.3973 303.413 26.736 306.699 26.736V37.68C306.144 37.5947 305.653 37.552 305.227 37.552C304.843 37.5093 304.416 37.488 303.947 37.488C301.472 37.488 299.467 38.1707 297.931 39.536C296.395 40.8587 295.627 43.0347 295.627 46.064V62H283.467ZM328.812 62.576C325.015 62.576 321.644 61.808 318.7 60.272C315.756 58.736 313.431 56.624 311.724 53.936C310.06 51.2053 309.228 48.0907 309.228 44.592C309.228 41.0933 310.06 38 311.724 35.312C313.431 32.624 315.756 30.5333 318.7 29.04C321.644 27.504 325.015 26.736 328.812 26.736C332.609 26.736 335.98 27.504 338.924 29.04C341.911 30.5333 344.236 32.624 345.9 35.312C347.564 38 348.396 41.0933 348.396 44.592C348.396 48.0907 347.564 51.2053 345.9 53.936C344.236 56.624 341.911 58.736 338.924 60.272C335.98 61.808 332.609 62.576 328.812 62.576ZM328.812 52.912C330.22 52.912 331.457 52.592 332.524 51.952C333.633 51.312 334.508 50.3733 335.148 49.136C335.788 47.856 336.108 46.3413 336.108 44.592C336.108 42.8427 335.788 41.3707 335.148 40.176C334.508 38.9387 333.633 38 332.524 37.36C331.457 36.72 330.22 36.4 328.812 36.4C327.447 36.4 326.209 36.72 325.1 37.36C324.033 38 323.159 38.9387 322.476 40.176C321.836 41.3707 321.516 42.8427 321.516 44.592C321.516 46.3413 321.836 47.856 322.476 49.136C323.159 50.3733 324.033 51.312 325.1 51.952C326.209 52.592 327.447 52.912 328.812 52.912Z" fill="#39A154"></path><g clip-path="url(#clip0_683_19)"><path d="M0 17V44.776L25.1248 17H0ZM31.1791 17L11.1182 39.3111L31.1884 62H48L28.115 39.2834L48 17.0092V17H31.1791ZM8.39654 42.3338L0 51.6692V62H25.6062L8.39654 42.3338Z" fill="#39A154"></path></g><path d="M102.84 97L111.94 83H114.52L118 97H115.42L112.5 84.34H113.54L105.62 97H102.84ZM106.4 93.76L107.5 91.72H115.04L115.38 93.76H106.4ZM124.483 97.14C123.616 97.14 122.823 96.9533 122.103 96.58C121.383 96.2067 120.816 95.6733 120.403 94.98C119.989 94.2733 119.783 93.4267 119.783 92.44C119.783 91.5333 119.929 90.7 120.223 89.94C120.529 89.18 120.956 88.52 121.503 87.96C122.049 87.4 122.683 86.9667 123.403 86.66C124.136 86.3533 124.929 86.2 125.783 86.2C126.663 86.2 127.423 86.3533 128.063 86.66C128.703 86.9667 129.196 87.4267 129.543 88.04C129.889 88.6533 130.063 89.4133 130.063 90.32C130.063 91.32 129.936 92.24 129.683 93.08C129.429 93.9067 129.063 94.6267 128.583 95.24C128.103 95.84 127.516 96.3067 126.823 96.64C126.143 96.9733 125.363 97.14 124.483 97.14ZM125.123 95C125.829 95 126.456 94.8333 127.003 94.5C127.563 94.1533 127.996 93.68 128.303 93.08C128.623 92.48 128.783 91.7867 128.783 91C128.783 90.1733 128.536 89.52 128.043 89.04C127.563 88.56 126.869 88.32 125.963 88.32C125.269 88.32 124.643 88.4933 124.083 88.84C123.523 89.1733 123.083 89.64 122.763 90.24C122.456 90.84 122.303 91.5333 122.303 92.32C122.303 93.1467 122.543 93.8 123.023 94.28C123.516 94.76 124.216 95 125.123 95ZM127.723 97L128.223 94.56L128.883 91.72L129.223 88.86L130.563 82.16H133.063L130.103 97H127.723ZM138.393 97.14C137.527 97.14 136.733 96.9533 136.013 96.58C135.307 96.2067 134.74 95.6733 134.313 94.98C133.9 94.2733 133.693 93.4267 133.693 92.44C133.693 91.5333 133.84 90.7 134.133 89.94C134.44 89.18 134.867 88.52 135.413 87.96C135.96 87.4 136.593 86.9667 137.313 86.66C138.047 86.3533 138.847 86.2 139.713 86.2C140.607 86.2 141.373 86.36 142.013 86.68C142.667 87 143.16 87.4867 143.493 88.14C143.827 88.78 143.98 89.58 143.953 90.54C143.927 91.86 143.687 93.02 143.233 94.02C142.78 95.0067 142.147 95.7733 141.333 96.32C140.52 96.8667 139.54 97.14 138.393 97.14ZM139.033 95C139.753 95 140.387 94.8333 140.933 94.5C141.48 94.1533 141.913 93.68 142.233 93.08C142.553 92.48 142.713 91.7867 142.713 91C142.713 90.1733 142.467 89.52 141.973 89.04C141.48 88.56 140.787 88.32 139.893 88.32C139.187 88.32 138.553 88.4933 137.993 88.84C137.447 89.1733 137.013 89.64 136.693 90.24C136.373 90.84 136.213 91.5333 136.213 92.32C136.213 93.1467 136.46 93.8 136.953 94.28C137.447 94.76 138.14 95 139.033 95ZM141.653 97L142.133 94.56L142.813 91.72L143.153 88.86L143.653 86.32H146.153L144.033 97H141.653ZM156.312 97L158.672 85.2H154.032L154.472 83H166.332L165.892 85.2H161.252L158.912 97H156.312ZM169.789 97.14C168.896 97.14 168.129 96.9533 167.489 96.58C166.862 96.1933 166.416 95.64 166.149 94.92C165.882 94.1867 165.856 93.2933 166.069 92.24L167.249 86.32H169.749L168.569 92.18C168.409 93.0467 168.489 93.7267 168.809 94.22C169.142 94.7 169.742 94.94 170.609 94.94C171.502 94.94 172.249 94.6867 172.849 94.18C173.462 93.6733 173.869 92.9 174.069 91.86L175.189 86.32H177.669L175.549 97H173.169L173.769 93.96L174.169 94.92C173.662 95.68 173.022 96.24 172.249 96.6C171.489 96.96 170.669 97.14 169.789 97.14ZM181.622 94.54L182.162 91.46L188.582 86.32H191.982L185.982 91.16L184.642 92.14L181.622 94.54ZM179.022 97L181.982 82.16H184.482L181.522 97H179.022ZM187.182 97L184.202 92.18L185.922 90.26L190.082 97H187.182ZM196.093 97.14C195.226 97.14 194.433 96.9533 193.713 96.58C193.006 96.2067 192.439 95.6733 192.013 94.98C191.599 94.2733 191.393 93.4267 191.393 92.44C191.393 91.5333 191.539 90.7 191.833 89.94C192.139 89.18 192.566 88.52 193.113 87.96C193.659 87.4 194.293 86.9667 195.013 86.66C195.746 86.3533 196.546 86.2 197.413 86.2C198.306 86.2 199.073 86.36 199.713 86.68C200.366 87 200.859 87.4867 201.193 88.14C201.526 88.78 201.679 89.58 201.653 90.54C201.626 91.86 201.386 93.02 200.933 94.02C200.479 95.0067 199.846 95.7733 199.033 96.32C198.219 96.8667 197.239 97.14 196.093 97.14ZM196.733 95C197.453 95 198.086 94.8333 198.633 94.5C199.179 94.1533 199.613 93.68 199.933 93.08C200.253 92.48 200.413 91.7867 200.413 91C200.413 90.1733 200.166 89.52 199.673 89.04C199.179 88.56 198.486 88.32 197.593 88.32C196.886 88.32 196.253 88.4933 195.693 88.84C195.146 89.1733 194.713 89.64 194.393 90.24C194.073 90.84 193.913 91.5333 193.913 92.32C193.913 93.1467 194.159 93.8 194.653 94.28C195.146 94.76 195.839 95 196.733 95ZM199.353 97L199.833 94.56L200.513 91.72L200.853 88.86L201.353 86.32H203.853L201.733 97H199.353ZM213.143 86.2C214.063 86.2 214.843 86.3867 215.483 86.76C216.123 87.1333 216.57 87.6867 216.823 88.42C217.09 89.14 217.117 90.0267 216.903 91.08L215.723 97H213.223L214.383 91.14C214.557 90.2733 214.477 89.6 214.143 89.12C213.81 88.6267 213.203 88.38 212.323 88.38C211.403 88.38 210.643 88.6333 210.043 89.14C209.443 89.6467 209.037 90.42 208.823 91.46L207.703 97H205.203L207.323 86.32H209.703L209.103 89.36L208.703 88.4C209.21 87.64 209.843 87.0867 210.603 86.74C211.377 86.38 212.223 86.2 213.143 86.2ZM223.434 101.02C222.421 101.02 221.488 100.893 220.634 100.64C219.781 100.4 219.048 100.04 218.434 99.56L219.734 97.68C220.148 98.04 220.694 98.3267 221.374 98.54C222.054 98.7667 222.794 98.88 223.594 98.88C224.768 98.88 225.654 98.62 226.254 98.1C226.854 97.5933 227.254 96.8267 227.454 95.8L227.894 93.6L228.554 91.34L228.954 88.92L229.454 86.32H231.834L230.034 95.38C229.634 97.3667 228.888 98.8 227.794 99.68C226.701 100.573 225.248 101.02 223.434 101.02ZM224.054 96.52C223.134 96.52 222.314 96.3467 221.594 96C220.874 95.64 220.308 95.1333 219.894 94.48C219.481 93.8133 219.274 93.02 219.274 92.1C219.274 91.26 219.421 90.4867 219.714 89.78C220.021 89.06 220.441 88.4333 220.974 87.9C221.521 87.3667 222.161 86.9533 222.894 86.66C223.641 86.3533 224.454 86.2 225.334 86.2C226.108 86.2 226.821 86.34 227.474 86.62C228.128 86.8867 228.648 87.3267 229.034 87.94C229.421 88.54 229.601 89.3333 229.574 90.32C229.548 91.4933 229.314 92.5533 228.874 93.5C228.434 94.4333 227.808 95.1733 226.994 95.72C226.181 96.2533 225.201 96.52 224.054 96.52ZM224.614 94.4C225.334 94.4 225.968 94.2467 226.514 93.94C227.061 93.62 227.488 93.1867 227.794 92.64C228.114 92.08 228.274 91.4533 228.274 90.76C228.274 90 228.028 89.4067 227.534 88.98C227.041 88.54 226.354 88.32 225.474 88.32C224.754 88.32 224.121 88.48 223.574 88.8C223.028 89.1067 222.594 89.5333 222.274 90.08C221.954 90.6267 221.794 91.2533 221.794 91.96C221.794 92.72 222.041 93.32 222.534 93.76C223.041 94.1867 223.734 94.4 224.614 94.4ZM231.921 100.02L233.961 95.6L234.221 97.14C233.781 97.14 233.408 96.9933 233.101 96.7C232.808 96.4067 232.661 96.0333 232.661 95.58C232.661 95.06 232.834 94.64 233.181 94.32C233.528 93.9867 233.934 93.82 234.401 93.82C234.841 93.82 235.208 93.9667 235.501 94.26C235.794 94.54 235.941 94.9133 235.941 95.38C235.941 95.62 235.894 95.8533 235.801 96.08C235.721 96.3067 235.574 96.5867 235.361 96.92L233.521 100.02H231.921ZM242.271 97L251.371 83H253.951L257.431 97H254.851L251.931 84.34H252.971L245.051 97H242.271ZM245.831 93.76L246.931 91.72H254.471L254.811 93.76H245.831ZM263.914 97.14C263.047 97.14 262.254 96.9533 261.534 96.58C260.814 96.2067 260.247 95.6733 259.834 94.98C259.421 94.2733 259.214 93.4267 259.214 92.44C259.214 91.5333 259.361 90.7 259.654 89.94C259.961 89.18 260.387 88.52 260.934 87.96C261.481 87.4 262.114 86.9667 262.834 86.66C263.567 86.3533 264.361 86.2 265.214 86.2C266.094 86.2 266.854 86.3533 267.494 86.66C268.134 86.9667 268.627 87.4267 268.974 88.04C269.321 88.6533 269.494 89.4133 269.494 90.32C269.494 91.32 269.367 92.24 269.114 93.08C268.861 93.9067 268.494 94.6267 268.014 95.24C267.534 95.84 266.947 96.3067 266.254 96.64C265.574 96.9733 264.794 97.14 263.914 97.14ZM264.554 95C265.261 95 265.887 94.8333 266.434 94.5C266.994 94.1533 267.427 93.68 267.734 93.08C268.054 92.48 268.214 91.7867 268.214 91C268.214 90.1733 267.967 89.52 267.474 89.04C266.994 88.56 266.301 88.32 265.394 88.32C264.701 88.32 264.074 88.4933 263.514 88.84C262.954 89.1733 262.514 89.64 262.194 90.24C261.887 90.84 261.734 91.5333 261.734 92.32C261.734 93.1467 261.974 93.8 262.454 94.28C262.947 94.76 263.647 95 264.554 95ZM267.154 97L267.654 94.56L268.314 91.72L268.654 88.86L269.994 82.16H272.494L269.534 97H267.154ZM277.825 97.14C276.958 97.14 276.165 96.9533 275.445 96.58C274.738 96.2067 274.171 95.6733 273.745 94.98C273.331 94.2733 273.125 93.4267 273.125 92.44C273.125 91.5333 273.271 90.7 273.565 89.94C273.871 89.18 274.298 88.52 274.845 87.96C275.391 87.4 276.025 86.9667 276.745 86.66C277.478 86.3533 278.278 86.2 279.145 86.2C280.038 86.2 280.805 86.36 281.445 86.68C282.098 87 282.591 87.4867 282.925 88.14C283.258 88.78 283.411 89.58 283.385 90.54C283.358 91.86 283.118 93.02 282.665 94.02C282.211 95.0067 281.578 95.7733 280.765 96.32C279.951 96.8667 278.971 97.14 277.825 97.14ZM278.465 95C279.185 95 279.818 94.8333 280.365 94.5C280.911 94.1533 281.345 93.68 281.665 93.08C281.985 92.48 282.145 91.7867 282.145 91C282.145 90.1733 281.898 89.52 281.405 89.04C280.911 88.56 280.218 88.32 279.325 88.32C278.618 88.32 277.985 88.4933 277.425 88.84C276.878 89.1733 276.445 89.64 276.125 90.24C275.805 90.84 275.645 91.5333 275.645 92.32C275.645 93.1467 275.891 93.8 276.385 94.28C276.878 94.76 277.571 95 278.465 95ZM281.085 97L281.565 94.56L282.245 91.72L282.585 88.86L283.085 86.32H285.585L283.465 97H281.085ZM295.503 97.2C294.489 97.2 293.609 97.02 292.863 96.66C292.129 96.3 291.569 95.7867 291.183 95.12L292.923 93.44C293.203 93.9333 293.563 94.32 294.003 94.6C294.443 94.8667 294.956 95 295.543 95C296.223 95 296.783 94.8067 297.223 94.42C297.663 94.0333 297.963 93.4133 298.123 92.56L299.603 85.18H294.603L295.043 83H302.583L300.703 92.42C300.476 93.5933 300.129 94.5333 299.663 95.24C299.209 95.9333 298.636 96.4333 297.943 96.74C297.249 97.0467 296.436 97.2 295.503 97.2ZM308.21 97.14C307.343 97.14 306.55 96.9533 305.83 96.58C305.123 96.2067 304.556 95.6733 304.13 94.98C303.716 94.2733 303.51 93.4267 303.51 92.44C303.51 91.5333 303.656 90.7 303.95 89.94C304.256 89.18 304.683 88.52 305.23 87.96C305.776 87.4 306.41 86.9667 307.13 86.66C307.863 86.3533 308.663 86.2 309.53 86.2C310.423 86.2 311.19 86.36 311.83 86.68C312.483 87 312.976 87.4867 313.31 88.14C313.643 88.78 313.796 89.58 313.77 90.54C313.743 91.86 313.503 93.02 313.05 94.02C312.596 95.0067 311.963 95.7733 311.15 96.32C310.336 96.8667 309.356 97.14 308.21 97.14ZM308.85 95C309.57 95 310.203 94.8333 310.75 94.5C311.296 94.1533 311.73 93.68 312.05 93.08C312.37 92.48 312.53 91.7867 312.53 91C312.53 90.1733 312.283 89.52 311.79 89.04C311.296 88.56 310.603 88.32 309.71 88.32C309.003 88.32 308.37 88.4933 307.81 88.84C307.263 89.1733 306.83 89.64 306.51 90.24C306.19 90.84 306.03 91.5333 306.03 92.32C306.03 93.1467 306.276 93.8 306.77 94.28C307.263 94.76 307.956 95 308.85 95ZM311.47 97L311.95 94.56L312.63 91.72L312.97 88.86L313.47 86.32H315.97L313.85 97H311.47ZM317.321 97L320.281 82.16H322.781L319.821 97H317.321ZM328.102 97.14C327.235 97.14 326.442 96.9533 325.722 96.58C325.015 96.2067 324.449 95.6733 324.022 94.98C323.609 94.2733 323.402 93.4267 323.402 92.44C323.402 91.5333 323.549 90.7 323.842 89.94C324.149 89.18 324.575 88.52 325.122 87.96C325.669 87.4 326.302 86.9667 327.022 86.66C327.755 86.3533 328.555 86.2 329.422 86.2C330.315 86.2 331.082 86.36 331.722 86.68C332.375 87 332.869 87.4867 333.202 88.14C333.535 88.78 333.689 89.58 333.662 90.54C333.635 91.86 333.395 93.02 332.942 94.02C332.489 95.0067 331.855 95.7733 331.042 96.32C330.229 96.8667 329.249 97.14 328.102 97.14ZM328.742 95C329.462 95 330.095 94.8333 330.642 94.5C331.189 94.1533 331.622 93.68 331.942 93.08C332.262 92.48 332.422 91.7867 332.422 91C332.422 90.1733 332.175 89.52 331.682 89.04C331.189 88.56 330.495 88.32 329.602 88.32C328.895 88.32 328.262 88.4933 327.702 88.84C327.155 89.1733 326.722 89.64 326.402 90.24C326.082 90.84 325.922 91.5333 325.922 92.32C325.922 93.1467 326.169 93.8 326.662 94.28C327.155 94.76 327.849 95 328.742 95ZM331.362 97L331.842 94.56L332.522 91.72L332.862 88.86L333.362 86.32H335.862L333.742 97H331.362ZM345.153 86.2C346.073 86.2 346.853 86.3867 347.493 86.76C348.133 87.1333 348.579 87.6867 348.833 88.42C349.099 89.14 349.126 90.0267 348.913 91.08L347.733 97H345.233L346.393 91.14C346.566 90.2733 346.486 89.6 346.153 89.12C345.819 88.6267 345.213 88.38 344.333 88.38C343.413 88.38 342.653 88.6333 342.053 89.14C341.453 89.6467 341.046 90.42 340.833 91.46L339.713 97H337.213L339.333 86.32H341.713L341.113 89.36L340.713 88.4C341.219 87.64 341.853 87.0867 342.613 86.74C343.386 86.38 344.233 86.2 345.153 86.2Z" fill="black"></path><defs><clipPath id="clip0_683_19"><rect width="48" height="45" fill="white" transform="translate(0 17)"></rect></clipPath></defs></svg>