<svg xmlns="http://www.w3.org/2000/svg" width="24" height="24" viewBox="0 0 100 100" fill="currentColor" class="h-6 w-6" aria-hidden="true"><path d="M82 8H18C12.486 8 8 12.486 8 18V82C8 87.514 12.486 92 18 92H82C87.514 92 92 87.514 92 82V18C92 12.486 87.514 8 82 8ZM74.012 44.646C73.558 44.688 73.098 44.716 72.632 44.716C67.386 44.716 62.776 42.018 60.094 37.94C60.094 48.638 60.094 60.81 60.094 61.014C60.094 70.432 52.458 78.068 43.04 78.068C33.622 78.068 25.986 70.432 25.986 61.014C25.986 51.596 33.622 43.96 43.04 43.96C43.396 43.96 43.744 43.992 44.094 44.014V52.418C43.744 52.376 43.4 52.312 43.04 52.312C38.232 52.312 34.336 56.208 34.336 61.016C34.336 65.824 38.232 69.72 43.04 69.72C47.848 69.72 52.094 65.932 52.094 61.124C52.094 60.934 52.178 21.936 52.178 21.936H60.21C60.966 29.118 66.764 34.786 74.012 35.306V44.646Z"></path></svg>